M48
; DRILL file {KiCad 9.0.2} date 2025-06-25T18:48:53+0530
; FORMAT={-:-/ absolute / inch / decimal}
; #@! TF.CreationDate,2025-06-25T18:48:53+05:30
; #@! TF.GenerationSoftware,Kicad,Pcbnew,9.0.2
; #@! TF.FileFunction,MixedPlating,1,2
FMAT,2
INCH
; #@! TA.AperFunction,Plated,PTH,ViaDrill
T1C0.0118
; #@! TA.AperFunction,Plated,PTH,ComponentDrill
T2C0.0236
; #@! TA.AperFunction,NonPlated,NPTH,ComponentDrill
T3C0.0669
%
G90
G05
T1
X4.8937Y-4.1417
X4.8937Y-4.2874
X4.9409Y-5.2638
X4.9409Y-5.6299
X5.0591Y-4.6063
X5.1772Y-5.1654
X5.1929Y-3.8917
X5.2421Y-4.6063
X5.3937Y-4.2087
X5.4252Y-4.6063
X5.4331Y-4.0394
X5.4331Y-4.2638
X5.5039Y-3.8898
X5.7264Y-4.0807
X5.7657Y-4.2264
X5.8091Y-4.2008
X5.8667Y-5.0124
X5.8878Y-4.2972
X5.8976Y-5.0433
X5.8996Y-4.0374
X5.9016Y-3.8898
X5.9252Y-5.5315
X5.9252Y-5.7283
X5.9803Y-4.0984
X5.9941Y-4.4902
X5.9941Y-4.3524
X6.0203Y-4.563
X6.0236Y-4.9764
X6.063Y-5.7205
X6.1142Y-5.2106
X6.1161Y-4.0394
X6.126Y-5.0551
X6.1417Y-5.6969
X6.1654Y-4.6043
X6.1732Y-3.8622
X6.2146Y-4.0689
X6.2166Y-4.5633
X6.2224Y-4.4567
X6.2264Y-3.9094
X6.2559Y-4.6693
X6.2559Y-4.7126
X6.2559Y-4.7835
X6.2559Y-4.8465
X6.2559Y-4.9094
X6.3386Y-4.0669
X6.3602Y-4.6358
X6.3622Y-4.2323
X6.4173Y-4.1772
X6.4173Y-4.2815
X6.4488Y-5.2323
X6.4488Y-5.4528
X6.4764Y-4.6024
X6.4784Y-4.7244
X6.4961Y-5.622
X6.5079Y-4.6299
X6.5079Y-4.6803
X6.6378Y-4.3484
X6.6378Y-4.9961
X6.6535Y-4.252
X6.6713Y-4.6811
X6.7126Y-4.9272
X6.7323Y-5.4528
X6.7795Y-5.1969
X6.7815Y-5.3091
X6.7874Y-4.2047
X6.8268Y-5.1555
X6.8425Y-5.2559
X6.8543Y-5.6299
X6.9007Y-5.0897
X6.9371Y-5.067
X6.9685Y-5.5197
X6.9803Y-4.4134
X6.9961Y-5.124
X7.0394Y-5.1654
X7.0394Y-5.2697
X7.0827Y-5.5591
X7.1811Y-3.8976
X7.1968Y-5.5197
X7.252Y-4.6024
X7.2559Y-4.2283
X7.2618Y-4.9134
X7.2638Y-4.3268
X7.2677Y-5.1693
X7.2697Y-5.2677
X7.311Y-5.6299
X7.311Y-5.7205
X7.3307Y-5.2205
X7.3425Y-4.2618
X7.3652Y-4.9124
X7.4094Y-3.9291
X7.4094Y-4.0433
X7.4173Y-4.2165
X7.425Y-5.5197
X7.4665Y-4.2815
X7.4685Y-3.9843
X7.4961Y-5.1654
X7.4961Y-5.2677
X7.5236Y-4.2244
X7.5394Y-5.6299
X7.5394Y-5.7205
X7.5551Y-5.2205
X7.5807Y-4.2815
X7.6533Y-5.5197
X7.689Y-3.8976
X7.689Y-4.6378
X7.689Y-4.8209
X7.689Y-5.0039
X7.6929Y-4.2815
X7.7244Y-5.1575
X7.7244Y-5.2657
X7.7559Y-4.2244
T3
X7.439Y-4.6102
X7.439Y-5.0039
T2
G00X6.4908Y-3.8921
M15
G01X6.4908Y-3.9236
M16
G05
G00X6.4908Y-4.0504
M15
G01X6.4908Y-4.0937
M16
G05
G00X6.831Y-3.8921
M15
G01X6.831Y-3.9236
M16
G05
G00X6.831Y-4.0504
M15
G01X6.831Y-4.0937
M16
G05
M30
