M48
; DRILL file {KiCad 9.0.3} date 2025-07-24T02:47:54+0530
; FORMAT={-:-/ absolute / inch / decimal}
; #@! TF.CreationDate,2025-07-24T02:47:54+05:30
; #@! TF.GenerationSoftware,Kicad,Pcbnew,9.0.3
; #@! TF.FileFunction,MixedPlating,1,4
FMAT,2
INCH
; #@! TA.AperFunction,Plated,PTH,ViaDrill
T1C0.0118
; #@! TA.AperFunction,Plated,PTH,ComponentDrill
T2C0.0236
; #@! TA.AperFunction,NonPlated,NPTH,ComponentDrill
T3C0.0669
%
G90
G05
T1
X5.1142Y-1.9921
X5.122Y-1.4173
X5.1378Y-2.0945
X5.1772Y-1.685
X5.1811Y-1.8425
X5.2244Y-2.6063
X5.2264Y-2.1378
X5.2264Y-2.4882
X5.2264Y-2.5669
X5.2283Y-2.5276
X5.23Y-2.7402
X5.2323Y-1.4094
X5.2953Y-1.5433
X5.3307Y-2.0039
X5.3327Y-2.1496
X5.374Y-1.5625
X5.374Y-1.6373
X5.4193Y-2.5079
X5.437Y-1.9409
X5.437Y-2.0039
X5.437Y-2.8701
X5.4448Y-2.3268
X5.4665Y-2.5157
X5.4705Y-2.8957
X5.4762Y-2.3463
X5.4882Y-1.4016
X5.4882Y-1.8346
X5.4921Y-1.5118
X5.5008Y-2.3661
X5.502Y-2.9744
X5.5157Y-1.5827
X5.5254Y-2.3858
X5.5499Y-2.4055
X5.5512Y-1.3932
X5.5561Y-2.9951
X5.5758Y-2.4291
X5.5792Y-2.2426
X5.5906Y-2.7638
X5.6092Y-2.2727
X5.6211Y-1.3932
X5.6318Y-2.2953
X5.6496Y-1.5906
X5.6541Y-2.3175
X5.6575Y-2.2087
X5.6614Y-1.5433
X5.6772Y-2.339
X5.6871Y-2.5394
X5.689Y-2.7638
X5.6929Y-1.5512
X5.6994Y-2.3629
X5.7107Y-2.563
X5.7205Y-2.1929
X5.7264Y-2.3871
X5.7343Y-2.5866
X5.749Y-2.4124
X5.7657Y-2.6791
X5.7737Y-2.4372
X5.7835Y-1.9134
X5.7992Y-2.1378
X5.824Y-2.2503
X5.8415Y-2.0689
X5.8504Y-2.547
X5.863Y-2.6811
X5.8925Y-2.2503
X5.8937Y-2.4882
X5.8976Y-2.3543
X5.8996Y-2.2894
X5.8999Y-2.3209
X5.9224Y-2.5149
X5.9331Y-1.7441
X5.935Y-2.0709
X5.9606Y-1.9685
X5.9616Y-2.6506
X5.9838Y-1.378
X5.9846Y-2.7209
X5.9882Y-1.5433
X6.0Y-2.752
X6.0089Y-2.123
X6.0108Y-2.6033
X6.0108Y-2.6654
X6.0108Y-2.5728
X6.0118Y-2.5256
X6.0233Y-2.2121
X6.0517Y-1.3819
X6.0535Y-2.1148
X6.0551Y-2.5177
X6.0689Y-2.7815
X6.0709Y-2.3504
X6.0748Y-2.2087
X6.0807Y-2.5984
X6.1004Y-2.752
X6.1004Y-2.6555
X6.1161Y-2.1299
X6.122Y-1.5472
X6.123Y-2.5157
X6.1525Y-2.127
X6.1654Y-2.4419
X6.2008Y-2.0157
X6.2195Y-2.2018
X6.2195Y-2.4469
X6.2205Y-2.3474
X6.2677Y-2.6102
X6.311Y-1.7874
X6.4173Y-1.563
X6.441Y-1.3831
X6.5118Y-2.4606
X6.5119Y-1.3851
X6.5591Y-2.9724
X6.5866Y-1.5276
X6.622Y-2.2756
X6.7349Y-2.1299
X6.7362Y-1.9213
X6.748Y-2.2818
X6.7677Y-2.2283
X6.7717Y-2.815
X6.7795Y-1.7835
X6.7992Y-2.5945
X6.8622Y-2.5709
X6.878Y-2.8307
X6.9016Y-2.1811
X6.9961Y-2.7441
X7.0276Y-2.1339
X7.0433Y-1.7165
X7.0827Y-1.6378
X7.0906Y-1.7559
X7.126Y-2.2559
X7.1969Y-1.7283
X7.3346Y-2.3228
X7.3425Y-1.6417
X7.3661Y-1.7362
T3
X7.063Y-2.5276
X7.063Y-2.9213
T2
G00X7.0425Y-1.3936
M15
G01X7.0425Y-1.37
M16
G05
G00X7.0425Y-1.568
M15
G01X7.0425Y-1.5247
M16
G05
G00X7.3827Y-1.3936
M15
G01X7.3827Y-1.37
M16
G05
G00X7.3827Y-1.568
M15
G01X7.3827Y-1.5247
M16
G05
M30
