%TF.GenerationSoftware,KiCad,Pcbnew,9.0.3*%
%TF.CreationDate,2025-07-24T02:47:58+05:30*%
%TF.ProjectId,DevBoard_F1C100s_Rev2,44657642-6f61-4726-945f-463143313030,rev?*%
%TF.SameCoordinates,Original*%
%TF.FileFunction,Soldermask,Bot*%
%TF.FilePolarity,Negative*%
%FSLAX46Y46*%
G04 Gerber Fmt 4.6, Leading zero omitted, Abs format (unit mm)*
G04 Created by KiCad (PCBNEW 9.0.3) date 2025-07-24 02:47:58*
%MOMM*%
%LPD*%
G01*
G04 APERTURE LIST*
G04 Aperture macros list*
%AMRoundRect*
0 Rectangle with rounded corners*
0 $1 Rounding radius*
0 $2 $3 $4 $5 $6 $7 $8 $9 X,Y pos of 4 corners*
0 Add a 4 corners polygon primitive as box body*
4,1,4,$2,$3,$4,$5,$6,$7,$8,$9,$2,$3,0*
0 Add four circle primitives for the rounded corners*
1,1,$1+$1,$2,$3*
1,1,$1+$1,$4,$5*
1,1,$1+$1,$6,$7*
1,1,$1+$1,$8,$9*
0 Add four rect primitives between the rounded corners*
20,1,$1+$1,$2,$3,$4,$5,0*
20,1,$1+$1,$4,$5,$6,$7,0*
20,1,$1+$1,$6,$7,$8,$9,0*
20,1,$1+$1,$8,$9,$2,$3,0*%
G04 Aperture macros list end*
%ADD10C,1.700000*%
%ADD11C,1.000000*%
%ADD12RoundRect,0.237500X0.300000X0.237500X-0.300000X0.237500X-0.300000X-0.237500X0.300000X-0.237500X0*%
%ADD13RoundRect,0.237500X-0.300000X-0.237500X0.300000X-0.237500X0.300000X0.237500X-0.300000X0.237500X0*%
%ADD14RoundRect,0.237500X-0.237500X0.300000X-0.237500X-0.300000X0.237500X-0.300000X0.237500X0.300000X0*%
%ADD15RoundRect,0.237500X0.237500X-0.300000X0.237500X0.300000X-0.237500X0.300000X-0.237500X-0.300000X0*%
%ADD16O,1.000000X2.100000*%
%ADD17O,1.000000X1.600000*%
G04 APERTURE END LIST*
D10*
%TO.C,J2*%
X179400000Y-64200000D03*
X179400000Y-74200000D03*
%TD*%
D11*
%TO.C,TP5*%
X151012500Y-33175000D03*
%TD*%
%TO.C,TP4*%
X139699999Y-33987501D03*
%TD*%
D12*
%TO.C,C9*%
X147737500Y-55650000D03*
X149462500Y-55650000D03*
%TD*%
%TO.C,C12*%
X145287500Y-57225000D03*
X147012500Y-57225000D03*
%TD*%
D13*
%TO.C,C8*%
X153237500Y-55200000D03*
X151512500Y-55200000D03*
%TD*%
D12*
%TO.C,C5*%
X149737500Y-64200000D03*
X151462500Y-64200000D03*
%TD*%
D14*
%TO.C,C14*%
X147700000Y-64737500D03*
X147700000Y-66462500D03*
%TD*%
D15*
%TO.C,C4*%
X154100000Y-61025000D03*
X154100000Y-62750000D03*
%TD*%
%TO.C,C3*%
X155600000Y-61025000D03*
X155600000Y-62750000D03*
%TD*%
D13*
%TO.C,C18*%
X155537500Y-66025000D03*
X157262500Y-66025000D03*
%TD*%
D14*
%TO.C,C7*%
X153475000Y-67337500D03*
X153475000Y-69062500D03*
%TD*%
D15*
%TO.C,C2*%
X152600000Y-60937500D03*
X152600000Y-62662500D03*
%TD*%
D13*
%TO.C,C15*%
X157512500Y-54050000D03*
X159237500Y-54050000D03*
%TD*%
%TO.C,C13*%
X157500000Y-52475000D03*
X159225000Y-52475000D03*
%TD*%
D15*
%TO.C,C11*%
X158000000Y-60662500D03*
X158000000Y-58937500D03*
%TD*%
D11*
%TO.C,TP6*%
X162476307Y-33305999D03*
%TD*%
%TO.C,TP3*%
X153725000Y-51175000D03*
%TD*%
D16*
%TO.C,J3*%
X187520000Y-39278000D03*
D17*
X187520000Y-35098000D03*
D16*
X178880000Y-39278000D03*
D17*
X178880000Y-35098000D03*
%TD*%
D12*
%TO.C,C10*%
X155262500Y-57450000D03*
X153537500Y-57450000D03*
%TD*%
%TO.C,C6*%
X149750000Y-65700000D03*
X151475000Y-65700000D03*
%TD*%
M02*
