%TF.GenerationSoftware,KiCad,Pcbnew,9.0.2*%
%TF.CreationDate,2025-06-25T14:41:33+05:30*%
%TF.ProjectId,DevBoard_F1C100s,44657642-6f61-4726-945f-463143313030,rev?*%
%TF.SameCoordinates,Original*%
%TF.FileFunction,Copper,L2,Bot*%
%TF.FilePolarity,Positive*%
%FSLAX46Y46*%
G04 Gerber Fmt 4.6, Leading zero omitted, Abs format (unit mm)*
G04 Created by KiCad (PCBNEW 9.0.2) date 2025-06-25 14:41:33*
%MOMM*%
%LPD*%
G01*
G04 APERTURE LIST*
%TA.AperFunction,HeatsinkPad*%
%ADD10O,0.900000X1.700000*%
%TD*%
%TA.AperFunction,HeatsinkPad*%
%ADD11O,0.900000X2.000000*%
%TD*%
%TA.AperFunction,ViaPad*%
%ADD12C,0.600000*%
%TD*%
%TA.AperFunction,Conductor*%
%ADD13C,0.200000*%
%TD*%
%TA.AperFunction,Conductor*%
%ADD14C,1.000000*%
%TD*%
%TA.AperFunction,Conductor*%
%ADD15C,0.500000*%
%TD*%
G04 APERTURE END LIST*
D10*
%TO.P,J101,S1,SHIELD*%
%TO.N,GND*%
X164867500Y-99260000D03*
D11*
X164867500Y-103430000D03*
D10*
X173507500Y-99260000D03*
D11*
X173507500Y-103430000D03*
%TD*%
D12*
%TO.N,GND*%
X195400000Y-108750000D03*
X192550000Y-108750000D03*
X189650000Y-108750000D03*
X189700000Y-101200000D03*
X155300000Y-132350000D03*
X165000000Y-142800000D03*
X186500000Y-108250000D03*
X184450000Y-124800000D03*
X184400000Y-117900000D03*
X196200000Y-133750000D03*
X190400000Y-133800000D03*
X184650000Y-133800000D03*
X177700000Y-130150000D03*
X178800000Y-133850000D03*
X172250000Y-134850000D03*
X173400000Y-130950000D03*
X170500000Y-125150000D03*
X169450000Y-118900000D03*
%TO.N,/3V3*%
X158050000Y-113200000D03*
%TO.N,GND*%
X168600000Y-110450000D03*
X163000000Y-108750000D03*
X158150000Y-99300000D03*
X157850000Y-103350000D03*
X155350000Y-102600000D03*
X149850000Y-102550000D03*
X151900000Y-104100000D03*
X149550000Y-109150000D03*
X147550000Y-106700000D03*
X146450000Y-107350000D03*
X145450000Y-103650000D03*
X138000000Y-102600000D03*
X138000000Y-108300000D03*
X124300000Y-108900000D03*
X124300000Y-105200000D03*
X131900000Y-98850000D03*
X152916535Y-115899608D03*
%TO.N,/2V6*%
X152250000Y-114050000D03*
%TO.N,GND*%
X156600000Y-116950000D03*
%TO.N,/3V3*%
X161550000Y-117750000D03*
X158900000Y-118600000D03*
X158900000Y-119700000D03*
X158900000Y-121500000D03*
X158900000Y-123100000D03*
X158900000Y-124700000D03*
%TO.N,/2V6*%
X153000000Y-126400000D03*
X152251000Y-110551000D03*
%TO.N,/1V1*%
X155600000Y-128400000D03*
X149014265Y-127314265D03*
X149800000Y-128100000D03*
X157901000Y-115907636D03*
%TO.N,/SW0*%
X179900000Y-141200000D03*
X156000000Y-144700000D03*
%TO.N,/SW1*%
X154000000Y-145300000D03*
X174100000Y-143000000D03*
%TO.N,/SW3*%
X191500000Y-143000000D03*
X191500000Y-145300000D03*
%TO.N,/SW2*%
X185700000Y-143000000D03*
X185700000Y-145300000D03*
%TO.N,/SPI0_MISO*%
X165300000Y-118879000D03*
X165300000Y-117600000D03*
%TO.N,/SPI0_CS*%
X164551473Y-120000000D03*
X164500000Y-116900000D03*
%TD*%
D13*
%TO.N,/3V3*%
X161550000Y-116700000D02*
X161550000Y-117750000D01*
X158050000Y-113200000D02*
X161550000Y-116700000D01*
D14*
%TO.N,/2V6*%
X154000000Y-115300000D02*
X154000000Y-125400000D01*
X152750000Y-114050000D02*
X154000000Y-115300000D01*
X154000000Y-125400000D02*
X153000000Y-126400000D01*
X152250000Y-114050000D02*
X152750000Y-114050000D01*
X152251000Y-110551000D02*
X152250000Y-110552000D01*
X152250000Y-110552000D02*
X152250000Y-114050000D01*
%TO.N,/3V3*%
X160700000Y-118600000D02*
X158900000Y-118600000D01*
X161550000Y-117750000D02*
X160700000Y-118600000D01*
%TO.N,/1V1*%
X155600000Y-123800000D02*
X155600000Y-128400000D01*
X150100000Y-128400000D02*
X149800000Y-128100000D01*
X157600000Y-116208636D02*
X157600000Y-121800000D01*
X155600000Y-128400000D02*
X150100000Y-128400000D01*
X157901000Y-115907636D02*
X157600000Y-116208636D01*
X149800000Y-128100000D02*
X149014265Y-127314265D01*
X157600000Y-121800000D02*
X155600000Y-123800000D01*
D13*
%TO.N,/SW0*%
X171500000Y-144700000D02*
X173900000Y-142300000D01*
X178800000Y-142300000D02*
X179900000Y-141200000D01*
X156000000Y-144700000D02*
X171500000Y-144700000D01*
X173900000Y-142300000D02*
X178800000Y-142300000D01*
%TO.N,/SW1*%
X154000000Y-145300000D02*
X171800000Y-145300000D01*
X171800000Y-145300000D02*
X174100000Y-143000000D01*
%TO.N,/SW3*%
X191500000Y-143000000D02*
X191500000Y-145300000D01*
%TO.N,/SW2*%
X185700000Y-143000000D02*
X185700000Y-145300000D01*
%TO.N,/SPI0_MISO*%
X165300000Y-118879000D02*
X165300000Y-117600000D01*
%TO.N,/SPI0_CS*%
X164500000Y-116900000D02*
X164500000Y-119948527D01*
X164500000Y-119948527D02*
X164551473Y-120000000D01*
D15*
%TO.N,/3V3*%
X158900000Y-118600000D02*
X158900000Y-123100000D01*
X158900000Y-123100000D02*
X158900000Y-124700000D01*
%TD*%
%TA.AperFunction,Conductor*%
%TO.N,GND*%
G36*
X197642539Y-97650185D02*
G01*
X197688294Y-97702989D01*
X197699500Y-97754500D01*
X197699500Y-146505500D01*
X197679815Y-146572539D01*
X197627011Y-146618294D01*
X197575500Y-146629500D01*
X123824500Y-146629500D01*
X123757461Y-146609815D01*
X123711706Y-146557011D01*
X123700500Y-146505500D01*
X123700500Y-145221153D01*
X153199500Y-145221153D01*
X153199500Y-145378846D01*
X153230261Y-145533489D01*
X153230264Y-145533501D01*
X153290602Y-145679172D01*
X153290609Y-145679185D01*
X153378210Y-145810288D01*
X153378213Y-145810292D01*
X153489707Y-145921786D01*
X153489711Y-145921789D01*
X153620814Y-146009390D01*
X153620827Y-146009397D01*
X153766498Y-146069735D01*
X153766503Y-146069737D01*
X153921153Y-146100499D01*
X153921156Y-146100500D01*
X153921158Y-146100500D01*
X154078844Y-146100500D01*
X154078845Y-146100499D01*
X154233497Y-146069737D01*
X154379179Y-146009394D01*
X154379185Y-146009390D01*
X154510875Y-145921398D01*
X154577553Y-145900520D01*
X154579766Y-145900500D01*
X171713331Y-145900500D01*
X171713347Y-145900501D01*
X171720943Y-145900501D01*
X171879054Y-145900501D01*
X171879057Y-145900501D01*
X172031785Y-145859577D01*
X172081904Y-145830639D01*
X172168716Y-145780520D01*
X172280520Y-145668716D01*
X172280520Y-145668714D01*
X172290728Y-145658507D01*
X172290729Y-145658504D01*
X174114662Y-143834572D01*
X174175983Y-143801089D01*
X174178150Y-143800638D01*
X174236085Y-143789113D01*
X174333497Y-143769737D01*
X174479179Y-143709394D01*
X174610289Y-143621789D01*
X174721789Y-143510289D01*
X174809394Y-143379179D01*
X174869737Y-143233497D01*
X174900500Y-143078842D01*
X174900500Y-143024500D01*
X174920185Y-142957461D01*
X174962087Y-142921153D01*
X184899500Y-142921153D01*
X184899500Y-143078846D01*
X184930261Y-143233489D01*
X184930264Y-143233501D01*
X184990602Y-143379172D01*
X184990609Y-143379185D01*
X185078602Y-143510874D01*
X185099480Y-143577551D01*
X185099500Y-143579765D01*
X185099500Y-144720234D01*
X185079815Y-144787273D01*
X185078602Y-144789125D01*
X184990609Y-144920814D01*
X184990602Y-144920827D01*
X184930264Y-145066498D01*
X184930261Y-145066510D01*
X184899500Y-145221153D01*
X184899500Y-145378846D01*
X184930261Y-145533489D01*
X184930264Y-145533501D01*
X184990602Y-145679172D01*
X184990609Y-145679185D01*
X185078210Y-145810288D01*
X185078213Y-145810292D01*
X185189707Y-145921786D01*
X185189711Y-145921789D01*
X185320814Y-146009390D01*
X185320827Y-146009397D01*
X185466498Y-146069735D01*
X185466503Y-146069737D01*
X185621153Y-146100499D01*
X185621156Y-146100500D01*
X185621158Y-146100500D01*
X185778844Y-146100500D01*
X185778845Y-146100499D01*
X185933497Y-146069737D01*
X186079179Y-146009394D01*
X186210289Y-145921789D01*
X186321789Y-145810289D01*
X186409394Y-145679179D01*
X186469737Y-145533497D01*
X186500500Y-145378842D01*
X186500500Y-145221158D01*
X186500500Y-145221155D01*
X186500499Y-145221153D01*
X186469738Y-145066510D01*
X186469737Y-145066503D01*
X186469735Y-145066498D01*
X186409397Y-144920827D01*
X186409390Y-144920814D01*
X186321398Y-144789125D01*
X186300520Y-144722447D01*
X186300500Y-144720234D01*
X186300500Y-143579765D01*
X186320185Y-143512726D01*
X186321398Y-143510874D01*
X186409390Y-143379185D01*
X186409390Y-143379184D01*
X186409394Y-143379179D01*
X186469737Y-143233497D01*
X186500500Y-143078842D01*
X186500500Y-142921158D01*
X186500500Y-142921155D01*
X186500499Y-142921153D01*
X190699500Y-142921153D01*
X190699500Y-143078846D01*
X190730261Y-143233489D01*
X190730264Y-143233501D01*
X190790602Y-143379172D01*
X190790609Y-143379185D01*
X190878602Y-143510874D01*
X190899480Y-143577551D01*
X190899500Y-143579765D01*
X190899500Y-144720234D01*
X190879815Y-144787273D01*
X190878602Y-144789125D01*
X190790609Y-144920814D01*
X190790602Y-144920827D01*
X190730264Y-145066498D01*
X190730261Y-145066510D01*
X190699500Y-145221153D01*
X190699500Y-145378846D01*
X190730261Y-145533489D01*
X190730264Y-145533501D01*
X190790602Y-145679172D01*
X190790609Y-145679185D01*
X190878210Y-145810288D01*
X190878213Y-145810292D01*
X190989707Y-145921786D01*
X190989711Y-145921789D01*
X191120814Y-146009390D01*
X191120827Y-146009397D01*
X191266498Y-146069735D01*
X191266503Y-146069737D01*
X191421153Y-146100499D01*
X191421156Y-146100500D01*
X191421158Y-146100500D01*
X191578844Y-146100500D01*
X191578845Y-146100499D01*
X191733497Y-146069737D01*
X191879179Y-146009394D01*
X192010289Y-145921789D01*
X192121789Y-145810289D01*
X192209394Y-145679179D01*
X192269737Y-145533497D01*
X192300500Y-145378842D01*
X192300500Y-145221158D01*
X192300500Y-145221155D01*
X192300499Y-145221153D01*
X192269738Y-145066510D01*
X192269737Y-145066503D01*
X192269735Y-145066498D01*
X192209397Y-144920827D01*
X192209390Y-144920814D01*
X192121398Y-144789125D01*
X192100520Y-144722447D01*
X192100500Y-144720234D01*
X192100500Y-143579765D01*
X192120185Y-143512726D01*
X192121398Y-143510874D01*
X192209390Y-143379185D01*
X192209390Y-143379184D01*
X192209394Y-143379179D01*
X192269737Y-143233497D01*
X192300500Y-143078842D01*
X192300500Y-142921158D01*
X192300500Y-142921155D01*
X192300499Y-142921153D01*
X192272525Y-142780520D01*
X192269737Y-142766503D01*
X192229233Y-142668716D01*
X192209397Y-142620827D01*
X192209390Y-142620814D01*
X192121789Y-142489711D01*
X192121786Y-142489707D01*
X192010292Y-142378213D01*
X192010288Y-142378210D01*
X191879185Y-142290609D01*
X191879172Y-142290602D01*
X191733501Y-142230264D01*
X191733489Y-142230261D01*
X191578845Y-142199500D01*
X191578842Y-142199500D01*
X191421158Y-142199500D01*
X191421155Y-142199500D01*
X191266510Y-142230261D01*
X191266498Y-142230264D01*
X191120827Y-142290602D01*
X191120814Y-142290609D01*
X190989711Y-142378210D01*
X190989707Y-142378213D01*
X190878213Y-142489707D01*
X190878210Y-142489711D01*
X190790609Y-142620814D01*
X190790602Y-142620827D01*
X190730264Y-142766498D01*
X190730261Y-142766510D01*
X190699500Y-142921153D01*
X186500499Y-142921153D01*
X186472525Y-142780520D01*
X186469737Y-142766503D01*
X186429233Y-142668716D01*
X186409397Y-142620827D01*
X186409390Y-142620814D01*
X186321789Y-142489711D01*
X186321786Y-142489707D01*
X186210292Y-142378213D01*
X186210288Y-142378210D01*
X186079185Y-142290609D01*
X186079172Y-142290602D01*
X185933501Y-142230264D01*
X185933489Y-142230261D01*
X185778845Y-142199500D01*
X185778842Y-142199500D01*
X185621158Y-142199500D01*
X185621155Y-142199500D01*
X185466510Y-142230261D01*
X185466498Y-142230264D01*
X185320827Y-142290602D01*
X185320814Y-142290609D01*
X185189711Y-142378210D01*
X185189707Y-142378213D01*
X185078213Y-142489707D01*
X185078210Y-142489711D01*
X184990609Y-142620814D01*
X184990602Y-142620827D01*
X184930264Y-142766498D01*
X184930261Y-142766510D01*
X184899500Y-142921153D01*
X174962087Y-142921153D01*
X174972989Y-142911706D01*
X175024500Y-142900500D01*
X178713331Y-142900500D01*
X178713347Y-142900501D01*
X178720943Y-142900501D01*
X178879054Y-142900501D01*
X178879057Y-142900501D01*
X179031785Y-142859577D01*
X179117211Y-142810256D01*
X179168716Y-142780520D01*
X179280520Y-142668716D01*
X179280520Y-142668714D01*
X179290724Y-142658511D01*
X179290727Y-142658506D01*
X179914662Y-142034572D01*
X179975983Y-142001089D01*
X179978150Y-142000638D01*
X180036085Y-141989113D01*
X180133497Y-141969737D01*
X180279179Y-141909394D01*
X180410289Y-141821789D01*
X180521789Y-141710289D01*
X180609394Y-141579179D01*
X180669737Y-141433497D01*
X180700500Y-141278842D01*
X180700500Y-141121158D01*
X180700500Y-141121155D01*
X180700499Y-141121153D01*
X180669738Y-140966510D01*
X180669738Y-140966508D01*
X180669737Y-140966503D01*
X180669735Y-140966498D01*
X180609397Y-140820827D01*
X180609390Y-140820814D01*
X180521789Y-140689711D01*
X180521786Y-140689707D01*
X180410292Y-140578213D01*
X180410288Y-140578210D01*
X180279185Y-140490609D01*
X180279172Y-140490602D01*
X180133501Y-140430264D01*
X180133489Y-140430261D01*
X179978845Y-140399500D01*
X179978842Y-140399500D01*
X179821158Y-140399500D01*
X179821155Y-140399500D01*
X179666510Y-140430261D01*
X179666498Y-140430264D01*
X179520827Y-140490602D01*
X179520814Y-140490609D01*
X179389711Y-140578210D01*
X179389707Y-140578213D01*
X179278213Y-140689707D01*
X179278210Y-140689711D01*
X179190609Y-140820814D01*
X179190602Y-140820827D01*
X179130264Y-140966498D01*
X179130261Y-140966508D01*
X179099361Y-141121850D01*
X179066976Y-141183761D01*
X179065425Y-141185339D01*
X178587584Y-141663181D01*
X178526261Y-141696666D01*
X178499903Y-141699500D01*
X173986670Y-141699500D01*
X173986654Y-141699499D01*
X173979058Y-141699499D01*
X173820943Y-141699499D01*
X173744579Y-141719961D01*
X173668214Y-141740423D01*
X173668209Y-141740426D01*
X173531290Y-141819475D01*
X173531282Y-141819481D01*
X171287584Y-144063181D01*
X171226261Y-144096666D01*
X171199903Y-144099500D01*
X156579766Y-144099500D01*
X156512727Y-144079815D01*
X156510875Y-144078602D01*
X156379185Y-143990609D01*
X156379172Y-143990602D01*
X156233501Y-143930264D01*
X156233489Y-143930261D01*
X156078845Y-143899500D01*
X156078842Y-143899500D01*
X155921158Y-143899500D01*
X155921155Y-143899500D01*
X155766510Y-143930261D01*
X155766498Y-143930264D01*
X155620827Y-143990602D01*
X155620814Y-143990609D01*
X155489711Y-144078210D01*
X155489707Y-144078213D01*
X155378213Y-144189707D01*
X155378210Y-144189711D01*
X155290609Y-144320814D01*
X155290602Y-144320827D01*
X155230264Y-144466498D01*
X155230261Y-144466508D01*
X155203769Y-144599692D01*
X155171384Y-144661603D01*
X155110668Y-144696177D01*
X155082152Y-144699500D01*
X154579766Y-144699500D01*
X154512727Y-144679815D01*
X154510875Y-144678602D01*
X154379185Y-144590609D01*
X154379172Y-144590602D01*
X154233501Y-144530264D01*
X154233489Y-144530261D01*
X154078845Y-144499500D01*
X154078842Y-144499500D01*
X153921158Y-144499500D01*
X153921155Y-144499500D01*
X153766510Y-144530261D01*
X153766498Y-144530264D01*
X153620827Y-144590602D01*
X153620814Y-144590609D01*
X153489711Y-144678210D01*
X153489707Y-144678213D01*
X153378213Y-144789707D01*
X153378210Y-144789711D01*
X153290609Y-144920814D01*
X153290602Y-144920827D01*
X153230264Y-145066498D01*
X153230261Y-145066510D01*
X153199500Y-145221153D01*
X123700500Y-145221153D01*
X123700500Y-127215720D01*
X148013765Y-127215720D01*
X148013765Y-127412809D01*
X148052212Y-127606093D01*
X148052214Y-127606101D01*
X148127632Y-127788175D01*
X148127637Y-127788185D01*
X148237125Y-127952045D01*
X148237128Y-127952049D01*
X149022861Y-128737781D01*
X149319735Y-129034655D01*
X149319764Y-129034686D01*
X149462214Y-129177136D01*
X149462218Y-129177139D01*
X149626079Y-129286628D01*
X149626092Y-129286635D01*
X149754833Y-129339961D01*
X149797744Y-129357735D01*
X149808164Y-129362051D01*
X149904812Y-129381275D01*
X149953135Y-129390887D01*
X150001458Y-129400500D01*
X150001459Y-129400500D01*
X155698543Y-129400500D01*
X155828582Y-129374632D01*
X155891835Y-129362051D01*
X156073914Y-129286632D01*
X156237782Y-129177139D01*
X156377139Y-129037782D01*
X156486632Y-128873914D01*
X156562051Y-128691835D01*
X156600500Y-128498541D01*
X156600500Y-126993713D01*
X187599500Y-126993713D01*
X187599500Y-127054381D01*
X187599500Y-127206287D01*
X187604427Y-127237395D01*
X187629820Y-127397722D01*
X187632754Y-127416243D01*
X187694440Y-127606093D01*
X187698444Y-127618414D01*
X187794951Y-127807820D01*
X187919890Y-127979786D01*
X188070213Y-128130109D01*
X188242179Y-128255048D01*
X188242181Y-128255049D01*
X188242184Y-128255051D01*
X188431588Y-128351557D01*
X188633757Y-128417246D01*
X188843713Y-128450500D01*
X188843714Y-128450500D01*
X189056286Y-128450500D01*
X189056287Y-128450500D01*
X189266243Y-128417246D01*
X189468412Y-128351557D01*
X189657816Y-128255051D01*
X189679789Y-128239086D01*
X189829786Y-128130109D01*
X189829788Y-128130106D01*
X189829792Y-128130104D01*
X189980104Y-127979792D01*
X189980106Y-127979788D01*
X189980109Y-127979786D01*
X190105048Y-127807820D01*
X190105047Y-127807820D01*
X190105051Y-127807816D01*
X190201557Y-127618412D01*
X190267246Y-127416243D01*
X190300500Y-127206287D01*
X190300500Y-126993713D01*
X190267246Y-126783757D01*
X190201557Y-126581588D01*
X190105051Y-126392184D01*
X190105049Y-126392181D01*
X190105048Y-126392179D01*
X189980109Y-126220213D01*
X189829786Y-126069890D01*
X189657820Y-125944951D01*
X189468414Y-125848444D01*
X189468413Y-125848443D01*
X189468412Y-125848443D01*
X189266243Y-125782754D01*
X189266241Y-125782753D01*
X189266240Y-125782753D01*
X189104957Y-125757208D01*
X189056287Y-125749500D01*
X188843713Y-125749500D01*
X188795042Y-125757208D01*
X188633760Y-125782753D01*
X188431585Y-125848444D01*
X188242179Y-125944951D01*
X188070213Y-126069890D01*
X187919890Y-126220213D01*
X187794951Y-126392179D01*
X187698444Y-126581585D01*
X187632753Y-126783760D01*
X187618475Y-126873910D01*
X187599500Y-126993713D01*
X156600500Y-126993713D01*
X156600500Y-124265782D01*
X156620185Y-124198743D01*
X156636819Y-124178101D01*
X157887852Y-122927067D01*
X157949173Y-122893584D01*
X158018865Y-122898568D01*
X158074798Y-122940440D01*
X158099215Y-123005904D01*
X158099094Y-123015066D01*
X158099500Y-123015066D01*
X158099500Y-123178846D01*
X158130261Y-123333489D01*
X158130263Y-123333497D01*
X158140061Y-123357151D01*
X158149500Y-123404604D01*
X158149500Y-124395396D01*
X158140062Y-124442844D01*
X158130263Y-124466503D01*
X158130262Y-124466506D01*
X158130260Y-124466511D01*
X158099500Y-124621153D01*
X158099500Y-124778846D01*
X158130261Y-124933489D01*
X158130264Y-124933501D01*
X158190602Y-125079172D01*
X158190609Y-125079185D01*
X158278210Y-125210288D01*
X158278213Y-125210292D01*
X158389707Y-125321786D01*
X158389711Y-125321789D01*
X158520814Y-125409390D01*
X158520827Y-125409397D01*
X158666498Y-125469735D01*
X158666503Y-125469737D01*
X158821153Y-125500499D01*
X158821156Y-125500500D01*
X158821158Y-125500500D01*
X158978844Y-125500500D01*
X158978845Y-125500499D01*
X159133497Y-125469737D01*
X159279179Y-125409394D01*
X159410289Y-125321789D01*
X159521789Y-125210289D01*
X159609394Y-125079179D01*
X159669737Y-124933497D01*
X159700500Y-124778842D01*
X159700500Y-124621158D01*
X159700500Y-124621155D01*
X159700499Y-124621153D01*
X159669739Y-124466511D01*
X159669738Y-124466508D01*
X159669737Y-124466503D01*
X159659937Y-124442844D01*
X159650500Y-124395396D01*
X159650500Y-123404604D01*
X159659939Y-123357151D01*
X159669737Y-123333497D01*
X159700500Y-123178842D01*
X159700500Y-123021158D01*
X159700500Y-123021155D01*
X159700499Y-123021153D01*
X159669739Y-122866511D01*
X159669738Y-122866508D01*
X159669737Y-122866503D01*
X159659937Y-122842844D01*
X159650500Y-122795396D01*
X159650500Y-121804604D01*
X159659939Y-121757151D01*
X159669737Y-121733497D01*
X159700500Y-121578842D01*
X159700500Y-121421158D01*
X159700500Y-121421155D01*
X159700499Y-121421153D01*
X159669739Y-121266511D01*
X159669738Y-121266508D01*
X159669737Y-121266503D01*
X159659937Y-121242844D01*
X159650500Y-121195396D01*
X159650500Y-120004604D01*
X159659939Y-119957151D01*
X159669737Y-119933497D01*
X159700500Y-119778842D01*
X159700500Y-119724500D01*
X159720185Y-119657461D01*
X159772989Y-119611706D01*
X159824500Y-119600500D01*
X160798542Y-119600500D01*
X160829566Y-119594328D01*
X160895188Y-119581275D01*
X160991836Y-119562051D01*
X161045165Y-119539961D01*
X161173914Y-119486632D01*
X161337782Y-119377139D01*
X161477139Y-119237782D01*
X161477139Y-119237780D01*
X161487347Y-119227573D01*
X161487348Y-119227570D01*
X162327140Y-118387781D01*
X162436632Y-118223914D01*
X162512052Y-118041835D01*
X162550501Y-117848540D01*
X162550501Y-117651459D01*
X162550501Y-117651456D01*
X162550500Y-117651454D01*
X162543928Y-117618414D01*
X162512052Y-117458164D01*
X162436632Y-117276085D01*
X162436631Y-117276084D01*
X162436628Y-117276078D01*
X162327140Y-117112218D01*
X162327137Y-117112214D01*
X162186819Y-116971896D01*
X162172115Y-116944968D01*
X162155523Y-116919150D01*
X162154631Y-116912949D01*
X162153334Y-116910573D01*
X162150500Y-116884215D01*
X162150500Y-116821153D01*
X163699500Y-116821153D01*
X163699500Y-116978846D01*
X163730261Y-117133489D01*
X163730264Y-117133501D01*
X163790602Y-117279172D01*
X163790609Y-117279185D01*
X163878602Y-117410874D01*
X163899480Y-117477551D01*
X163899500Y-117479765D01*
X163899500Y-119497269D01*
X163879815Y-119564308D01*
X163878602Y-119566159D01*
X163842085Y-119620810D01*
X163842075Y-119620828D01*
X163781737Y-119766498D01*
X163781734Y-119766510D01*
X163750973Y-119921153D01*
X163750973Y-120078846D01*
X163781734Y-120233489D01*
X163781737Y-120233501D01*
X163842075Y-120379172D01*
X163842082Y-120379185D01*
X163929683Y-120510288D01*
X163929686Y-120510292D01*
X164041180Y-120621786D01*
X164041184Y-120621789D01*
X164172287Y-120709390D01*
X164172300Y-120709397D01*
X164317971Y-120769735D01*
X164317976Y-120769737D01*
X164472626Y-120800499D01*
X164472629Y-120800500D01*
X164472631Y-120800500D01*
X164630317Y-120800500D01*
X164630318Y-120800499D01*
X164784970Y-120769737D01*
X164930652Y-120709394D01*
X165061762Y-120621789D01*
X165173262Y-120510289D01*
X165260867Y-120379179D01*
X165321210Y-120233497D01*
X165351973Y-120078842D01*
X165351973Y-119921158D01*
X165330947Y-119815455D01*
X165337174Y-119745866D01*
X165380036Y-119690688D01*
X165428373Y-119669648D01*
X165470471Y-119661273D01*
X165533497Y-119648737D01*
X165679179Y-119588394D01*
X165810289Y-119500789D01*
X165921789Y-119389289D01*
X166009394Y-119258179D01*
X166069737Y-119112497D01*
X166100500Y-118957842D01*
X166100500Y-118800158D01*
X166100500Y-118800155D01*
X166100499Y-118800153D01*
X166069738Y-118645510D01*
X166069737Y-118645503D01*
X166069735Y-118645498D01*
X166009397Y-118499827D01*
X166009390Y-118499814D01*
X165921398Y-118368125D01*
X165915747Y-118350078D01*
X165905523Y-118334169D01*
X165901071Y-118303207D01*
X165900520Y-118301447D01*
X165900500Y-118299234D01*
X165900500Y-118179765D01*
X165920185Y-118112726D01*
X165921398Y-118110874D01*
X166009390Y-117979185D01*
X166009390Y-117979184D01*
X166009394Y-117979179D01*
X166069737Y-117833497D01*
X166100500Y-117678842D01*
X166100500Y-117521158D01*
X166100500Y-117521155D01*
X166100499Y-117521153D01*
X166087971Y-117458171D01*
X166069737Y-117366503D01*
X166033569Y-117279185D01*
X166009397Y-117220827D01*
X166009390Y-117220814D01*
X165921789Y-117089711D01*
X165921786Y-117089707D01*
X165825792Y-116993713D01*
X187599500Y-116993713D01*
X187599500Y-117054381D01*
X187599500Y-117206287D01*
X187609534Y-117269644D01*
X187631903Y-117410874D01*
X187632754Y-117416243D01*
X187695708Y-117609996D01*
X187698444Y-117618414D01*
X187794951Y-117807820D01*
X187919890Y-117979786D01*
X188070213Y-118130109D01*
X188242179Y-118255048D01*
X188242181Y-118255049D01*
X188242184Y-118255051D01*
X188431588Y-118351557D01*
X188633757Y-118417246D01*
X188843713Y-118450500D01*
X188843714Y-118450500D01*
X189056286Y-118450500D01*
X189056287Y-118450500D01*
X189266243Y-118417246D01*
X189468412Y-118351557D01*
X189657816Y-118255051D01*
X189679789Y-118239086D01*
X189829786Y-118130109D01*
X189829788Y-118130106D01*
X189829792Y-118130104D01*
X189980104Y-117979792D01*
X189980106Y-117979788D01*
X189980109Y-117979786D01*
X190105048Y-117807820D01*
X190105047Y-117807820D01*
X190105051Y-117807816D01*
X190201557Y-117618412D01*
X190267246Y-117416243D01*
X190300500Y-117206287D01*
X190300500Y-116993713D01*
X190267246Y-116783757D01*
X190201557Y-116581588D01*
X190105051Y-116392184D01*
X190105049Y-116392181D01*
X190105048Y-116392179D01*
X189980109Y-116220213D01*
X189829786Y-116069890D01*
X189657820Y-115944951D01*
X189468414Y-115848444D01*
X189468413Y-115848443D01*
X189468412Y-115848443D01*
X189266243Y-115782754D01*
X189266241Y-115782753D01*
X189266240Y-115782753D01*
X189104957Y-115757208D01*
X189056287Y-115749500D01*
X188843713Y-115749500D01*
X188795042Y-115757208D01*
X188633760Y-115782753D01*
X188431585Y-115848444D01*
X188242179Y-115944951D01*
X188070213Y-116069890D01*
X187919890Y-116220213D01*
X187794951Y-116392179D01*
X187698444Y-116581585D01*
X187632753Y-116783760D01*
X187606748Y-116947949D01*
X187599500Y-116993713D01*
X165825792Y-116993713D01*
X165810292Y-116978213D01*
X165810288Y-116978210D01*
X165679185Y-116890609D01*
X165679172Y-116890602D01*
X165533501Y-116830264D01*
X165533491Y-116830261D01*
X165374048Y-116798545D01*
X165312137Y-116766160D01*
X165277563Y-116705444D01*
X165276623Y-116701119D01*
X165273218Y-116684003D01*
X165269737Y-116666503D01*
X165251741Y-116623056D01*
X165209397Y-116520827D01*
X165209390Y-116520814D01*
X165121789Y-116389711D01*
X165121786Y-116389707D01*
X165010292Y-116278213D01*
X165010288Y-116278210D01*
X164879185Y-116190609D01*
X164879172Y-116190602D01*
X164733501Y-116130264D01*
X164733489Y-116130261D01*
X164578845Y-116099500D01*
X164578842Y-116099500D01*
X164421158Y-116099500D01*
X164421155Y-116099500D01*
X164266510Y-116130261D01*
X164266498Y-116130264D01*
X164120827Y-116190602D01*
X164120814Y-116190609D01*
X163989711Y-116278210D01*
X163989707Y-116278213D01*
X163878213Y-116389707D01*
X163878210Y-116389711D01*
X163790609Y-116520814D01*
X163790602Y-116520827D01*
X163730264Y-116666498D01*
X163730261Y-116666510D01*
X163699500Y-116821153D01*
X162150500Y-116821153D01*
X162150500Y-116620945D01*
X162150500Y-116620943D01*
X162109577Y-116468216D01*
X162109573Y-116468209D01*
X162030524Y-116331290D01*
X162030521Y-116331286D01*
X162030520Y-116331284D01*
X161918716Y-116219480D01*
X161918715Y-116219479D01*
X161914385Y-116215149D01*
X161914374Y-116215139D01*
X158884574Y-113185339D01*
X158851089Y-113124016D01*
X158850638Y-113121849D01*
X158819738Y-112966510D01*
X158819737Y-112966503D01*
X158819735Y-112966498D01*
X158759397Y-112820827D01*
X158759390Y-112820814D01*
X158671789Y-112689711D01*
X158671786Y-112689707D01*
X158560292Y-112578213D01*
X158560288Y-112578210D01*
X158429185Y-112490609D01*
X158429172Y-112490602D01*
X158283501Y-112430264D01*
X158283489Y-112430261D01*
X158128845Y-112399500D01*
X158128842Y-112399500D01*
X157971158Y-112399500D01*
X157971155Y-112399500D01*
X157816510Y-112430261D01*
X157816498Y-112430264D01*
X157670827Y-112490602D01*
X157670814Y-112490609D01*
X157539711Y-112578210D01*
X157539707Y-112578213D01*
X157428213Y-112689707D01*
X157428210Y-112689711D01*
X157340609Y-112820814D01*
X157340602Y-112820827D01*
X157280264Y-112966498D01*
X157280261Y-112966510D01*
X157249500Y-113121153D01*
X157249500Y-113278846D01*
X157280261Y-113433489D01*
X157280264Y-113433501D01*
X157340602Y-113579172D01*
X157340609Y-113579185D01*
X157428210Y-113710288D01*
X157428213Y-113710292D01*
X157539707Y-113821786D01*
X157539711Y-113821789D01*
X157670814Y-113909390D01*
X157670827Y-113909397D01*
X157816498Y-113969735D01*
X157816503Y-113969737D01*
X157881147Y-113982595D01*
X157971849Y-114000638D01*
X158033760Y-114033023D01*
X158035339Y-114034574D01*
X160855240Y-116854475D01*
X160888725Y-116915798D01*
X160883741Y-116985490D01*
X160855240Y-117029837D01*
X160321899Y-117563181D01*
X160260576Y-117596666D01*
X160234218Y-117599500D01*
X158801459Y-117599500D01*
X158748690Y-117609996D01*
X158679099Y-117603767D01*
X158623922Y-117560904D01*
X158600678Y-117495014D01*
X158600500Y-117488378D01*
X158600500Y-116674419D01*
X158620185Y-116607380D01*
X158636819Y-116586738D01*
X158651171Y-116572385D01*
X158678139Y-116545418D01*
X158787631Y-116381550D01*
X158863051Y-116199472D01*
X158901500Y-116006176D01*
X158901500Y-115809096D01*
X158901500Y-115809093D01*
X158901499Y-115809091D01*
X158892884Y-115765782D01*
X158863051Y-115615801D01*
X158787631Y-115433722D01*
X158787630Y-115433721D01*
X158787627Y-115433715D01*
X158678139Y-115269855D01*
X158678136Y-115269851D01*
X158538784Y-115130499D01*
X158538780Y-115130496D01*
X158374920Y-115021008D01*
X158374911Y-115021003D01*
X158192835Y-114945585D01*
X158192827Y-114945583D01*
X157999543Y-114907136D01*
X157999540Y-114907136D01*
X157802460Y-114907136D01*
X157802457Y-114907136D01*
X157609171Y-114945583D01*
X157609163Y-114945585D01*
X157427084Y-115021005D01*
X157263219Y-115130495D01*
X157263212Y-115130501D01*
X156962220Y-115431495D01*
X156962218Y-115431497D01*
X156892538Y-115501176D01*
X156822859Y-115570855D01*
X156713371Y-115734715D01*
X156713364Y-115734728D01*
X156637950Y-115916796D01*
X156637947Y-115916806D01*
X156599500Y-116110092D01*
X156599500Y-121334218D01*
X156579815Y-121401257D01*
X156563181Y-121421899D01*
X155212181Y-122772899D01*
X155150858Y-122806384D01*
X155081166Y-122801400D01*
X155025233Y-122759528D01*
X155000816Y-122694064D01*
X155000500Y-122685218D01*
X155000500Y-115201456D01*
X154962052Y-115008170D01*
X154962051Y-115008169D01*
X154962051Y-115008165D01*
X154932423Y-114936635D01*
X154886635Y-114826092D01*
X154886628Y-114826079D01*
X154777139Y-114662218D01*
X154777136Y-114662214D01*
X154634686Y-114519764D01*
X154634655Y-114519735D01*
X153531479Y-113416559D01*
X153531459Y-113416537D01*
X153387785Y-113272863D01*
X153387781Y-113272860D01*
X153305609Y-113217954D01*
X153260804Y-113164342D01*
X153250500Y-113114852D01*
X153250500Y-110665787D01*
X153251097Y-110653635D01*
X153251500Y-110649542D01*
X153251500Y-110452457D01*
X153251499Y-110452455D01*
X153213053Y-110259170D01*
X153213051Y-110259166D01*
X153213051Y-110259164D01*
X153137631Y-110077086D01*
X153137629Y-110077083D01*
X153137627Y-110077079D01*
X153028139Y-109913219D01*
X153028136Y-109913215D01*
X152888784Y-109773863D01*
X152888780Y-109773860D01*
X152724920Y-109664372D01*
X152724910Y-109664367D01*
X152542836Y-109588949D01*
X152542828Y-109588947D01*
X152349543Y-109550500D01*
X152349540Y-109550500D01*
X152152460Y-109550500D01*
X152152457Y-109550500D01*
X151959171Y-109588947D01*
X151959163Y-109588949D01*
X151777089Y-109664367D01*
X151777079Y-109664372D01*
X151613221Y-109773859D01*
X151613219Y-109773860D01*
X151612221Y-109774858D01*
X151612218Y-109774861D01*
X151542538Y-109844540D01*
X151472859Y-109914219D01*
X151363371Y-110078079D01*
X151363364Y-110078091D01*
X151324542Y-110171821D01*
X151288365Y-110259163D01*
X151288362Y-110259170D01*
X151287948Y-110260168D01*
X151249500Y-110453456D01*
X151249500Y-110453459D01*
X151249500Y-114148541D01*
X151249500Y-114148543D01*
X151249499Y-114148543D01*
X151287947Y-114341829D01*
X151287950Y-114341839D01*
X151363364Y-114523907D01*
X151363371Y-114523920D01*
X151472860Y-114687781D01*
X151472863Y-114687785D01*
X151612214Y-114827136D01*
X151612218Y-114827139D01*
X151776079Y-114936628D01*
X151776092Y-114936635D01*
X151948771Y-115008160D01*
X151958165Y-115012051D01*
X151958169Y-115012051D01*
X151958170Y-115012052D01*
X152151456Y-115050500D01*
X152151459Y-115050500D01*
X152284218Y-115050500D01*
X152351257Y-115070185D01*
X152371899Y-115086819D01*
X152963181Y-115678101D01*
X152996666Y-115739424D01*
X152999500Y-115765782D01*
X152999500Y-124934217D01*
X152979815Y-125001256D01*
X152963181Y-125021898D01*
X152222863Y-125762215D01*
X152222860Y-125762219D01*
X152113372Y-125926079D01*
X152113367Y-125926089D01*
X152037949Y-126108163D01*
X152037947Y-126108171D01*
X151999500Y-126301455D01*
X151999500Y-126498544D01*
X152037947Y-126691828D01*
X152037949Y-126691836D01*
X152113367Y-126873910D01*
X152113372Y-126873920D01*
X152222860Y-127037780D01*
X152222863Y-127037784D01*
X152362213Y-127177134D01*
X152365276Y-127179648D01*
X152366448Y-127181369D01*
X152366526Y-127181447D01*
X152366511Y-127181461D01*
X152404609Y-127237395D01*
X152406478Y-127307239D01*
X152370290Y-127367007D01*
X152307533Y-127397722D01*
X152286609Y-127399500D01*
X150565782Y-127399500D01*
X150536341Y-127390855D01*
X150506355Y-127384332D01*
X150501339Y-127380577D01*
X150498743Y-127379815D01*
X150478101Y-127363181D01*
X150437781Y-127322861D01*
X149652049Y-126537128D01*
X149652045Y-126537125D01*
X149488185Y-126427637D01*
X149488175Y-126427632D01*
X149306101Y-126352214D01*
X149306093Y-126352212D01*
X149112808Y-126313765D01*
X149112805Y-126313765D01*
X148915725Y-126313765D01*
X148915722Y-126313765D01*
X148722436Y-126352212D01*
X148722428Y-126352214D01*
X148540354Y-126427632D01*
X148540344Y-126427637D01*
X148376484Y-126537125D01*
X148376480Y-126537128D01*
X148237128Y-126676480D01*
X148237125Y-126676484D01*
X148127637Y-126840344D01*
X148127632Y-126840354D01*
X148052214Y-127022428D01*
X148052212Y-127022436D01*
X148013765Y-127215720D01*
X123700500Y-127215720D01*
X123700500Y-102786428D01*
X163917500Y-102786428D01*
X163917500Y-103180000D01*
X164567500Y-103180000D01*
X164567500Y-103680000D01*
X163917500Y-103680000D01*
X163917500Y-104073571D01*
X163954006Y-104257097D01*
X163954008Y-104257105D01*
X164025619Y-104429991D01*
X164025624Y-104430000D01*
X164129586Y-104585589D01*
X164129589Y-104585593D01*
X164261906Y-104717910D01*
X164261910Y-104717913D01*
X164417499Y-104821875D01*
X164417512Y-104821882D01*
X164590389Y-104893489D01*
X164590396Y-104893491D01*
X164617500Y-104898882D01*
X164617500Y-104146988D01*
X164627440Y-104164205D01*
X164683295Y-104220060D01*
X164751704Y-104259556D01*
X164828004Y-104280000D01*
X164906996Y-104280000D01*
X164983296Y-104259556D01*
X165051705Y-104220060D01*
X165107560Y-104164205D01*
X165117500Y-104146988D01*
X165117500Y-104898881D01*
X165144603Y-104893491D01*
X165144610Y-104893489D01*
X165317487Y-104821882D01*
X165317500Y-104821875D01*
X165473089Y-104717913D01*
X165473093Y-104717910D01*
X165605410Y-104585593D01*
X165605413Y-104585589D01*
X165709375Y-104430000D01*
X165709380Y-104429991D01*
X165780991Y-104257105D01*
X165780993Y-104257097D01*
X165817499Y-104073571D01*
X165817500Y-104073569D01*
X165817500Y-103680000D01*
X165167500Y-103680000D01*
X165167500Y-103180000D01*
X165817500Y-103180000D01*
X165817500Y-102786430D01*
X165817499Y-102786428D01*
X172557500Y-102786428D01*
X172557500Y-103180000D01*
X173207500Y-103180000D01*
X173207500Y-103680000D01*
X172557500Y-103680000D01*
X172557500Y-104073571D01*
X172594006Y-104257097D01*
X172594008Y-104257105D01*
X172665619Y-104429991D01*
X172665624Y-104430000D01*
X172769586Y-104585589D01*
X172769589Y-104585593D01*
X172901906Y-104717910D01*
X172901910Y-104717913D01*
X173057499Y-104821875D01*
X173057512Y-104821882D01*
X173230389Y-104893489D01*
X173230396Y-104893491D01*
X173257500Y-104898882D01*
X173257500Y-104146988D01*
X173267440Y-104164205D01*
X173323295Y-104220060D01*
X173391704Y-104259556D01*
X173468004Y-104280000D01*
X173546996Y-104280000D01*
X173623296Y-104259556D01*
X173691705Y-104220060D01*
X173747560Y-104164205D01*
X173757500Y-104146988D01*
X173757500Y-104898881D01*
X173784603Y-104893491D01*
X173784610Y-104893489D01*
X173957487Y-104821882D01*
X173957500Y-104821875D01*
X174113089Y-104717913D01*
X174113093Y-104717910D01*
X174245410Y-104585593D01*
X174245413Y-104585589D01*
X174349375Y-104430000D01*
X174349380Y-104429991D01*
X174420991Y-104257105D01*
X174420993Y-104257097D01*
X174457499Y-104073571D01*
X174457500Y-104073569D01*
X174457500Y-103680000D01*
X173807500Y-103680000D01*
X173807500Y-103180000D01*
X174457500Y-103180000D01*
X174457500Y-102786430D01*
X174457499Y-102786428D01*
X174420993Y-102602902D01*
X174420991Y-102602894D01*
X174349380Y-102430008D01*
X174349375Y-102429999D01*
X174245413Y-102274410D01*
X174245410Y-102274406D01*
X174113093Y-102142089D01*
X174113089Y-102142086D01*
X173957500Y-102038124D01*
X173957491Y-102038119D01*
X173784603Y-101966507D01*
X173784600Y-101966506D01*
X173757500Y-101961115D01*
X173757500Y-102713011D01*
X173747560Y-102695795D01*
X173691705Y-102639940D01*
X173623296Y-102600444D01*
X173546996Y-102580000D01*
X173468004Y-102580000D01*
X173391704Y-102600444D01*
X173323295Y-102639940D01*
X173267440Y-102695795D01*
X173257500Y-102713011D01*
X173257500Y-101961116D01*
X173257499Y-101961115D01*
X173230399Y-101966506D01*
X173230396Y-101966507D01*
X173057508Y-102038119D01*
X173057499Y-102038124D01*
X172901910Y-102142086D01*
X172901906Y-102142089D01*
X172769589Y-102274406D01*
X172769586Y-102274410D01*
X172665624Y-102429999D01*
X172665619Y-102430008D01*
X172594008Y-102602894D01*
X172594006Y-102602902D01*
X172557500Y-102786428D01*
X165817499Y-102786428D01*
X165780993Y-102602902D01*
X165780991Y-102602894D01*
X165709380Y-102430008D01*
X165709375Y-102429999D01*
X165605413Y-102274410D01*
X165605410Y-102274406D01*
X165473093Y-102142089D01*
X165473089Y-102142086D01*
X165317500Y-102038124D01*
X165317491Y-102038119D01*
X165144603Y-101966507D01*
X165144600Y-101966506D01*
X165117500Y-101961115D01*
X165117500Y-102713011D01*
X165107560Y-102695795D01*
X165051705Y-102639940D01*
X164983296Y-102600444D01*
X164906996Y-102580000D01*
X164828004Y-102580000D01*
X164751704Y-102600444D01*
X164683295Y-102639940D01*
X164627440Y-102695795D01*
X164617500Y-102713011D01*
X164617500Y-101961116D01*
X164617499Y-101961115D01*
X164590399Y-101966506D01*
X164590396Y-101966507D01*
X164417508Y-102038119D01*
X164417499Y-102038124D01*
X164261910Y-102142086D01*
X164261906Y-102142089D01*
X164129589Y-102274406D01*
X164129586Y-102274410D01*
X164025624Y-102429999D01*
X164025619Y-102430008D01*
X163954008Y-102602894D01*
X163954006Y-102602902D01*
X163917500Y-102786428D01*
X123700500Y-102786428D01*
X123700500Y-98766428D01*
X163917500Y-98766428D01*
X163917500Y-99010000D01*
X164567500Y-99010000D01*
X164567500Y-99510000D01*
X163917500Y-99510000D01*
X163917500Y-99753571D01*
X163954006Y-99937097D01*
X163954008Y-99937105D01*
X164025619Y-100109991D01*
X164025624Y-100110000D01*
X164129586Y-100265589D01*
X164129589Y-100265593D01*
X164261906Y-100397910D01*
X164261910Y-100397913D01*
X164417499Y-100501875D01*
X164417512Y-100501882D01*
X164590389Y-100573489D01*
X164590396Y-100573491D01*
X164617500Y-100578882D01*
X164617500Y-99826988D01*
X164627440Y-99844205D01*
X164683295Y-99900060D01*
X164751704Y-99939556D01*
X164828004Y-99960000D01*
X164906996Y-99960000D01*
X164983296Y-99939556D01*
X165051705Y-99900060D01*
X165107560Y-99844205D01*
X165117500Y-99826988D01*
X165117500Y-100578881D01*
X165144603Y-100573491D01*
X165144610Y-100573489D01*
X165317487Y-100501882D01*
X165317500Y-100501875D01*
X165473089Y-100397913D01*
X165473093Y-100397910D01*
X165605410Y-100265593D01*
X165605413Y-100265589D01*
X165709375Y-100110000D01*
X165709380Y-100109991D01*
X165780991Y-99937105D01*
X165780993Y-99937097D01*
X165817499Y-99753571D01*
X165817500Y-99753569D01*
X165817500Y-99510000D01*
X165167500Y-99510000D01*
X165167500Y-99010000D01*
X165817500Y-99010000D01*
X165817500Y-98766430D01*
X165817499Y-98766428D01*
X172557500Y-98766428D01*
X172557500Y-99010000D01*
X173207500Y-99010000D01*
X173207500Y-99510000D01*
X172557500Y-99510000D01*
X172557500Y-99753571D01*
X172594006Y-99937097D01*
X172594008Y-99937105D01*
X172665619Y-100109991D01*
X172665624Y-100110000D01*
X172769586Y-100265589D01*
X172769589Y-100265593D01*
X172901906Y-100397910D01*
X172901910Y-100397913D01*
X173057499Y-100501875D01*
X173057512Y-100501882D01*
X173230389Y-100573489D01*
X173230396Y-100573491D01*
X173257500Y-100578882D01*
X173257500Y-99826988D01*
X173267440Y-99844205D01*
X173323295Y-99900060D01*
X173391704Y-99939556D01*
X173468004Y-99960000D01*
X173546996Y-99960000D01*
X173623296Y-99939556D01*
X173691705Y-99900060D01*
X173747560Y-99844205D01*
X173757500Y-99826988D01*
X173757500Y-100578881D01*
X173784603Y-100573491D01*
X173784610Y-100573489D01*
X173957487Y-100501882D01*
X173957500Y-100501875D01*
X174113089Y-100397913D01*
X174113093Y-100397910D01*
X174245410Y-100265593D01*
X174245413Y-100265589D01*
X174349375Y-100110000D01*
X174349380Y-100109991D01*
X174420991Y-99937105D01*
X174420993Y-99937097D01*
X174457499Y-99753571D01*
X174457500Y-99753569D01*
X174457500Y-99510000D01*
X173807500Y-99510000D01*
X173807500Y-99010000D01*
X174457500Y-99010000D01*
X174457500Y-98766430D01*
X174457499Y-98766428D01*
X174420993Y-98582902D01*
X174420991Y-98582894D01*
X174349380Y-98410008D01*
X174349375Y-98409999D01*
X174245413Y-98254410D01*
X174245410Y-98254406D01*
X174113093Y-98122089D01*
X174113089Y-98122086D01*
X173957500Y-98018124D01*
X173957491Y-98018119D01*
X173784603Y-97946507D01*
X173784600Y-97946506D01*
X173757500Y-97941115D01*
X173757500Y-98693011D01*
X173747560Y-98675795D01*
X173691705Y-98619940D01*
X173623296Y-98580444D01*
X173546996Y-98560000D01*
X173468004Y-98560000D01*
X173391704Y-98580444D01*
X173323295Y-98619940D01*
X173267440Y-98675795D01*
X173257500Y-98693011D01*
X173257500Y-97941116D01*
X173257499Y-97941115D01*
X173230399Y-97946506D01*
X173230396Y-97946507D01*
X173057508Y-98018119D01*
X173057499Y-98018124D01*
X172901910Y-98122086D01*
X172901906Y-98122089D01*
X172769589Y-98254406D01*
X172769586Y-98254410D01*
X172665624Y-98409999D01*
X172665619Y-98410008D01*
X172594008Y-98582894D01*
X172594006Y-98582902D01*
X172557500Y-98766428D01*
X165817499Y-98766428D01*
X165780993Y-98582902D01*
X165780991Y-98582894D01*
X165709380Y-98410008D01*
X165709375Y-98409999D01*
X165605413Y-98254410D01*
X165605410Y-98254406D01*
X165473093Y-98122089D01*
X165473089Y-98122086D01*
X165317500Y-98018124D01*
X165317491Y-98018119D01*
X165144603Y-97946507D01*
X165144600Y-97946506D01*
X165117500Y-97941115D01*
X165117500Y-98693011D01*
X165107560Y-98675795D01*
X165051705Y-98619940D01*
X164983296Y-98580444D01*
X164906996Y-98560000D01*
X164828004Y-98560000D01*
X164751704Y-98580444D01*
X164683295Y-98619940D01*
X164627440Y-98675795D01*
X164617500Y-98693011D01*
X164617500Y-97941116D01*
X164617499Y-97941115D01*
X164590399Y-97946506D01*
X164590396Y-97946507D01*
X164417508Y-98018119D01*
X164417499Y-98018124D01*
X164261910Y-98122086D01*
X164261906Y-98122089D01*
X164129589Y-98254406D01*
X164129586Y-98254410D01*
X164025624Y-98409999D01*
X164025619Y-98410008D01*
X163954008Y-98582894D01*
X163954006Y-98582902D01*
X163917500Y-98766428D01*
X123700500Y-98766428D01*
X123700500Y-97754500D01*
X123720185Y-97687461D01*
X123772989Y-97641706D01*
X123824500Y-97630500D01*
X197575500Y-97630500D01*
X197642539Y-97650185D01*
G37*
%TD.AperFunction*%
%TD*%
M02*
