%TF.GenerationSoftware,KiCad,Pcbnew,9.0.2*%
%TF.CreationDate,2025-06-25T14:41:33+05:30*%
%TF.ProjectId,DevBoard_F1C100s,44657642-6f61-4726-945f-463143313030,rev?*%
%TF.SameCoordinates,Original*%
%TF.FileFunction,Legend,Top*%
%TF.FilePolarity,Positive*%
%FSLAX46Y46*%
G04 Gerber Fmt 4.6, Leading zero omitted, Abs format (unit mm)*
G04 Created by KiCad (PCBNEW 9.0.2) date 2025-06-25 14:41:33*
%MOMM*%
%LPD*%
G01*
G04 APERTURE LIST*
%ADD10C,0.150000*%
%ADD11C,0.100000*%
%ADD12C,0.120000*%
%ADD13C,0.200000*%
G04 APERTURE END LIST*
D10*
X147585004Y-107020002D02*
G75*
G02*
X147435004Y-107020002I-75000J0D01*
G01*
X147435004Y-107020002D02*
G75*
G02*
X147585004Y-107020002I75000J0D01*
G01*
X149075000Y-117000000D02*
G75*
G02*
X148925000Y-117000000I-75000J0D01*
G01*
X148925000Y-117000000D02*
G75*
G02*
X149075000Y-117000000I75000J0D01*
G01*
X167901785Y-105534819D02*
X167901785Y-106249104D01*
X167901785Y-106249104D02*
X167854166Y-106391961D01*
X167854166Y-106391961D02*
X167758928Y-106487200D01*
X167758928Y-106487200D02*
X167616071Y-106534819D01*
X167616071Y-106534819D02*
X167520833Y-106534819D01*
X168901785Y-106534819D02*
X168330357Y-106534819D01*
X168616071Y-106534819D02*
X168616071Y-105534819D01*
X168616071Y-105534819D02*
X168520833Y-105677676D01*
X168520833Y-105677676D02*
X168425595Y-105772914D01*
X168425595Y-105772914D02*
X168330357Y-105820533D01*
X169520833Y-105534819D02*
X169616071Y-105534819D01*
X169616071Y-105534819D02*
X169711309Y-105582438D01*
X169711309Y-105582438D02*
X169758928Y-105630057D01*
X169758928Y-105630057D02*
X169806547Y-105725295D01*
X169806547Y-105725295D02*
X169854166Y-105915771D01*
X169854166Y-105915771D02*
X169854166Y-106153866D01*
X169854166Y-106153866D02*
X169806547Y-106344342D01*
X169806547Y-106344342D02*
X169758928Y-106439580D01*
X169758928Y-106439580D02*
X169711309Y-106487200D01*
X169711309Y-106487200D02*
X169616071Y-106534819D01*
X169616071Y-106534819D02*
X169520833Y-106534819D01*
X169520833Y-106534819D02*
X169425595Y-106487200D01*
X169425595Y-106487200D02*
X169377976Y-106439580D01*
X169377976Y-106439580D02*
X169330357Y-106344342D01*
X169330357Y-106344342D02*
X169282738Y-106153866D01*
X169282738Y-106153866D02*
X169282738Y-105915771D01*
X169282738Y-105915771D02*
X169330357Y-105725295D01*
X169330357Y-105725295D02*
X169377976Y-105630057D01*
X169377976Y-105630057D02*
X169425595Y-105582438D01*
X169425595Y-105582438D02*
X169520833Y-105534819D01*
X170806547Y-106534819D02*
X170235119Y-106534819D01*
X170520833Y-106534819D02*
X170520833Y-105534819D01*
X170520833Y-105534819D02*
X170425595Y-105677676D01*
X170425595Y-105677676D02*
X170330357Y-105772914D01*
X170330357Y-105772914D02*
X170235119Y-105820533D01*
D11*
X186749285Y-113457419D02*
X186749285Y-114171704D01*
X186749285Y-114171704D02*
X186701666Y-114314561D01*
X186701666Y-114314561D02*
X186606428Y-114409800D01*
X186606428Y-114409800D02*
X186463571Y-114457419D01*
X186463571Y-114457419D02*
X186368333Y-114457419D01*
X187749285Y-114457419D02*
X187177857Y-114457419D01*
X187463571Y-114457419D02*
X187463571Y-113457419D01*
X187463571Y-113457419D02*
X187368333Y-113600276D01*
X187368333Y-113600276D02*
X187273095Y-113695514D01*
X187273095Y-113695514D02*
X187177857Y-113743133D01*
X188368333Y-113457419D02*
X188463571Y-113457419D01*
X188463571Y-113457419D02*
X188558809Y-113505038D01*
X188558809Y-113505038D02*
X188606428Y-113552657D01*
X188606428Y-113552657D02*
X188654047Y-113647895D01*
X188654047Y-113647895D02*
X188701666Y-113838371D01*
X188701666Y-113838371D02*
X188701666Y-114076466D01*
X188701666Y-114076466D02*
X188654047Y-114266942D01*
X188654047Y-114266942D02*
X188606428Y-114362180D01*
X188606428Y-114362180D02*
X188558809Y-114409800D01*
X188558809Y-114409800D02*
X188463571Y-114457419D01*
X188463571Y-114457419D02*
X188368333Y-114457419D01*
X188368333Y-114457419D02*
X188273095Y-114409800D01*
X188273095Y-114409800D02*
X188225476Y-114362180D01*
X188225476Y-114362180D02*
X188177857Y-114266942D01*
X188177857Y-114266942D02*
X188130238Y-114076466D01*
X188130238Y-114076466D02*
X188130238Y-113838371D01*
X188130238Y-113838371D02*
X188177857Y-113647895D01*
X188177857Y-113647895D02*
X188225476Y-113552657D01*
X188225476Y-113552657D02*
X188273095Y-113505038D01*
X188273095Y-113505038D02*
X188368333Y-113457419D01*
X189558809Y-113790752D02*
X189558809Y-114457419D01*
X189320714Y-113409800D02*
X189082619Y-114124085D01*
X189082619Y-114124085D02*
X189701666Y-114124085D01*
D10*
X180938095Y-116154819D02*
X181509523Y-116154819D01*
X181223809Y-117154819D02*
X181223809Y-116154819D01*
X181842857Y-117154819D02*
X181842857Y-116154819D01*
X181842857Y-116154819D02*
X182223809Y-116154819D01*
X182223809Y-116154819D02*
X182319047Y-116202438D01*
X182319047Y-116202438D02*
X182366666Y-116250057D01*
X182366666Y-116250057D02*
X182414285Y-116345295D01*
X182414285Y-116345295D02*
X182414285Y-116488152D01*
X182414285Y-116488152D02*
X182366666Y-116583390D01*
X182366666Y-116583390D02*
X182319047Y-116631009D01*
X182319047Y-116631009D02*
X182223809Y-116678628D01*
X182223809Y-116678628D02*
X181842857Y-116678628D01*
X182747619Y-116154819D02*
X183366666Y-116154819D01*
X183366666Y-116154819D02*
X183033333Y-116535771D01*
X183033333Y-116535771D02*
X183176190Y-116535771D01*
X183176190Y-116535771D02*
X183271428Y-116583390D01*
X183271428Y-116583390D02*
X183319047Y-116631009D01*
X183319047Y-116631009D02*
X183366666Y-116726247D01*
X183366666Y-116726247D02*
X183366666Y-116964342D01*
X183366666Y-116964342D02*
X183319047Y-117059580D01*
X183319047Y-117059580D02*
X183271428Y-117107200D01*
X183271428Y-117107200D02*
X183176190Y-117154819D01*
X183176190Y-117154819D02*
X182890476Y-117154819D01*
X182890476Y-117154819D02*
X182795238Y-117107200D01*
X182795238Y-117107200D02*
X182747619Y-117059580D01*
X182654819Y-126406547D02*
X182178628Y-126739880D01*
X182654819Y-126977975D02*
X181654819Y-126977975D01*
X181654819Y-126977975D02*
X181654819Y-126597023D01*
X181654819Y-126597023D02*
X181702438Y-126501785D01*
X181702438Y-126501785D02*
X181750057Y-126454166D01*
X181750057Y-126454166D02*
X181845295Y-126406547D01*
X181845295Y-126406547D02*
X181988152Y-126406547D01*
X181988152Y-126406547D02*
X182083390Y-126454166D01*
X182083390Y-126454166D02*
X182131009Y-126501785D01*
X182131009Y-126501785D02*
X182178628Y-126597023D01*
X182178628Y-126597023D02*
X182178628Y-126977975D01*
X182654819Y-125454166D02*
X182654819Y-126025594D01*
X182654819Y-125739880D02*
X181654819Y-125739880D01*
X181654819Y-125739880D02*
X181797676Y-125835118D01*
X181797676Y-125835118D02*
X181892914Y-125930356D01*
X181892914Y-125930356D02*
X181940533Y-126025594D01*
X182654819Y-124501785D02*
X182654819Y-125073213D01*
X182654819Y-124787499D02*
X181654819Y-124787499D01*
X181654819Y-124787499D02*
X181797676Y-124882737D01*
X181797676Y-124882737D02*
X181892914Y-124977975D01*
X181892914Y-124977975D02*
X181940533Y-125073213D01*
X182654819Y-124025594D02*
X182654819Y-123835118D01*
X182654819Y-123835118D02*
X182607200Y-123739880D01*
X182607200Y-123739880D02*
X182559580Y-123692261D01*
X182559580Y-123692261D02*
X182416723Y-123597023D01*
X182416723Y-123597023D02*
X182226247Y-123549404D01*
X182226247Y-123549404D02*
X181845295Y-123549404D01*
X181845295Y-123549404D02*
X181750057Y-123597023D01*
X181750057Y-123597023D02*
X181702438Y-123644642D01*
X181702438Y-123644642D02*
X181654819Y-123739880D01*
X181654819Y-123739880D02*
X181654819Y-123930356D01*
X181654819Y-123930356D02*
X181702438Y-124025594D01*
X181702438Y-124025594D02*
X181750057Y-124073213D01*
X181750057Y-124073213D02*
X181845295Y-124120832D01*
X181845295Y-124120832D02*
X182083390Y-124120832D01*
X182083390Y-124120832D02*
X182178628Y-124073213D01*
X182178628Y-124073213D02*
X182226247Y-124025594D01*
X182226247Y-124025594D02*
X182273866Y-123930356D01*
X182273866Y-123930356D02*
X182273866Y-123739880D01*
X182273866Y-123739880D02*
X182226247Y-123644642D01*
X182226247Y-123644642D02*
X182178628Y-123597023D01*
X182178628Y-123597023D02*
X182083390Y-123549404D01*
X182654819Y-126406547D02*
X182178628Y-126739880D01*
X182654819Y-126977975D02*
X181654819Y-126977975D01*
X181654819Y-126977975D02*
X181654819Y-126597023D01*
X181654819Y-126597023D02*
X181702438Y-126501785D01*
X181702438Y-126501785D02*
X181750057Y-126454166D01*
X181750057Y-126454166D02*
X181845295Y-126406547D01*
X181845295Y-126406547D02*
X181988152Y-126406547D01*
X181988152Y-126406547D02*
X182083390Y-126454166D01*
X182083390Y-126454166D02*
X182131009Y-126501785D01*
X182131009Y-126501785D02*
X182178628Y-126597023D01*
X182178628Y-126597023D02*
X182178628Y-126977975D01*
X182654819Y-125454166D02*
X182654819Y-126025594D01*
X182654819Y-125739880D02*
X181654819Y-125739880D01*
X181654819Y-125739880D02*
X181797676Y-125835118D01*
X181797676Y-125835118D02*
X181892914Y-125930356D01*
X181892914Y-125930356D02*
X181940533Y-126025594D01*
X182654819Y-124501785D02*
X182654819Y-125073213D01*
X182654819Y-124787499D02*
X181654819Y-124787499D01*
X181654819Y-124787499D02*
X181797676Y-124882737D01*
X181797676Y-124882737D02*
X181892914Y-124977975D01*
X181892914Y-124977975D02*
X181940533Y-125073213D01*
X182083390Y-123930356D02*
X182035771Y-124025594D01*
X182035771Y-124025594D02*
X181988152Y-124073213D01*
X181988152Y-124073213D02*
X181892914Y-124120832D01*
X181892914Y-124120832D02*
X181845295Y-124120832D01*
X181845295Y-124120832D02*
X181750057Y-124073213D01*
X181750057Y-124073213D02*
X181702438Y-124025594D01*
X181702438Y-124025594D02*
X181654819Y-123930356D01*
X181654819Y-123930356D02*
X181654819Y-123739880D01*
X181654819Y-123739880D02*
X181702438Y-123644642D01*
X181702438Y-123644642D02*
X181750057Y-123597023D01*
X181750057Y-123597023D02*
X181845295Y-123549404D01*
X181845295Y-123549404D02*
X181892914Y-123549404D01*
X181892914Y-123549404D02*
X181988152Y-123597023D01*
X181988152Y-123597023D02*
X182035771Y-123644642D01*
X182035771Y-123644642D02*
X182083390Y-123739880D01*
X182083390Y-123739880D02*
X182083390Y-123930356D01*
X182083390Y-123930356D02*
X182131009Y-124025594D01*
X182131009Y-124025594D02*
X182178628Y-124073213D01*
X182178628Y-124073213D02*
X182273866Y-124120832D01*
X182273866Y-124120832D02*
X182464342Y-124120832D01*
X182464342Y-124120832D02*
X182559580Y-124073213D01*
X182559580Y-124073213D02*
X182607200Y-124025594D01*
X182607200Y-124025594D02*
X182654819Y-123930356D01*
X182654819Y-123930356D02*
X182654819Y-123739880D01*
X182654819Y-123739880D02*
X182607200Y-123644642D01*
X182607200Y-123644642D02*
X182559580Y-123597023D01*
X182559580Y-123597023D02*
X182464342Y-123549404D01*
X182464342Y-123549404D02*
X182273866Y-123549404D01*
X182273866Y-123549404D02*
X182178628Y-123597023D01*
X182178628Y-123597023D02*
X182131009Y-123644642D01*
X182131009Y-123644642D02*
X182083390Y-123739880D01*
X177550595Y-124148926D02*
X177217262Y-123672735D01*
X176979167Y-124148926D02*
X176979167Y-123148926D01*
X176979167Y-123148926D02*
X177360119Y-123148926D01*
X177360119Y-123148926D02*
X177455357Y-123196545D01*
X177455357Y-123196545D02*
X177502976Y-123244164D01*
X177502976Y-123244164D02*
X177550595Y-123339402D01*
X177550595Y-123339402D02*
X177550595Y-123482259D01*
X177550595Y-123482259D02*
X177502976Y-123577497D01*
X177502976Y-123577497D02*
X177455357Y-123625116D01*
X177455357Y-123625116D02*
X177360119Y-123672735D01*
X177360119Y-123672735D02*
X176979167Y-123672735D01*
X178502976Y-124148926D02*
X177931548Y-124148926D01*
X178217262Y-124148926D02*
X178217262Y-123148926D01*
X178217262Y-123148926D02*
X178122024Y-123291783D01*
X178122024Y-123291783D02*
X178026786Y-123387021D01*
X178026786Y-123387021D02*
X177931548Y-123434640D01*
X179455357Y-124148926D02*
X178883929Y-124148926D01*
X179169643Y-124148926D02*
X179169643Y-123148926D01*
X179169643Y-123148926D02*
X179074405Y-123291783D01*
X179074405Y-123291783D02*
X178979167Y-123387021D01*
X178979167Y-123387021D02*
X178883929Y-123434640D01*
X179788691Y-123148926D02*
X180455357Y-123148926D01*
X180455357Y-123148926D02*
X180026786Y-124148926D01*
X177550595Y-121948926D02*
X177217262Y-121472735D01*
X176979167Y-121948926D02*
X176979167Y-120948926D01*
X176979167Y-120948926D02*
X177360119Y-120948926D01*
X177360119Y-120948926D02*
X177455357Y-120996545D01*
X177455357Y-120996545D02*
X177502976Y-121044164D01*
X177502976Y-121044164D02*
X177550595Y-121139402D01*
X177550595Y-121139402D02*
X177550595Y-121282259D01*
X177550595Y-121282259D02*
X177502976Y-121377497D01*
X177502976Y-121377497D02*
X177455357Y-121425116D01*
X177455357Y-121425116D02*
X177360119Y-121472735D01*
X177360119Y-121472735D02*
X176979167Y-121472735D01*
X178502976Y-121948926D02*
X177931548Y-121948926D01*
X178217262Y-121948926D02*
X178217262Y-120948926D01*
X178217262Y-120948926D02*
X178122024Y-121091783D01*
X178122024Y-121091783D02*
X178026786Y-121187021D01*
X178026786Y-121187021D02*
X177931548Y-121234640D01*
X179455357Y-121948926D02*
X178883929Y-121948926D01*
X179169643Y-121948926D02*
X179169643Y-120948926D01*
X179169643Y-120948926D02*
X179074405Y-121091783D01*
X179074405Y-121091783D02*
X178979167Y-121187021D01*
X178979167Y-121187021D02*
X178883929Y-121234640D01*
X180312500Y-120948926D02*
X180122024Y-120948926D01*
X180122024Y-120948926D02*
X180026786Y-120996545D01*
X180026786Y-120996545D02*
X179979167Y-121044164D01*
X179979167Y-121044164D02*
X179883929Y-121187021D01*
X179883929Y-121187021D02*
X179836310Y-121377497D01*
X179836310Y-121377497D02*
X179836310Y-121758449D01*
X179836310Y-121758449D02*
X179883929Y-121853687D01*
X179883929Y-121853687D02*
X179931548Y-121901307D01*
X179931548Y-121901307D02*
X180026786Y-121948926D01*
X180026786Y-121948926D02*
X180217262Y-121948926D01*
X180217262Y-121948926D02*
X180312500Y-121901307D01*
X180312500Y-121901307D02*
X180360119Y-121853687D01*
X180360119Y-121853687D02*
X180407738Y-121758449D01*
X180407738Y-121758449D02*
X180407738Y-121520354D01*
X180407738Y-121520354D02*
X180360119Y-121425116D01*
X180360119Y-121425116D02*
X180312500Y-121377497D01*
X180312500Y-121377497D02*
X180217262Y-121329878D01*
X180217262Y-121329878D02*
X180026786Y-121329878D01*
X180026786Y-121329878D02*
X179931548Y-121377497D01*
X179931548Y-121377497D02*
X179883929Y-121425116D01*
X179883929Y-121425116D02*
X179836310Y-121520354D01*
X177550595Y-120423926D02*
X177217262Y-119947735D01*
X176979167Y-120423926D02*
X176979167Y-119423926D01*
X176979167Y-119423926D02*
X177360119Y-119423926D01*
X177360119Y-119423926D02*
X177455357Y-119471545D01*
X177455357Y-119471545D02*
X177502976Y-119519164D01*
X177502976Y-119519164D02*
X177550595Y-119614402D01*
X177550595Y-119614402D02*
X177550595Y-119757259D01*
X177550595Y-119757259D02*
X177502976Y-119852497D01*
X177502976Y-119852497D02*
X177455357Y-119900116D01*
X177455357Y-119900116D02*
X177360119Y-119947735D01*
X177360119Y-119947735D02*
X176979167Y-119947735D01*
X178502976Y-120423926D02*
X177931548Y-120423926D01*
X178217262Y-120423926D02*
X178217262Y-119423926D01*
X178217262Y-119423926D02*
X178122024Y-119566783D01*
X178122024Y-119566783D02*
X178026786Y-119662021D01*
X178026786Y-119662021D02*
X177931548Y-119709640D01*
X179455357Y-120423926D02*
X178883929Y-120423926D01*
X179169643Y-120423926D02*
X179169643Y-119423926D01*
X179169643Y-119423926D02*
X179074405Y-119566783D01*
X179074405Y-119566783D02*
X178979167Y-119662021D01*
X178979167Y-119662021D02*
X178883929Y-119709640D01*
X180360119Y-119423926D02*
X179883929Y-119423926D01*
X179883929Y-119423926D02*
X179836310Y-119900116D01*
X179836310Y-119900116D02*
X179883929Y-119852497D01*
X179883929Y-119852497D02*
X179979167Y-119804878D01*
X179979167Y-119804878D02*
X180217262Y-119804878D01*
X180217262Y-119804878D02*
X180312500Y-119852497D01*
X180312500Y-119852497D02*
X180360119Y-119900116D01*
X180360119Y-119900116D02*
X180407738Y-119995354D01*
X180407738Y-119995354D02*
X180407738Y-120233449D01*
X180407738Y-120233449D02*
X180360119Y-120328687D01*
X180360119Y-120328687D02*
X180312500Y-120376307D01*
X180312500Y-120376307D02*
X180217262Y-120423926D01*
X180217262Y-120423926D02*
X179979167Y-120423926D01*
X179979167Y-120423926D02*
X179883929Y-120376307D01*
X179883929Y-120376307D02*
X179836310Y-120328687D01*
X177443452Y-118904819D02*
X177110119Y-118428628D01*
X176872024Y-118904819D02*
X176872024Y-117904819D01*
X176872024Y-117904819D02*
X177252976Y-117904819D01*
X177252976Y-117904819D02*
X177348214Y-117952438D01*
X177348214Y-117952438D02*
X177395833Y-118000057D01*
X177395833Y-118000057D02*
X177443452Y-118095295D01*
X177443452Y-118095295D02*
X177443452Y-118238152D01*
X177443452Y-118238152D02*
X177395833Y-118333390D01*
X177395833Y-118333390D02*
X177348214Y-118381009D01*
X177348214Y-118381009D02*
X177252976Y-118428628D01*
X177252976Y-118428628D02*
X176872024Y-118428628D01*
X178395833Y-118904819D02*
X177824405Y-118904819D01*
X178110119Y-118904819D02*
X178110119Y-117904819D01*
X178110119Y-117904819D02*
X178014881Y-118047676D01*
X178014881Y-118047676D02*
X177919643Y-118142914D01*
X177919643Y-118142914D02*
X177824405Y-118190533D01*
X179348214Y-118904819D02*
X178776786Y-118904819D01*
X179062500Y-118904819D02*
X179062500Y-117904819D01*
X179062500Y-117904819D02*
X178967262Y-118047676D01*
X178967262Y-118047676D02*
X178872024Y-118142914D01*
X178872024Y-118142914D02*
X178776786Y-118190533D01*
X180205357Y-118238152D02*
X180205357Y-118904819D01*
X179967262Y-117857200D02*
X179729167Y-118571485D01*
X179729167Y-118571485D02*
X180348214Y-118571485D01*
X188709580Y-107581547D02*
X188757200Y-107629166D01*
X188757200Y-107629166D02*
X188804819Y-107772023D01*
X188804819Y-107772023D02*
X188804819Y-107867261D01*
X188804819Y-107867261D02*
X188757200Y-108010118D01*
X188757200Y-108010118D02*
X188661961Y-108105356D01*
X188661961Y-108105356D02*
X188566723Y-108152975D01*
X188566723Y-108152975D02*
X188376247Y-108200594D01*
X188376247Y-108200594D02*
X188233390Y-108200594D01*
X188233390Y-108200594D02*
X188042914Y-108152975D01*
X188042914Y-108152975D02*
X187947676Y-108105356D01*
X187947676Y-108105356D02*
X187852438Y-108010118D01*
X187852438Y-108010118D02*
X187804819Y-107867261D01*
X187804819Y-107867261D02*
X187804819Y-107772023D01*
X187804819Y-107772023D02*
X187852438Y-107629166D01*
X187852438Y-107629166D02*
X187900057Y-107581547D01*
X188804819Y-106629166D02*
X188804819Y-107200594D01*
X188804819Y-106914880D02*
X187804819Y-106914880D01*
X187804819Y-106914880D02*
X187947676Y-107010118D01*
X187947676Y-107010118D02*
X188042914Y-107105356D01*
X188042914Y-107105356D02*
X188090533Y-107200594D01*
X187804819Y-106010118D02*
X187804819Y-105914880D01*
X187804819Y-105914880D02*
X187852438Y-105819642D01*
X187852438Y-105819642D02*
X187900057Y-105772023D01*
X187900057Y-105772023D02*
X187995295Y-105724404D01*
X187995295Y-105724404D02*
X188185771Y-105676785D01*
X188185771Y-105676785D02*
X188423866Y-105676785D01*
X188423866Y-105676785D02*
X188614342Y-105724404D01*
X188614342Y-105724404D02*
X188709580Y-105772023D01*
X188709580Y-105772023D02*
X188757200Y-105819642D01*
X188757200Y-105819642D02*
X188804819Y-105914880D01*
X188804819Y-105914880D02*
X188804819Y-106010118D01*
X188804819Y-106010118D02*
X188757200Y-106105356D01*
X188757200Y-106105356D02*
X188709580Y-106152975D01*
X188709580Y-106152975D02*
X188614342Y-106200594D01*
X188614342Y-106200594D02*
X188423866Y-106248213D01*
X188423866Y-106248213D02*
X188185771Y-106248213D01*
X188185771Y-106248213D02*
X187995295Y-106200594D01*
X187995295Y-106200594D02*
X187900057Y-106152975D01*
X187900057Y-106152975D02*
X187852438Y-106105356D01*
X187852438Y-106105356D02*
X187804819Y-106010118D01*
X188138152Y-104819642D02*
X188804819Y-104819642D01*
X187757200Y-105057737D02*
X188471485Y-105295832D01*
X188471485Y-105295832D02*
X188471485Y-104676785D01*
X194444580Y-107581547D02*
X194492200Y-107629166D01*
X194492200Y-107629166D02*
X194539819Y-107772023D01*
X194539819Y-107772023D02*
X194539819Y-107867261D01*
X194539819Y-107867261D02*
X194492200Y-108010118D01*
X194492200Y-108010118D02*
X194396961Y-108105356D01*
X194396961Y-108105356D02*
X194301723Y-108152975D01*
X194301723Y-108152975D02*
X194111247Y-108200594D01*
X194111247Y-108200594D02*
X193968390Y-108200594D01*
X193968390Y-108200594D02*
X193777914Y-108152975D01*
X193777914Y-108152975D02*
X193682676Y-108105356D01*
X193682676Y-108105356D02*
X193587438Y-108010118D01*
X193587438Y-108010118D02*
X193539819Y-107867261D01*
X193539819Y-107867261D02*
X193539819Y-107772023D01*
X193539819Y-107772023D02*
X193587438Y-107629166D01*
X193587438Y-107629166D02*
X193635057Y-107581547D01*
X194539819Y-106629166D02*
X194539819Y-107200594D01*
X194539819Y-106914880D02*
X193539819Y-106914880D01*
X193539819Y-106914880D02*
X193682676Y-107010118D01*
X193682676Y-107010118D02*
X193777914Y-107105356D01*
X193777914Y-107105356D02*
X193825533Y-107200594D01*
X193539819Y-106010118D02*
X193539819Y-105914880D01*
X193539819Y-105914880D02*
X193587438Y-105819642D01*
X193587438Y-105819642D02*
X193635057Y-105772023D01*
X193635057Y-105772023D02*
X193730295Y-105724404D01*
X193730295Y-105724404D02*
X193920771Y-105676785D01*
X193920771Y-105676785D02*
X194158866Y-105676785D01*
X194158866Y-105676785D02*
X194349342Y-105724404D01*
X194349342Y-105724404D02*
X194444580Y-105772023D01*
X194444580Y-105772023D02*
X194492200Y-105819642D01*
X194492200Y-105819642D02*
X194539819Y-105914880D01*
X194539819Y-105914880D02*
X194539819Y-106010118D01*
X194539819Y-106010118D02*
X194492200Y-106105356D01*
X194492200Y-106105356D02*
X194444580Y-106152975D01*
X194444580Y-106152975D02*
X194349342Y-106200594D01*
X194349342Y-106200594D02*
X194158866Y-106248213D01*
X194158866Y-106248213D02*
X193920771Y-106248213D01*
X193920771Y-106248213D02*
X193730295Y-106200594D01*
X193730295Y-106200594D02*
X193635057Y-106152975D01*
X193635057Y-106152975D02*
X193587438Y-106105356D01*
X193587438Y-106105356D02*
X193539819Y-106010118D01*
X194539819Y-105200594D02*
X194539819Y-105010118D01*
X194539819Y-105010118D02*
X194492200Y-104914880D01*
X194492200Y-104914880D02*
X194444580Y-104867261D01*
X194444580Y-104867261D02*
X194301723Y-104772023D01*
X194301723Y-104772023D02*
X194111247Y-104724404D01*
X194111247Y-104724404D02*
X193730295Y-104724404D01*
X193730295Y-104724404D02*
X193635057Y-104772023D01*
X193635057Y-104772023D02*
X193587438Y-104819642D01*
X193587438Y-104819642D02*
X193539819Y-104914880D01*
X193539819Y-104914880D02*
X193539819Y-105105356D01*
X193539819Y-105105356D02*
X193587438Y-105200594D01*
X193587438Y-105200594D02*
X193635057Y-105248213D01*
X193635057Y-105248213D02*
X193730295Y-105295832D01*
X193730295Y-105295832D02*
X193968390Y-105295832D01*
X193968390Y-105295832D02*
X194063628Y-105248213D01*
X194063628Y-105248213D02*
X194111247Y-105200594D01*
X194111247Y-105200594D02*
X194158866Y-105105356D01*
X194158866Y-105105356D02*
X194158866Y-104914880D01*
X194158866Y-104914880D02*
X194111247Y-104819642D01*
X194111247Y-104819642D02*
X194063628Y-104772023D01*
X194063628Y-104772023D02*
X193968390Y-104724404D01*
X125030952Y-99209580D02*
X124983333Y-99257200D01*
X124983333Y-99257200D02*
X124840476Y-99304819D01*
X124840476Y-99304819D02*
X124745238Y-99304819D01*
X124745238Y-99304819D02*
X124602381Y-99257200D01*
X124602381Y-99257200D02*
X124507143Y-99161961D01*
X124507143Y-99161961D02*
X124459524Y-99066723D01*
X124459524Y-99066723D02*
X124411905Y-98876247D01*
X124411905Y-98876247D02*
X124411905Y-98733390D01*
X124411905Y-98733390D02*
X124459524Y-98542914D01*
X124459524Y-98542914D02*
X124507143Y-98447676D01*
X124507143Y-98447676D02*
X124602381Y-98352438D01*
X124602381Y-98352438D02*
X124745238Y-98304819D01*
X124745238Y-98304819D02*
X124840476Y-98304819D01*
X124840476Y-98304819D02*
X124983333Y-98352438D01*
X124983333Y-98352438D02*
X125030952Y-98400057D01*
X125983333Y-99304819D02*
X125411905Y-99304819D01*
X125697619Y-99304819D02*
X125697619Y-98304819D01*
X125697619Y-98304819D02*
X125602381Y-98447676D01*
X125602381Y-98447676D02*
X125507143Y-98542914D01*
X125507143Y-98542914D02*
X125411905Y-98590533D01*
X126935714Y-99304819D02*
X126364286Y-99304819D01*
X126650000Y-99304819D02*
X126650000Y-98304819D01*
X126650000Y-98304819D02*
X126554762Y-98447676D01*
X126554762Y-98447676D02*
X126459524Y-98542914D01*
X126459524Y-98542914D02*
X126364286Y-98590533D01*
X127316667Y-98400057D02*
X127364286Y-98352438D01*
X127364286Y-98352438D02*
X127459524Y-98304819D01*
X127459524Y-98304819D02*
X127697619Y-98304819D01*
X127697619Y-98304819D02*
X127792857Y-98352438D01*
X127792857Y-98352438D02*
X127840476Y-98400057D01*
X127840476Y-98400057D02*
X127888095Y-98495295D01*
X127888095Y-98495295D02*
X127888095Y-98590533D01*
X127888095Y-98590533D02*
X127840476Y-98733390D01*
X127840476Y-98733390D02*
X127269048Y-99304819D01*
X127269048Y-99304819D02*
X127888095Y-99304819D01*
X131747319Y-105244285D02*
X132556842Y-105244285D01*
X132556842Y-105244285D02*
X132652080Y-105196666D01*
X132652080Y-105196666D02*
X132699700Y-105149047D01*
X132699700Y-105149047D02*
X132747319Y-105053809D01*
X132747319Y-105053809D02*
X132747319Y-104863333D01*
X132747319Y-104863333D02*
X132699700Y-104768095D01*
X132699700Y-104768095D02*
X132652080Y-104720476D01*
X132652080Y-104720476D02*
X132556842Y-104672857D01*
X132556842Y-104672857D02*
X131747319Y-104672857D01*
X132747319Y-103672857D02*
X132747319Y-104244285D01*
X132747319Y-103958571D02*
X131747319Y-103958571D01*
X131747319Y-103958571D02*
X131890176Y-104053809D01*
X131890176Y-104053809D02*
X131985414Y-104149047D01*
X131985414Y-104149047D02*
X132033033Y-104244285D01*
X131747319Y-103053809D02*
X131747319Y-102958571D01*
X131747319Y-102958571D02*
X131794938Y-102863333D01*
X131794938Y-102863333D02*
X131842557Y-102815714D01*
X131842557Y-102815714D02*
X131937795Y-102768095D01*
X131937795Y-102768095D02*
X132128271Y-102720476D01*
X132128271Y-102720476D02*
X132366366Y-102720476D01*
X132366366Y-102720476D02*
X132556842Y-102768095D01*
X132556842Y-102768095D02*
X132652080Y-102815714D01*
X132652080Y-102815714D02*
X132699700Y-102863333D01*
X132699700Y-102863333D02*
X132747319Y-102958571D01*
X132747319Y-102958571D02*
X132747319Y-103053809D01*
X132747319Y-103053809D02*
X132699700Y-103149047D01*
X132699700Y-103149047D02*
X132652080Y-103196666D01*
X132652080Y-103196666D02*
X132556842Y-103244285D01*
X132556842Y-103244285D02*
X132366366Y-103291904D01*
X132366366Y-103291904D02*
X132128271Y-103291904D01*
X132128271Y-103291904D02*
X131937795Y-103244285D01*
X131937795Y-103244285D02*
X131842557Y-103196666D01*
X131842557Y-103196666D02*
X131794938Y-103149047D01*
X131794938Y-103149047D02*
X131747319Y-103053809D01*
X132747319Y-101768095D02*
X132747319Y-102339523D01*
X132747319Y-102053809D02*
X131747319Y-102053809D01*
X131747319Y-102053809D02*
X131890176Y-102149047D01*
X131890176Y-102149047D02*
X131985414Y-102244285D01*
X131985414Y-102244285D02*
X132033033Y-102339523D01*
X157257200Y-109535713D02*
X157304819Y-109392856D01*
X157304819Y-109392856D02*
X157304819Y-109154761D01*
X157304819Y-109154761D02*
X157257200Y-109059523D01*
X157257200Y-109059523D02*
X157209580Y-109011904D01*
X157209580Y-109011904D02*
X157114342Y-108964285D01*
X157114342Y-108964285D02*
X157019104Y-108964285D01*
X157019104Y-108964285D02*
X156923866Y-109011904D01*
X156923866Y-109011904D02*
X156876247Y-109059523D01*
X156876247Y-109059523D02*
X156828628Y-109154761D01*
X156828628Y-109154761D02*
X156781009Y-109345237D01*
X156781009Y-109345237D02*
X156733390Y-109440475D01*
X156733390Y-109440475D02*
X156685771Y-109488094D01*
X156685771Y-109488094D02*
X156590533Y-109535713D01*
X156590533Y-109535713D02*
X156495295Y-109535713D01*
X156495295Y-109535713D02*
X156400057Y-109488094D01*
X156400057Y-109488094D02*
X156352438Y-109440475D01*
X156352438Y-109440475D02*
X156304819Y-109345237D01*
X156304819Y-109345237D02*
X156304819Y-109107142D01*
X156304819Y-109107142D02*
X156352438Y-108964285D01*
X156304819Y-108630951D02*
X157304819Y-108392856D01*
X157304819Y-108392856D02*
X156590533Y-108202380D01*
X156590533Y-108202380D02*
X157304819Y-108011904D01*
X157304819Y-108011904D02*
X156304819Y-107773809D01*
X157304819Y-106869047D02*
X157304819Y-107440475D01*
X157304819Y-107154761D02*
X156304819Y-107154761D01*
X156304819Y-107154761D02*
X156447676Y-107249999D01*
X156447676Y-107249999D02*
X156542914Y-107345237D01*
X156542914Y-107345237D02*
X156590533Y-107440475D01*
X156304819Y-106249999D02*
X156304819Y-106154761D01*
X156304819Y-106154761D02*
X156352438Y-106059523D01*
X156352438Y-106059523D02*
X156400057Y-106011904D01*
X156400057Y-106011904D02*
X156495295Y-105964285D01*
X156495295Y-105964285D02*
X156685771Y-105916666D01*
X156685771Y-105916666D02*
X156923866Y-105916666D01*
X156923866Y-105916666D02*
X157114342Y-105964285D01*
X157114342Y-105964285D02*
X157209580Y-106011904D01*
X157209580Y-106011904D02*
X157257200Y-106059523D01*
X157257200Y-106059523D02*
X157304819Y-106154761D01*
X157304819Y-106154761D02*
X157304819Y-106249999D01*
X157304819Y-106249999D02*
X157257200Y-106345237D01*
X157257200Y-106345237D02*
X157209580Y-106392856D01*
X157209580Y-106392856D02*
X157114342Y-106440475D01*
X157114342Y-106440475D02*
X156923866Y-106488094D01*
X156923866Y-106488094D02*
X156685771Y-106488094D01*
X156685771Y-106488094D02*
X156495295Y-106440475D01*
X156495295Y-106440475D02*
X156400057Y-106392856D01*
X156400057Y-106392856D02*
X156352438Y-106345237D01*
X156352438Y-106345237D02*
X156304819Y-106249999D01*
X156304819Y-105011904D02*
X156304819Y-105488094D01*
X156304819Y-105488094D02*
X156781009Y-105535713D01*
X156781009Y-105535713D02*
X156733390Y-105488094D01*
X156733390Y-105488094D02*
X156685771Y-105392856D01*
X156685771Y-105392856D02*
X156685771Y-105154761D01*
X156685771Y-105154761D02*
X156733390Y-105059523D01*
X156733390Y-105059523D02*
X156781009Y-105011904D01*
X156781009Y-105011904D02*
X156876247Y-104964285D01*
X156876247Y-104964285D02*
X157114342Y-104964285D01*
X157114342Y-104964285D02*
X157209580Y-105011904D01*
X157209580Y-105011904D02*
X157257200Y-105059523D01*
X157257200Y-105059523D02*
X157304819Y-105154761D01*
X157304819Y-105154761D02*
X157304819Y-105392856D01*
X157304819Y-105392856D02*
X157257200Y-105488094D01*
X157257200Y-105488094D02*
X157209580Y-105535713D01*
X169064819Y-145165714D02*
X169779104Y-145165714D01*
X169779104Y-145165714D02*
X169921961Y-145213333D01*
X169921961Y-145213333D02*
X170017200Y-145308571D01*
X170017200Y-145308571D02*
X170064819Y-145451428D01*
X170064819Y-145451428D02*
X170064819Y-145546666D01*
X170064819Y-144165714D02*
X170064819Y-144737142D01*
X170064819Y-144451428D02*
X169064819Y-144451428D01*
X169064819Y-144451428D02*
X169207676Y-144546666D01*
X169207676Y-144546666D02*
X169302914Y-144641904D01*
X169302914Y-144641904D02*
X169350533Y-144737142D01*
X169064819Y-143546666D02*
X169064819Y-143451428D01*
X169064819Y-143451428D02*
X169112438Y-143356190D01*
X169112438Y-143356190D02*
X169160057Y-143308571D01*
X169160057Y-143308571D02*
X169255295Y-143260952D01*
X169255295Y-143260952D02*
X169445771Y-143213333D01*
X169445771Y-143213333D02*
X169683866Y-143213333D01*
X169683866Y-143213333D02*
X169874342Y-143260952D01*
X169874342Y-143260952D02*
X169969580Y-143308571D01*
X169969580Y-143308571D02*
X170017200Y-143356190D01*
X170017200Y-143356190D02*
X170064819Y-143451428D01*
X170064819Y-143451428D02*
X170064819Y-143546666D01*
X170064819Y-143546666D02*
X170017200Y-143641904D01*
X170017200Y-143641904D02*
X169969580Y-143689523D01*
X169969580Y-143689523D02*
X169874342Y-143737142D01*
X169874342Y-143737142D02*
X169683866Y-143784761D01*
X169683866Y-143784761D02*
X169445771Y-143784761D01*
X169445771Y-143784761D02*
X169255295Y-143737142D01*
X169255295Y-143737142D02*
X169160057Y-143689523D01*
X169160057Y-143689523D02*
X169112438Y-143641904D01*
X169112438Y-143641904D02*
X169064819Y-143546666D01*
X169064819Y-142308571D02*
X169064819Y-142784761D01*
X169064819Y-142784761D02*
X169541009Y-142832380D01*
X169541009Y-142832380D02*
X169493390Y-142784761D01*
X169493390Y-142784761D02*
X169445771Y-142689523D01*
X169445771Y-142689523D02*
X169445771Y-142451428D01*
X169445771Y-142451428D02*
X169493390Y-142356190D01*
X169493390Y-142356190D02*
X169541009Y-142308571D01*
X169541009Y-142308571D02*
X169636247Y-142260952D01*
X169636247Y-142260952D02*
X169874342Y-142260952D01*
X169874342Y-142260952D02*
X169969580Y-142308571D01*
X169969580Y-142308571D02*
X170017200Y-142356190D01*
X170017200Y-142356190D02*
X170064819Y-142451428D01*
X170064819Y-142451428D02*
X170064819Y-142689523D01*
X170064819Y-142689523D02*
X170017200Y-142784761D01*
X170017200Y-142784761D02*
X169969580Y-142832380D01*
X182593452Y-131624819D02*
X182260119Y-131148628D01*
X182022024Y-131624819D02*
X182022024Y-130624819D01*
X182022024Y-130624819D02*
X182402976Y-130624819D01*
X182402976Y-130624819D02*
X182498214Y-130672438D01*
X182498214Y-130672438D02*
X182545833Y-130720057D01*
X182545833Y-130720057D02*
X182593452Y-130815295D01*
X182593452Y-130815295D02*
X182593452Y-130958152D01*
X182593452Y-130958152D02*
X182545833Y-131053390D01*
X182545833Y-131053390D02*
X182498214Y-131101009D01*
X182498214Y-131101009D02*
X182402976Y-131148628D01*
X182402976Y-131148628D02*
X182022024Y-131148628D01*
X183545833Y-131624819D02*
X182974405Y-131624819D01*
X183260119Y-131624819D02*
X183260119Y-130624819D01*
X183260119Y-130624819D02*
X183164881Y-130767676D01*
X183164881Y-130767676D02*
X183069643Y-130862914D01*
X183069643Y-130862914D02*
X182974405Y-130910533D01*
X184164881Y-130624819D02*
X184260119Y-130624819D01*
X184260119Y-130624819D02*
X184355357Y-130672438D01*
X184355357Y-130672438D02*
X184402976Y-130720057D01*
X184402976Y-130720057D02*
X184450595Y-130815295D01*
X184450595Y-130815295D02*
X184498214Y-131005771D01*
X184498214Y-131005771D02*
X184498214Y-131243866D01*
X184498214Y-131243866D02*
X184450595Y-131434342D01*
X184450595Y-131434342D02*
X184402976Y-131529580D01*
X184402976Y-131529580D02*
X184355357Y-131577200D01*
X184355357Y-131577200D02*
X184260119Y-131624819D01*
X184260119Y-131624819D02*
X184164881Y-131624819D01*
X184164881Y-131624819D02*
X184069643Y-131577200D01*
X184069643Y-131577200D02*
X184022024Y-131529580D01*
X184022024Y-131529580D02*
X183974405Y-131434342D01*
X183974405Y-131434342D02*
X183926786Y-131243866D01*
X183926786Y-131243866D02*
X183926786Y-131005771D01*
X183926786Y-131005771D02*
X183974405Y-130815295D01*
X183974405Y-130815295D02*
X184022024Y-130720057D01*
X184022024Y-130720057D02*
X184069643Y-130672438D01*
X184069643Y-130672438D02*
X184164881Y-130624819D01*
X185069643Y-131053390D02*
X184974405Y-131005771D01*
X184974405Y-131005771D02*
X184926786Y-130958152D01*
X184926786Y-130958152D02*
X184879167Y-130862914D01*
X184879167Y-130862914D02*
X184879167Y-130815295D01*
X184879167Y-130815295D02*
X184926786Y-130720057D01*
X184926786Y-130720057D02*
X184974405Y-130672438D01*
X184974405Y-130672438D02*
X185069643Y-130624819D01*
X185069643Y-130624819D02*
X185260119Y-130624819D01*
X185260119Y-130624819D02*
X185355357Y-130672438D01*
X185355357Y-130672438D02*
X185402976Y-130720057D01*
X185402976Y-130720057D02*
X185450595Y-130815295D01*
X185450595Y-130815295D02*
X185450595Y-130862914D01*
X185450595Y-130862914D02*
X185402976Y-130958152D01*
X185402976Y-130958152D02*
X185355357Y-131005771D01*
X185355357Y-131005771D02*
X185260119Y-131053390D01*
X185260119Y-131053390D02*
X185069643Y-131053390D01*
X185069643Y-131053390D02*
X184974405Y-131101009D01*
X184974405Y-131101009D02*
X184926786Y-131148628D01*
X184926786Y-131148628D02*
X184879167Y-131243866D01*
X184879167Y-131243866D02*
X184879167Y-131434342D01*
X184879167Y-131434342D02*
X184926786Y-131529580D01*
X184926786Y-131529580D02*
X184974405Y-131577200D01*
X184974405Y-131577200D02*
X185069643Y-131624819D01*
X185069643Y-131624819D02*
X185260119Y-131624819D01*
X185260119Y-131624819D02*
X185355357Y-131577200D01*
X185355357Y-131577200D02*
X185402976Y-131529580D01*
X185402976Y-131529580D02*
X185450595Y-131434342D01*
X185450595Y-131434342D02*
X185450595Y-131243866D01*
X185450595Y-131243866D02*
X185402976Y-131148628D01*
X185402976Y-131148628D02*
X185355357Y-131101009D01*
X185355357Y-131101009D02*
X185260119Y-131053390D01*
X150643452Y-110939580D02*
X150595833Y-110987200D01*
X150595833Y-110987200D02*
X150452976Y-111034819D01*
X150452976Y-111034819D02*
X150357738Y-111034819D01*
X150357738Y-111034819D02*
X150214881Y-110987200D01*
X150214881Y-110987200D02*
X150119643Y-110891961D01*
X150119643Y-110891961D02*
X150072024Y-110796723D01*
X150072024Y-110796723D02*
X150024405Y-110606247D01*
X150024405Y-110606247D02*
X150024405Y-110463390D01*
X150024405Y-110463390D02*
X150072024Y-110272914D01*
X150072024Y-110272914D02*
X150119643Y-110177676D01*
X150119643Y-110177676D02*
X150214881Y-110082438D01*
X150214881Y-110082438D02*
X150357738Y-110034819D01*
X150357738Y-110034819D02*
X150452976Y-110034819D01*
X150452976Y-110034819D02*
X150595833Y-110082438D01*
X150595833Y-110082438D02*
X150643452Y-110130057D01*
X151595833Y-111034819D02*
X151024405Y-111034819D01*
X151310119Y-111034819D02*
X151310119Y-110034819D01*
X151310119Y-110034819D02*
X151214881Y-110177676D01*
X151214881Y-110177676D02*
X151119643Y-110272914D01*
X151119643Y-110272914D02*
X151024405Y-110320533D01*
X152548214Y-111034819D02*
X151976786Y-111034819D01*
X152262500Y-111034819D02*
X152262500Y-110034819D01*
X152262500Y-110034819D02*
X152167262Y-110177676D01*
X152167262Y-110177676D02*
X152072024Y-110272914D01*
X152072024Y-110272914D02*
X151976786Y-110320533D01*
X153452976Y-110034819D02*
X152976786Y-110034819D01*
X152976786Y-110034819D02*
X152929167Y-110511009D01*
X152929167Y-110511009D02*
X152976786Y-110463390D01*
X152976786Y-110463390D02*
X153072024Y-110415771D01*
X153072024Y-110415771D02*
X153310119Y-110415771D01*
X153310119Y-110415771D02*
X153405357Y-110463390D01*
X153405357Y-110463390D02*
X153452976Y-110511009D01*
X153452976Y-110511009D02*
X153500595Y-110606247D01*
X153500595Y-110606247D02*
X153500595Y-110844342D01*
X153500595Y-110844342D02*
X153452976Y-110939580D01*
X153452976Y-110939580D02*
X153405357Y-110987200D01*
X153405357Y-110987200D02*
X153310119Y-111034819D01*
X153310119Y-111034819D02*
X153072024Y-111034819D01*
X153072024Y-111034819D02*
X152976786Y-110987200D01*
X152976786Y-110987200D02*
X152929167Y-110939580D01*
X153754819Y-135619047D02*
X153278628Y-135952380D01*
X153754819Y-136190475D02*
X152754819Y-136190475D01*
X152754819Y-136190475D02*
X152754819Y-135809523D01*
X152754819Y-135809523D02*
X152802438Y-135714285D01*
X152802438Y-135714285D02*
X152850057Y-135666666D01*
X152850057Y-135666666D02*
X152945295Y-135619047D01*
X152945295Y-135619047D02*
X153088152Y-135619047D01*
X153088152Y-135619047D02*
X153183390Y-135666666D01*
X153183390Y-135666666D02*
X153231009Y-135714285D01*
X153231009Y-135714285D02*
X153278628Y-135809523D01*
X153278628Y-135809523D02*
X153278628Y-136190475D01*
X153754819Y-134666666D02*
X153754819Y-135238094D01*
X153754819Y-134952380D02*
X152754819Y-134952380D01*
X152754819Y-134952380D02*
X152897676Y-135047618D01*
X152897676Y-135047618D02*
X152992914Y-135142856D01*
X152992914Y-135142856D02*
X153040533Y-135238094D01*
X153754819Y-133714285D02*
X153754819Y-134285713D01*
X153754819Y-133999999D02*
X152754819Y-133999999D01*
X152754819Y-133999999D02*
X152897676Y-134095237D01*
X152897676Y-134095237D02*
X152992914Y-134190475D01*
X152992914Y-134190475D02*
X153040533Y-134285713D01*
X152754819Y-133380951D02*
X152754819Y-132761904D01*
X152754819Y-132761904D02*
X153135771Y-133095237D01*
X153135771Y-133095237D02*
X153135771Y-132952380D01*
X153135771Y-132952380D02*
X153183390Y-132857142D01*
X153183390Y-132857142D02*
X153231009Y-132809523D01*
X153231009Y-132809523D02*
X153326247Y-132761904D01*
X153326247Y-132761904D02*
X153564342Y-132761904D01*
X153564342Y-132761904D02*
X153659580Y-132809523D01*
X153659580Y-132809523D02*
X153707200Y-132857142D01*
X153707200Y-132857142D02*
X153754819Y-132952380D01*
X153754819Y-132952380D02*
X153754819Y-133238094D01*
X153754819Y-133238094D02*
X153707200Y-133333332D01*
X153707200Y-133333332D02*
X153659580Y-133380951D01*
X139038095Y-114906819D02*
X139609523Y-114906819D01*
X139323809Y-115906819D02*
X139323809Y-114906819D01*
X139942857Y-115906819D02*
X139942857Y-114906819D01*
X139942857Y-114906819D02*
X140323809Y-114906819D01*
X140323809Y-114906819D02*
X140419047Y-114954438D01*
X140419047Y-114954438D02*
X140466666Y-115002057D01*
X140466666Y-115002057D02*
X140514285Y-115097295D01*
X140514285Y-115097295D02*
X140514285Y-115240152D01*
X140514285Y-115240152D02*
X140466666Y-115335390D01*
X140466666Y-115335390D02*
X140419047Y-115383009D01*
X140419047Y-115383009D02*
X140323809Y-115430628D01*
X140323809Y-115430628D02*
X139942857Y-115430628D01*
X141466666Y-115906819D02*
X140895238Y-115906819D01*
X141180952Y-115906819D02*
X141180952Y-114906819D01*
X141180952Y-114906819D02*
X141085714Y-115049676D01*
X141085714Y-115049676D02*
X140990476Y-115144914D01*
X140990476Y-115144914D02*
X140895238Y-115192533D01*
X155714285Y-140454819D02*
X155714285Y-141169104D01*
X155714285Y-141169104D02*
X155666666Y-141311961D01*
X155666666Y-141311961D02*
X155571428Y-141407200D01*
X155571428Y-141407200D02*
X155428571Y-141454819D01*
X155428571Y-141454819D02*
X155333333Y-141454819D01*
X156714285Y-141454819D02*
X156142857Y-141454819D01*
X156428571Y-141454819D02*
X156428571Y-140454819D01*
X156428571Y-140454819D02*
X156333333Y-140597676D01*
X156333333Y-140597676D02*
X156238095Y-140692914D01*
X156238095Y-140692914D02*
X156142857Y-140740533D01*
X157333333Y-140454819D02*
X157428571Y-140454819D01*
X157428571Y-140454819D02*
X157523809Y-140502438D01*
X157523809Y-140502438D02*
X157571428Y-140550057D01*
X157571428Y-140550057D02*
X157619047Y-140645295D01*
X157619047Y-140645295D02*
X157666666Y-140835771D01*
X157666666Y-140835771D02*
X157666666Y-141073866D01*
X157666666Y-141073866D02*
X157619047Y-141264342D01*
X157619047Y-141264342D02*
X157571428Y-141359580D01*
X157571428Y-141359580D02*
X157523809Y-141407200D01*
X157523809Y-141407200D02*
X157428571Y-141454819D01*
X157428571Y-141454819D02*
X157333333Y-141454819D01*
X157333333Y-141454819D02*
X157238095Y-141407200D01*
X157238095Y-141407200D02*
X157190476Y-141359580D01*
X157190476Y-141359580D02*
X157142857Y-141264342D01*
X157142857Y-141264342D02*
X157095238Y-141073866D01*
X157095238Y-141073866D02*
X157095238Y-140835771D01*
X157095238Y-140835771D02*
X157142857Y-140645295D01*
X157142857Y-140645295D02*
X157190476Y-140550057D01*
X157190476Y-140550057D02*
X157238095Y-140502438D01*
X157238095Y-140502438D02*
X157333333Y-140454819D01*
X158000000Y-140454819D02*
X158619047Y-140454819D01*
X158619047Y-140454819D02*
X158285714Y-140835771D01*
X158285714Y-140835771D02*
X158428571Y-140835771D01*
X158428571Y-140835771D02*
X158523809Y-140883390D01*
X158523809Y-140883390D02*
X158571428Y-140931009D01*
X158571428Y-140931009D02*
X158619047Y-141026247D01*
X158619047Y-141026247D02*
X158619047Y-141264342D01*
X158619047Y-141264342D02*
X158571428Y-141359580D01*
X158571428Y-141359580D02*
X158523809Y-141407200D01*
X158523809Y-141407200D02*
X158428571Y-141454819D01*
X158428571Y-141454819D02*
X158142857Y-141454819D01*
X158142857Y-141454819D02*
X158047619Y-141407200D01*
X158047619Y-141407200D02*
X158000000Y-141359580D01*
X176569580Y-128861547D02*
X176617200Y-128909166D01*
X176617200Y-128909166D02*
X176664819Y-129052023D01*
X176664819Y-129052023D02*
X176664819Y-129147261D01*
X176664819Y-129147261D02*
X176617200Y-129290118D01*
X176617200Y-129290118D02*
X176521961Y-129385356D01*
X176521961Y-129385356D02*
X176426723Y-129432975D01*
X176426723Y-129432975D02*
X176236247Y-129480594D01*
X176236247Y-129480594D02*
X176093390Y-129480594D01*
X176093390Y-129480594D02*
X175902914Y-129432975D01*
X175902914Y-129432975D02*
X175807676Y-129385356D01*
X175807676Y-129385356D02*
X175712438Y-129290118D01*
X175712438Y-129290118D02*
X175664819Y-129147261D01*
X175664819Y-129147261D02*
X175664819Y-129052023D01*
X175664819Y-129052023D02*
X175712438Y-128909166D01*
X175712438Y-128909166D02*
X175760057Y-128861547D01*
X176664819Y-127909166D02*
X176664819Y-128480594D01*
X176664819Y-128194880D02*
X175664819Y-128194880D01*
X175664819Y-128194880D02*
X175807676Y-128290118D01*
X175807676Y-128290118D02*
X175902914Y-128385356D01*
X175902914Y-128385356D02*
X175950533Y-128480594D01*
X176664819Y-126956785D02*
X176664819Y-127528213D01*
X176664819Y-127242499D02*
X175664819Y-127242499D01*
X175664819Y-127242499D02*
X175807676Y-127337737D01*
X175807676Y-127337737D02*
X175902914Y-127432975D01*
X175902914Y-127432975D02*
X175950533Y-127528213D01*
X175998152Y-126099642D02*
X176664819Y-126099642D01*
X175617200Y-126337737D02*
X176331485Y-126575832D01*
X176331485Y-126575832D02*
X176331485Y-125956785D01*
X141754819Y-107214285D02*
X142564342Y-107214285D01*
X142564342Y-107214285D02*
X142659580Y-107166666D01*
X142659580Y-107166666D02*
X142707200Y-107119047D01*
X142707200Y-107119047D02*
X142754819Y-107023809D01*
X142754819Y-107023809D02*
X142754819Y-106833333D01*
X142754819Y-106833333D02*
X142707200Y-106738095D01*
X142707200Y-106738095D02*
X142659580Y-106690476D01*
X142659580Y-106690476D02*
X142564342Y-106642857D01*
X142564342Y-106642857D02*
X141754819Y-106642857D01*
X142754819Y-105642857D02*
X142754819Y-106214285D01*
X142754819Y-105928571D02*
X141754819Y-105928571D01*
X141754819Y-105928571D02*
X141897676Y-106023809D01*
X141897676Y-106023809D02*
X141992914Y-106119047D01*
X141992914Y-106119047D02*
X142040533Y-106214285D01*
X141754819Y-105023809D02*
X141754819Y-104928571D01*
X141754819Y-104928571D02*
X141802438Y-104833333D01*
X141802438Y-104833333D02*
X141850057Y-104785714D01*
X141850057Y-104785714D02*
X141945295Y-104738095D01*
X141945295Y-104738095D02*
X142135771Y-104690476D01*
X142135771Y-104690476D02*
X142373866Y-104690476D01*
X142373866Y-104690476D02*
X142564342Y-104738095D01*
X142564342Y-104738095D02*
X142659580Y-104785714D01*
X142659580Y-104785714D02*
X142707200Y-104833333D01*
X142707200Y-104833333D02*
X142754819Y-104928571D01*
X142754819Y-104928571D02*
X142754819Y-105023809D01*
X142754819Y-105023809D02*
X142707200Y-105119047D01*
X142707200Y-105119047D02*
X142659580Y-105166666D01*
X142659580Y-105166666D02*
X142564342Y-105214285D01*
X142564342Y-105214285D02*
X142373866Y-105261904D01*
X142373866Y-105261904D02*
X142135771Y-105261904D01*
X142135771Y-105261904D02*
X141945295Y-105214285D01*
X141945295Y-105214285D02*
X141850057Y-105166666D01*
X141850057Y-105166666D02*
X141802438Y-105119047D01*
X141802438Y-105119047D02*
X141754819Y-105023809D01*
X141754819Y-104357142D02*
X141754819Y-103738095D01*
X141754819Y-103738095D02*
X142135771Y-104071428D01*
X142135771Y-104071428D02*
X142135771Y-103928571D01*
X142135771Y-103928571D02*
X142183390Y-103833333D01*
X142183390Y-103833333D02*
X142231009Y-103785714D01*
X142231009Y-103785714D02*
X142326247Y-103738095D01*
X142326247Y-103738095D02*
X142564342Y-103738095D01*
X142564342Y-103738095D02*
X142659580Y-103785714D01*
X142659580Y-103785714D02*
X142707200Y-103833333D01*
X142707200Y-103833333D02*
X142754819Y-103928571D01*
X142754819Y-103928571D02*
X142754819Y-104214285D01*
X142754819Y-104214285D02*
X142707200Y-104309523D01*
X142707200Y-104309523D02*
X142659580Y-104357142D01*
X188393452Y-131624819D02*
X188060119Y-131148628D01*
X187822024Y-131624819D02*
X187822024Y-130624819D01*
X187822024Y-130624819D02*
X188202976Y-130624819D01*
X188202976Y-130624819D02*
X188298214Y-130672438D01*
X188298214Y-130672438D02*
X188345833Y-130720057D01*
X188345833Y-130720057D02*
X188393452Y-130815295D01*
X188393452Y-130815295D02*
X188393452Y-130958152D01*
X188393452Y-130958152D02*
X188345833Y-131053390D01*
X188345833Y-131053390D02*
X188298214Y-131101009D01*
X188298214Y-131101009D02*
X188202976Y-131148628D01*
X188202976Y-131148628D02*
X187822024Y-131148628D01*
X189345833Y-131624819D02*
X188774405Y-131624819D01*
X189060119Y-131624819D02*
X189060119Y-130624819D01*
X189060119Y-130624819D02*
X188964881Y-130767676D01*
X188964881Y-130767676D02*
X188869643Y-130862914D01*
X188869643Y-130862914D02*
X188774405Y-130910533D01*
X190298214Y-131624819D02*
X189726786Y-131624819D01*
X190012500Y-131624819D02*
X190012500Y-130624819D01*
X190012500Y-130624819D02*
X189917262Y-130767676D01*
X189917262Y-130767676D02*
X189822024Y-130862914D01*
X189822024Y-130862914D02*
X189726786Y-130910533D01*
X190917262Y-130624819D02*
X191012500Y-130624819D01*
X191012500Y-130624819D02*
X191107738Y-130672438D01*
X191107738Y-130672438D02*
X191155357Y-130720057D01*
X191155357Y-130720057D02*
X191202976Y-130815295D01*
X191202976Y-130815295D02*
X191250595Y-131005771D01*
X191250595Y-131005771D02*
X191250595Y-131243866D01*
X191250595Y-131243866D02*
X191202976Y-131434342D01*
X191202976Y-131434342D02*
X191155357Y-131529580D01*
X191155357Y-131529580D02*
X191107738Y-131577200D01*
X191107738Y-131577200D02*
X191012500Y-131624819D01*
X191012500Y-131624819D02*
X190917262Y-131624819D01*
X190917262Y-131624819D02*
X190822024Y-131577200D01*
X190822024Y-131577200D02*
X190774405Y-131529580D01*
X190774405Y-131529580D02*
X190726786Y-131434342D01*
X190726786Y-131434342D02*
X190679167Y-131243866D01*
X190679167Y-131243866D02*
X190679167Y-131005771D01*
X190679167Y-131005771D02*
X190726786Y-130815295D01*
X190726786Y-130815295D02*
X190774405Y-130720057D01*
X190774405Y-130720057D02*
X190822024Y-130672438D01*
X190822024Y-130672438D02*
X190917262Y-130624819D01*
X180007200Y-142485713D02*
X180054819Y-142342856D01*
X180054819Y-142342856D02*
X180054819Y-142104761D01*
X180054819Y-142104761D02*
X180007200Y-142009523D01*
X180007200Y-142009523D02*
X179959580Y-141961904D01*
X179959580Y-141961904D02*
X179864342Y-141914285D01*
X179864342Y-141914285D02*
X179769104Y-141914285D01*
X179769104Y-141914285D02*
X179673866Y-141961904D01*
X179673866Y-141961904D02*
X179626247Y-142009523D01*
X179626247Y-142009523D02*
X179578628Y-142104761D01*
X179578628Y-142104761D02*
X179531009Y-142295237D01*
X179531009Y-142295237D02*
X179483390Y-142390475D01*
X179483390Y-142390475D02*
X179435771Y-142438094D01*
X179435771Y-142438094D02*
X179340533Y-142485713D01*
X179340533Y-142485713D02*
X179245295Y-142485713D01*
X179245295Y-142485713D02*
X179150057Y-142438094D01*
X179150057Y-142438094D02*
X179102438Y-142390475D01*
X179102438Y-142390475D02*
X179054819Y-142295237D01*
X179054819Y-142295237D02*
X179054819Y-142057142D01*
X179054819Y-142057142D02*
X179102438Y-141914285D01*
X179054819Y-141580951D02*
X180054819Y-141342856D01*
X180054819Y-141342856D02*
X179340533Y-141152380D01*
X179340533Y-141152380D02*
X180054819Y-140961904D01*
X180054819Y-140961904D02*
X179054819Y-140723809D01*
X180054819Y-139819047D02*
X180054819Y-140390475D01*
X180054819Y-140104761D02*
X179054819Y-140104761D01*
X179054819Y-140104761D02*
X179197676Y-140199999D01*
X179197676Y-140199999D02*
X179292914Y-140295237D01*
X179292914Y-140295237D02*
X179340533Y-140390475D01*
X179054819Y-139199999D02*
X179054819Y-139104761D01*
X179054819Y-139104761D02*
X179102438Y-139009523D01*
X179102438Y-139009523D02*
X179150057Y-138961904D01*
X179150057Y-138961904D02*
X179245295Y-138914285D01*
X179245295Y-138914285D02*
X179435771Y-138866666D01*
X179435771Y-138866666D02*
X179673866Y-138866666D01*
X179673866Y-138866666D02*
X179864342Y-138914285D01*
X179864342Y-138914285D02*
X179959580Y-138961904D01*
X179959580Y-138961904D02*
X180007200Y-139009523D01*
X180007200Y-139009523D02*
X180054819Y-139104761D01*
X180054819Y-139104761D02*
X180054819Y-139199999D01*
X180054819Y-139199999D02*
X180007200Y-139295237D01*
X180007200Y-139295237D02*
X179959580Y-139342856D01*
X179959580Y-139342856D02*
X179864342Y-139390475D01*
X179864342Y-139390475D02*
X179673866Y-139438094D01*
X179673866Y-139438094D02*
X179435771Y-139438094D01*
X179435771Y-139438094D02*
X179245295Y-139390475D01*
X179245295Y-139390475D02*
X179150057Y-139342856D01*
X179150057Y-139342856D02*
X179102438Y-139295237D01*
X179102438Y-139295237D02*
X179054819Y-139199999D01*
X179150057Y-138485713D02*
X179102438Y-138438094D01*
X179102438Y-138438094D02*
X179054819Y-138342856D01*
X179054819Y-138342856D02*
X179054819Y-138104761D01*
X179054819Y-138104761D02*
X179102438Y-138009523D01*
X179102438Y-138009523D02*
X179150057Y-137961904D01*
X179150057Y-137961904D02*
X179245295Y-137914285D01*
X179245295Y-137914285D02*
X179340533Y-137914285D01*
X179340533Y-137914285D02*
X179483390Y-137961904D01*
X179483390Y-137961904D02*
X180054819Y-138533332D01*
X180054819Y-138533332D02*
X180054819Y-137914285D01*
X130100952Y-110314819D02*
X129767619Y-109838628D01*
X129529524Y-110314819D02*
X129529524Y-109314819D01*
X129529524Y-109314819D02*
X129910476Y-109314819D01*
X129910476Y-109314819D02*
X130005714Y-109362438D01*
X130005714Y-109362438D02*
X130053333Y-109410057D01*
X130053333Y-109410057D02*
X130100952Y-109505295D01*
X130100952Y-109505295D02*
X130100952Y-109648152D01*
X130100952Y-109648152D02*
X130053333Y-109743390D01*
X130053333Y-109743390D02*
X130005714Y-109791009D01*
X130005714Y-109791009D02*
X129910476Y-109838628D01*
X129910476Y-109838628D02*
X129529524Y-109838628D01*
X131053333Y-110314819D02*
X130481905Y-110314819D01*
X130767619Y-110314819D02*
X130767619Y-109314819D01*
X130767619Y-109314819D02*
X130672381Y-109457676D01*
X130672381Y-109457676D02*
X130577143Y-109552914D01*
X130577143Y-109552914D02*
X130481905Y-109600533D01*
X131672381Y-109314819D02*
X131767619Y-109314819D01*
X131767619Y-109314819D02*
X131862857Y-109362438D01*
X131862857Y-109362438D02*
X131910476Y-109410057D01*
X131910476Y-109410057D02*
X131958095Y-109505295D01*
X131958095Y-109505295D02*
X132005714Y-109695771D01*
X132005714Y-109695771D02*
X132005714Y-109933866D01*
X132005714Y-109933866D02*
X131958095Y-110124342D01*
X131958095Y-110124342D02*
X131910476Y-110219580D01*
X131910476Y-110219580D02*
X131862857Y-110267200D01*
X131862857Y-110267200D02*
X131767619Y-110314819D01*
X131767619Y-110314819D02*
X131672381Y-110314819D01*
X131672381Y-110314819D02*
X131577143Y-110267200D01*
X131577143Y-110267200D02*
X131529524Y-110219580D01*
X131529524Y-110219580D02*
X131481905Y-110124342D01*
X131481905Y-110124342D02*
X131434286Y-109933866D01*
X131434286Y-109933866D02*
X131434286Y-109695771D01*
X131434286Y-109695771D02*
X131481905Y-109505295D01*
X131481905Y-109505295D02*
X131529524Y-109410057D01*
X131529524Y-109410057D02*
X131577143Y-109362438D01*
X131577143Y-109362438D02*
X131672381Y-109314819D01*
X132958095Y-110314819D02*
X132386667Y-110314819D01*
X132672381Y-110314819D02*
X132672381Y-109314819D01*
X132672381Y-109314819D02*
X132577143Y-109457676D01*
X132577143Y-109457676D02*
X132481905Y-109552914D01*
X132481905Y-109552914D02*
X132386667Y-109600533D01*
X150238095Y-136206819D02*
X150809523Y-136206819D01*
X150523809Y-137206819D02*
X150523809Y-136206819D01*
X151142857Y-137206819D02*
X151142857Y-136206819D01*
X151142857Y-136206819D02*
X151523809Y-136206819D01*
X151523809Y-136206819D02*
X151619047Y-136254438D01*
X151619047Y-136254438D02*
X151666666Y-136302057D01*
X151666666Y-136302057D02*
X151714285Y-136397295D01*
X151714285Y-136397295D02*
X151714285Y-136540152D01*
X151714285Y-136540152D02*
X151666666Y-136635390D01*
X151666666Y-136635390D02*
X151619047Y-136683009D01*
X151619047Y-136683009D02*
X151523809Y-136730628D01*
X151523809Y-136730628D02*
X151142857Y-136730628D01*
X152095238Y-136302057D02*
X152142857Y-136254438D01*
X152142857Y-136254438D02*
X152238095Y-136206819D01*
X152238095Y-136206819D02*
X152476190Y-136206819D01*
X152476190Y-136206819D02*
X152571428Y-136254438D01*
X152571428Y-136254438D02*
X152619047Y-136302057D01*
X152619047Y-136302057D02*
X152666666Y-136397295D01*
X152666666Y-136397295D02*
X152666666Y-136492533D01*
X152666666Y-136492533D02*
X152619047Y-136635390D01*
X152619047Y-136635390D02*
X152047619Y-137206819D01*
X152047619Y-137206819D02*
X152666666Y-137206819D01*
X141117319Y-108719047D02*
X140641128Y-109052380D01*
X141117319Y-109290475D02*
X140117319Y-109290475D01*
X140117319Y-109290475D02*
X140117319Y-108909523D01*
X140117319Y-108909523D02*
X140164938Y-108814285D01*
X140164938Y-108814285D02*
X140212557Y-108766666D01*
X140212557Y-108766666D02*
X140307795Y-108719047D01*
X140307795Y-108719047D02*
X140450652Y-108719047D01*
X140450652Y-108719047D02*
X140545890Y-108766666D01*
X140545890Y-108766666D02*
X140593509Y-108814285D01*
X140593509Y-108814285D02*
X140641128Y-108909523D01*
X140641128Y-108909523D02*
X140641128Y-109290475D01*
X141117319Y-107766666D02*
X141117319Y-108338094D01*
X141117319Y-108052380D02*
X140117319Y-108052380D01*
X140117319Y-108052380D02*
X140260176Y-108147618D01*
X140260176Y-108147618D02*
X140355414Y-108242856D01*
X140355414Y-108242856D02*
X140403033Y-108338094D01*
X140117319Y-107147618D02*
X140117319Y-107052380D01*
X140117319Y-107052380D02*
X140164938Y-106957142D01*
X140164938Y-106957142D02*
X140212557Y-106909523D01*
X140212557Y-106909523D02*
X140307795Y-106861904D01*
X140307795Y-106861904D02*
X140498271Y-106814285D01*
X140498271Y-106814285D02*
X140736366Y-106814285D01*
X140736366Y-106814285D02*
X140926842Y-106861904D01*
X140926842Y-106861904D02*
X141022080Y-106909523D01*
X141022080Y-106909523D02*
X141069700Y-106957142D01*
X141069700Y-106957142D02*
X141117319Y-107052380D01*
X141117319Y-107052380D02*
X141117319Y-107147618D01*
X141117319Y-107147618D02*
X141069700Y-107242856D01*
X141069700Y-107242856D02*
X141022080Y-107290475D01*
X141022080Y-107290475D02*
X140926842Y-107338094D01*
X140926842Y-107338094D02*
X140736366Y-107385713D01*
X140736366Y-107385713D02*
X140498271Y-107385713D01*
X140498271Y-107385713D02*
X140307795Y-107338094D01*
X140307795Y-107338094D02*
X140212557Y-107290475D01*
X140212557Y-107290475D02*
X140164938Y-107242856D01*
X140164938Y-107242856D02*
X140117319Y-107147618D01*
X140117319Y-105909523D02*
X140117319Y-106385713D01*
X140117319Y-106385713D02*
X140593509Y-106433332D01*
X140593509Y-106433332D02*
X140545890Y-106385713D01*
X140545890Y-106385713D02*
X140498271Y-106290475D01*
X140498271Y-106290475D02*
X140498271Y-106052380D01*
X140498271Y-106052380D02*
X140545890Y-105957142D01*
X140545890Y-105957142D02*
X140593509Y-105909523D01*
X140593509Y-105909523D02*
X140688747Y-105861904D01*
X140688747Y-105861904D02*
X140926842Y-105861904D01*
X140926842Y-105861904D02*
X141022080Y-105909523D01*
X141022080Y-105909523D02*
X141069700Y-105957142D01*
X141069700Y-105957142D02*
X141117319Y-106052380D01*
X141117319Y-106052380D02*
X141117319Y-106290475D01*
X141117319Y-106290475D02*
X141069700Y-106385713D01*
X141069700Y-106385713D02*
X141022080Y-106433332D01*
X154918452Y-101059580D02*
X154870833Y-101107200D01*
X154870833Y-101107200D02*
X154727976Y-101154819D01*
X154727976Y-101154819D02*
X154632738Y-101154819D01*
X154632738Y-101154819D02*
X154489881Y-101107200D01*
X154489881Y-101107200D02*
X154394643Y-101011961D01*
X154394643Y-101011961D02*
X154347024Y-100916723D01*
X154347024Y-100916723D02*
X154299405Y-100726247D01*
X154299405Y-100726247D02*
X154299405Y-100583390D01*
X154299405Y-100583390D02*
X154347024Y-100392914D01*
X154347024Y-100392914D02*
X154394643Y-100297676D01*
X154394643Y-100297676D02*
X154489881Y-100202438D01*
X154489881Y-100202438D02*
X154632738Y-100154819D01*
X154632738Y-100154819D02*
X154727976Y-100154819D01*
X154727976Y-100154819D02*
X154870833Y-100202438D01*
X154870833Y-100202438D02*
X154918452Y-100250057D01*
X155870833Y-101154819D02*
X155299405Y-101154819D01*
X155585119Y-101154819D02*
X155585119Y-100154819D01*
X155585119Y-100154819D02*
X155489881Y-100297676D01*
X155489881Y-100297676D02*
X155394643Y-100392914D01*
X155394643Y-100392914D02*
X155299405Y-100440533D01*
X156489881Y-100154819D02*
X156585119Y-100154819D01*
X156585119Y-100154819D02*
X156680357Y-100202438D01*
X156680357Y-100202438D02*
X156727976Y-100250057D01*
X156727976Y-100250057D02*
X156775595Y-100345295D01*
X156775595Y-100345295D02*
X156823214Y-100535771D01*
X156823214Y-100535771D02*
X156823214Y-100773866D01*
X156823214Y-100773866D02*
X156775595Y-100964342D01*
X156775595Y-100964342D02*
X156727976Y-101059580D01*
X156727976Y-101059580D02*
X156680357Y-101107200D01*
X156680357Y-101107200D02*
X156585119Y-101154819D01*
X156585119Y-101154819D02*
X156489881Y-101154819D01*
X156489881Y-101154819D02*
X156394643Y-101107200D01*
X156394643Y-101107200D02*
X156347024Y-101059580D01*
X156347024Y-101059580D02*
X156299405Y-100964342D01*
X156299405Y-100964342D02*
X156251786Y-100773866D01*
X156251786Y-100773866D02*
X156251786Y-100535771D01*
X156251786Y-100535771D02*
X156299405Y-100345295D01*
X156299405Y-100345295D02*
X156347024Y-100250057D01*
X156347024Y-100250057D02*
X156394643Y-100202438D01*
X156394643Y-100202438D02*
X156489881Y-100154819D01*
X157775595Y-101154819D02*
X157204167Y-101154819D01*
X157489881Y-101154819D02*
X157489881Y-100154819D01*
X157489881Y-100154819D02*
X157394643Y-100297676D01*
X157394643Y-100297676D02*
X157299405Y-100392914D01*
X157299405Y-100392914D02*
X157204167Y-100440533D01*
X150554819Y-135619047D02*
X150078628Y-135952380D01*
X150554819Y-136190475D02*
X149554819Y-136190475D01*
X149554819Y-136190475D02*
X149554819Y-135809523D01*
X149554819Y-135809523D02*
X149602438Y-135714285D01*
X149602438Y-135714285D02*
X149650057Y-135666666D01*
X149650057Y-135666666D02*
X149745295Y-135619047D01*
X149745295Y-135619047D02*
X149888152Y-135619047D01*
X149888152Y-135619047D02*
X149983390Y-135666666D01*
X149983390Y-135666666D02*
X150031009Y-135714285D01*
X150031009Y-135714285D02*
X150078628Y-135809523D01*
X150078628Y-135809523D02*
X150078628Y-136190475D01*
X150554819Y-134666666D02*
X150554819Y-135238094D01*
X150554819Y-134952380D02*
X149554819Y-134952380D01*
X149554819Y-134952380D02*
X149697676Y-135047618D01*
X149697676Y-135047618D02*
X149792914Y-135142856D01*
X149792914Y-135142856D02*
X149840533Y-135238094D01*
X150554819Y-133714285D02*
X150554819Y-134285713D01*
X150554819Y-133999999D02*
X149554819Y-133999999D01*
X149554819Y-133999999D02*
X149697676Y-134095237D01*
X149697676Y-134095237D02*
X149792914Y-134190475D01*
X149792914Y-134190475D02*
X149840533Y-134285713D01*
X149650057Y-133333332D02*
X149602438Y-133285713D01*
X149602438Y-133285713D02*
X149554819Y-133190475D01*
X149554819Y-133190475D02*
X149554819Y-132952380D01*
X149554819Y-132952380D02*
X149602438Y-132857142D01*
X149602438Y-132857142D02*
X149650057Y-132809523D01*
X149650057Y-132809523D02*
X149745295Y-132761904D01*
X149745295Y-132761904D02*
X149840533Y-132761904D01*
X149840533Y-132761904D02*
X149983390Y-132809523D01*
X149983390Y-132809523D02*
X150554819Y-133380951D01*
X150554819Y-133380951D02*
X150554819Y-132761904D01*
X179654819Y-107389285D02*
X180464342Y-107389285D01*
X180464342Y-107389285D02*
X180559580Y-107341666D01*
X180559580Y-107341666D02*
X180607200Y-107294047D01*
X180607200Y-107294047D02*
X180654819Y-107198809D01*
X180654819Y-107198809D02*
X180654819Y-107008333D01*
X180654819Y-107008333D02*
X180607200Y-106913095D01*
X180607200Y-106913095D02*
X180559580Y-106865476D01*
X180559580Y-106865476D02*
X180464342Y-106817857D01*
X180464342Y-106817857D02*
X179654819Y-106817857D01*
X180654819Y-105817857D02*
X180654819Y-106389285D01*
X180654819Y-106103571D02*
X179654819Y-106103571D01*
X179654819Y-106103571D02*
X179797676Y-106198809D01*
X179797676Y-106198809D02*
X179892914Y-106294047D01*
X179892914Y-106294047D02*
X179940533Y-106389285D01*
X179654819Y-105198809D02*
X179654819Y-105103571D01*
X179654819Y-105103571D02*
X179702438Y-105008333D01*
X179702438Y-105008333D02*
X179750057Y-104960714D01*
X179750057Y-104960714D02*
X179845295Y-104913095D01*
X179845295Y-104913095D02*
X180035771Y-104865476D01*
X180035771Y-104865476D02*
X180273866Y-104865476D01*
X180273866Y-104865476D02*
X180464342Y-104913095D01*
X180464342Y-104913095D02*
X180559580Y-104960714D01*
X180559580Y-104960714D02*
X180607200Y-105008333D01*
X180607200Y-105008333D02*
X180654819Y-105103571D01*
X180654819Y-105103571D02*
X180654819Y-105198809D01*
X180654819Y-105198809D02*
X180607200Y-105294047D01*
X180607200Y-105294047D02*
X180559580Y-105341666D01*
X180559580Y-105341666D02*
X180464342Y-105389285D01*
X180464342Y-105389285D02*
X180273866Y-105436904D01*
X180273866Y-105436904D02*
X180035771Y-105436904D01*
X180035771Y-105436904D02*
X179845295Y-105389285D01*
X179845295Y-105389285D02*
X179750057Y-105341666D01*
X179750057Y-105341666D02*
X179702438Y-105294047D01*
X179702438Y-105294047D02*
X179654819Y-105198809D01*
X179750057Y-104484523D02*
X179702438Y-104436904D01*
X179702438Y-104436904D02*
X179654819Y-104341666D01*
X179654819Y-104341666D02*
X179654819Y-104103571D01*
X179654819Y-104103571D02*
X179702438Y-104008333D01*
X179702438Y-104008333D02*
X179750057Y-103960714D01*
X179750057Y-103960714D02*
X179845295Y-103913095D01*
X179845295Y-103913095D02*
X179940533Y-103913095D01*
X179940533Y-103913095D02*
X180083390Y-103960714D01*
X180083390Y-103960714D02*
X180654819Y-104532142D01*
X180654819Y-104532142D02*
X180654819Y-103913095D01*
X141117319Y-104619047D02*
X140641128Y-104952380D01*
X141117319Y-105190475D02*
X140117319Y-105190475D01*
X140117319Y-105190475D02*
X140117319Y-104809523D01*
X140117319Y-104809523D02*
X140164938Y-104714285D01*
X140164938Y-104714285D02*
X140212557Y-104666666D01*
X140212557Y-104666666D02*
X140307795Y-104619047D01*
X140307795Y-104619047D02*
X140450652Y-104619047D01*
X140450652Y-104619047D02*
X140545890Y-104666666D01*
X140545890Y-104666666D02*
X140593509Y-104714285D01*
X140593509Y-104714285D02*
X140641128Y-104809523D01*
X140641128Y-104809523D02*
X140641128Y-105190475D01*
X141117319Y-103666666D02*
X141117319Y-104238094D01*
X141117319Y-103952380D02*
X140117319Y-103952380D01*
X140117319Y-103952380D02*
X140260176Y-104047618D01*
X140260176Y-104047618D02*
X140355414Y-104142856D01*
X140355414Y-104142856D02*
X140403033Y-104238094D01*
X140117319Y-103047618D02*
X140117319Y-102952380D01*
X140117319Y-102952380D02*
X140164938Y-102857142D01*
X140164938Y-102857142D02*
X140212557Y-102809523D01*
X140212557Y-102809523D02*
X140307795Y-102761904D01*
X140307795Y-102761904D02*
X140498271Y-102714285D01*
X140498271Y-102714285D02*
X140736366Y-102714285D01*
X140736366Y-102714285D02*
X140926842Y-102761904D01*
X140926842Y-102761904D02*
X141022080Y-102809523D01*
X141022080Y-102809523D02*
X141069700Y-102857142D01*
X141069700Y-102857142D02*
X141117319Y-102952380D01*
X141117319Y-102952380D02*
X141117319Y-103047618D01*
X141117319Y-103047618D02*
X141069700Y-103142856D01*
X141069700Y-103142856D02*
X141022080Y-103190475D01*
X141022080Y-103190475D02*
X140926842Y-103238094D01*
X140926842Y-103238094D02*
X140736366Y-103285713D01*
X140736366Y-103285713D02*
X140498271Y-103285713D01*
X140498271Y-103285713D02*
X140307795Y-103238094D01*
X140307795Y-103238094D02*
X140212557Y-103190475D01*
X140212557Y-103190475D02*
X140164938Y-103142856D01*
X140164938Y-103142856D02*
X140117319Y-103047618D01*
X140117319Y-101857142D02*
X140117319Y-102047618D01*
X140117319Y-102047618D02*
X140164938Y-102142856D01*
X140164938Y-102142856D02*
X140212557Y-102190475D01*
X140212557Y-102190475D02*
X140355414Y-102285713D01*
X140355414Y-102285713D02*
X140545890Y-102333332D01*
X140545890Y-102333332D02*
X140926842Y-102333332D01*
X140926842Y-102333332D02*
X141022080Y-102285713D01*
X141022080Y-102285713D02*
X141069700Y-102238094D01*
X141069700Y-102238094D02*
X141117319Y-102142856D01*
X141117319Y-102142856D02*
X141117319Y-101952380D01*
X141117319Y-101952380D02*
X141069700Y-101857142D01*
X141069700Y-101857142D02*
X141022080Y-101809523D01*
X141022080Y-101809523D02*
X140926842Y-101761904D01*
X140926842Y-101761904D02*
X140688747Y-101761904D01*
X140688747Y-101761904D02*
X140593509Y-101809523D01*
X140593509Y-101809523D02*
X140545890Y-101857142D01*
X140545890Y-101857142D02*
X140498271Y-101952380D01*
X140498271Y-101952380D02*
X140498271Y-102142856D01*
X140498271Y-102142856D02*
X140545890Y-102238094D01*
X140545890Y-102238094D02*
X140593509Y-102285713D01*
X140593509Y-102285713D02*
X140688747Y-102333332D01*
X134668452Y-110214819D02*
X134335119Y-109738628D01*
X134097024Y-110214819D02*
X134097024Y-109214819D01*
X134097024Y-109214819D02*
X134477976Y-109214819D01*
X134477976Y-109214819D02*
X134573214Y-109262438D01*
X134573214Y-109262438D02*
X134620833Y-109310057D01*
X134620833Y-109310057D02*
X134668452Y-109405295D01*
X134668452Y-109405295D02*
X134668452Y-109548152D01*
X134668452Y-109548152D02*
X134620833Y-109643390D01*
X134620833Y-109643390D02*
X134573214Y-109691009D01*
X134573214Y-109691009D02*
X134477976Y-109738628D01*
X134477976Y-109738628D02*
X134097024Y-109738628D01*
X135620833Y-110214819D02*
X135049405Y-110214819D01*
X135335119Y-110214819D02*
X135335119Y-109214819D01*
X135335119Y-109214819D02*
X135239881Y-109357676D01*
X135239881Y-109357676D02*
X135144643Y-109452914D01*
X135144643Y-109452914D02*
X135049405Y-109500533D01*
X136239881Y-109214819D02*
X136335119Y-109214819D01*
X136335119Y-109214819D02*
X136430357Y-109262438D01*
X136430357Y-109262438D02*
X136477976Y-109310057D01*
X136477976Y-109310057D02*
X136525595Y-109405295D01*
X136525595Y-109405295D02*
X136573214Y-109595771D01*
X136573214Y-109595771D02*
X136573214Y-109833866D01*
X136573214Y-109833866D02*
X136525595Y-110024342D01*
X136525595Y-110024342D02*
X136477976Y-110119580D01*
X136477976Y-110119580D02*
X136430357Y-110167200D01*
X136430357Y-110167200D02*
X136335119Y-110214819D01*
X136335119Y-110214819D02*
X136239881Y-110214819D01*
X136239881Y-110214819D02*
X136144643Y-110167200D01*
X136144643Y-110167200D02*
X136097024Y-110119580D01*
X136097024Y-110119580D02*
X136049405Y-110024342D01*
X136049405Y-110024342D02*
X136001786Y-109833866D01*
X136001786Y-109833866D02*
X136001786Y-109595771D01*
X136001786Y-109595771D02*
X136049405Y-109405295D01*
X136049405Y-109405295D02*
X136097024Y-109310057D01*
X136097024Y-109310057D02*
X136144643Y-109262438D01*
X136144643Y-109262438D02*
X136239881Y-109214819D01*
X136954167Y-109310057D02*
X137001786Y-109262438D01*
X137001786Y-109262438D02*
X137097024Y-109214819D01*
X137097024Y-109214819D02*
X137335119Y-109214819D01*
X137335119Y-109214819D02*
X137430357Y-109262438D01*
X137430357Y-109262438D02*
X137477976Y-109310057D01*
X137477976Y-109310057D02*
X137525595Y-109405295D01*
X137525595Y-109405295D02*
X137525595Y-109500533D01*
X137525595Y-109500533D02*
X137477976Y-109643390D01*
X137477976Y-109643390D02*
X136906548Y-110214819D01*
X136906548Y-110214819D02*
X137525595Y-110214819D01*
X124559580Y-105454047D02*
X124607200Y-105501666D01*
X124607200Y-105501666D02*
X124654819Y-105644523D01*
X124654819Y-105644523D02*
X124654819Y-105739761D01*
X124654819Y-105739761D02*
X124607200Y-105882618D01*
X124607200Y-105882618D02*
X124511961Y-105977856D01*
X124511961Y-105977856D02*
X124416723Y-106025475D01*
X124416723Y-106025475D02*
X124226247Y-106073094D01*
X124226247Y-106073094D02*
X124083390Y-106073094D01*
X124083390Y-106073094D02*
X123892914Y-106025475D01*
X123892914Y-106025475D02*
X123797676Y-105977856D01*
X123797676Y-105977856D02*
X123702438Y-105882618D01*
X123702438Y-105882618D02*
X123654819Y-105739761D01*
X123654819Y-105739761D02*
X123654819Y-105644523D01*
X123654819Y-105644523D02*
X123702438Y-105501666D01*
X123702438Y-105501666D02*
X123750057Y-105454047D01*
X124654819Y-104501666D02*
X124654819Y-105073094D01*
X124654819Y-104787380D02*
X123654819Y-104787380D01*
X123654819Y-104787380D02*
X123797676Y-104882618D01*
X123797676Y-104882618D02*
X123892914Y-104977856D01*
X123892914Y-104977856D02*
X123940533Y-105073094D01*
X123654819Y-103882618D02*
X123654819Y-103787380D01*
X123654819Y-103787380D02*
X123702438Y-103692142D01*
X123702438Y-103692142D02*
X123750057Y-103644523D01*
X123750057Y-103644523D02*
X123845295Y-103596904D01*
X123845295Y-103596904D02*
X124035771Y-103549285D01*
X124035771Y-103549285D02*
X124273866Y-103549285D01*
X124273866Y-103549285D02*
X124464342Y-103596904D01*
X124464342Y-103596904D02*
X124559580Y-103644523D01*
X124559580Y-103644523D02*
X124607200Y-103692142D01*
X124607200Y-103692142D02*
X124654819Y-103787380D01*
X124654819Y-103787380D02*
X124654819Y-103882618D01*
X124654819Y-103882618D02*
X124607200Y-103977856D01*
X124607200Y-103977856D02*
X124559580Y-104025475D01*
X124559580Y-104025475D02*
X124464342Y-104073094D01*
X124464342Y-104073094D02*
X124273866Y-104120713D01*
X124273866Y-104120713D02*
X124035771Y-104120713D01*
X124035771Y-104120713D02*
X123845295Y-104073094D01*
X123845295Y-104073094D02*
X123750057Y-104025475D01*
X123750057Y-104025475D02*
X123702438Y-103977856D01*
X123702438Y-103977856D02*
X123654819Y-103882618D01*
X123654819Y-102644523D02*
X123654819Y-103120713D01*
X123654819Y-103120713D02*
X124131009Y-103168332D01*
X124131009Y-103168332D02*
X124083390Y-103120713D01*
X124083390Y-103120713D02*
X124035771Y-103025475D01*
X124035771Y-103025475D02*
X124035771Y-102787380D01*
X124035771Y-102787380D02*
X124083390Y-102692142D01*
X124083390Y-102692142D02*
X124131009Y-102644523D01*
X124131009Y-102644523D02*
X124226247Y-102596904D01*
X124226247Y-102596904D02*
X124464342Y-102596904D01*
X124464342Y-102596904D02*
X124559580Y-102644523D01*
X124559580Y-102644523D02*
X124607200Y-102692142D01*
X124607200Y-102692142D02*
X124654819Y-102787380D01*
X124654819Y-102787380D02*
X124654819Y-103025475D01*
X124654819Y-103025475D02*
X124607200Y-103120713D01*
X124607200Y-103120713D02*
X124559580Y-103168332D01*
X191602439Y-142485713D02*
X191650058Y-142342856D01*
X191650058Y-142342856D02*
X191650058Y-142104761D01*
X191650058Y-142104761D02*
X191602439Y-142009523D01*
X191602439Y-142009523D02*
X191554819Y-141961904D01*
X191554819Y-141961904D02*
X191459581Y-141914285D01*
X191459581Y-141914285D02*
X191364343Y-141914285D01*
X191364343Y-141914285D02*
X191269105Y-141961904D01*
X191269105Y-141961904D02*
X191221486Y-142009523D01*
X191221486Y-142009523D02*
X191173867Y-142104761D01*
X191173867Y-142104761D02*
X191126248Y-142295237D01*
X191126248Y-142295237D02*
X191078629Y-142390475D01*
X191078629Y-142390475D02*
X191031010Y-142438094D01*
X191031010Y-142438094D02*
X190935772Y-142485713D01*
X190935772Y-142485713D02*
X190840534Y-142485713D01*
X190840534Y-142485713D02*
X190745296Y-142438094D01*
X190745296Y-142438094D02*
X190697677Y-142390475D01*
X190697677Y-142390475D02*
X190650058Y-142295237D01*
X190650058Y-142295237D02*
X190650058Y-142057142D01*
X190650058Y-142057142D02*
X190697677Y-141914285D01*
X190650058Y-141580951D02*
X191650058Y-141342856D01*
X191650058Y-141342856D02*
X190935772Y-141152380D01*
X190935772Y-141152380D02*
X191650058Y-140961904D01*
X191650058Y-140961904D02*
X190650058Y-140723809D01*
X191650058Y-139819047D02*
X191650058Y-140390475D01*
X191650058Y-140104761D02*
X190650058Y-140104761D01*
X190650058Y-140104761D02*
X190792915Y-140199999D01*
X190792915Y-140199999D02*
X190888153Y-140295237D01*
X190888153Y-140295237D02*
X190935772Y-140390475D01*
X190650058Y-139199999D02*
X190650058Y-139104761D01*
X190650058Y-139104761D02*
X190697677Y-139009523D01*
X190697677Y-139009523D02*
X190745296Y-138961904D01*
X190745296Y-138961904D02*
X190840534Y-138914285D01*
X190840534Y-138914285D02*
X191031010Y-138866666D01*
X191031010Y-138866666D02*
X191269105Y-138866666D01*
X191269105Y-138866666D02*
X191459581Y-138914285D01*
X191459581Y-138914285D02*
X191554819Y-138961904D01*
X191554819Y-138961904D02*
X191602439Y-139009523D01*
X191602439Y-139009523D02*
X191650058Y-139104761D01*
X191650058Y-139104761D02*
X191650058Y-139199999D01*
X191650058Y-139199999D02*
X191602439Y-139295237D01*
X191602439Y-139295237D02*
X191554819Y-139342856D01*
X191554819Y-139342856D02*
X191459581Y-139390475D01*
X191459581Y-139390475D02*
X191269105Y-139438094D01*
X191269105Y-139438094D02*
X191031010Y-139438094D01*
X191031010Y-139438094D02*
X190840534Y-139390475D01*
X190840534Y-139390475D02*
X190745296Y-139342856D01*
X190745296Y-139342856D02*
X190697677Y-139295237D01*
X190697677Y-139295237D02*
X190650058Y-139199999D01*
X190650058Y-138533332D02*
X190650058Y-137914285D01*
X190650058Y-137914285D02*
X191031010Y-138247618D01*
X191031010Y-138247618D02*
X191031010Y-138104761D01*
X191031010Y-138104761D02*
X191078629Y-138009523D01*
X191078629Y-138009523D02*
X191126248Y-137961904D01*
X191126248Y-137961904D02*
X191221486Y-137914285D01*
X191221486Y-137914285D02*
X191459581Y-137914285D01*
X191459581Y-137914285D02*
X191554819Y-137961904D01*
X191554819Y-137961904D02*
X191602439Y-138009523D01*
X191602439Y-138009523D02*
X191650058Y-138104761D01*
X191650058Y-138104761D02*
X191650058Y-138390475D01*
X191650058Y-138390475D02*
X191602439Y-138485713D01*
X191602439Y-138485713D02*
X191554819Y-138533332D01*
X170243452Y-132417080D02*
X170195833Y-132464700D01*
X170195833Y-132464700D02*
X170052976Y-132512319D01*
X170052976Y-132512319D02*
X169957738Y-132512319D01*
X169957738Y-132512319D02*
X169814881Y-132464700D01*
X169814881Y-132464700D02*
X169719643Y-132369461D01*
X169719643Y-132369461D02*
X169672024Y-132274223D01*
X169672024Y-132274223D02*
X169624405Y-132083747D01*
X169624405Y-132083747D02*
X169624405Y-131940890D01*
X169624405Y-131940890D02*
X169672024Y-131750414D01*
X169672024Y-131750414D02*
X169719643Y-131655176D01*
X169719643Y-131655176D02*
X169814881Y-131559938D01*
X169814881Y-131559938D02*
X169957738Y-131512319D01*
X169957738Y-131512319D02*
X170052976Y-131512319D01*
X170052976Y-131512319D02*
X170195833Y-131559938D01*
X170195833Y-131559938D02*
X170243452Y-131607557D01*
X171195833Y-132512319D02*
X170624405Y-132512319D01*
X170910119Y-132512319D02*
X170910119Y-131512319D01*
X170910119Y-131512319D02*
X170814881Y-131655176D01*
X170814881Y-131655176D02*
X170719643Y-131750414D01*
X170719643Y-131750414D02*
X170624405Y-131798033D01*
X172148214Y-132512319D02*
X171576786Y-132512319D01*
X171862500Y-132512319D02*
X171862500Y-131512319D01*
X171862500Y-131512319D02*
X171767262Y-131655176D01*
X171767262Y-131655176D02*
X171672024Y-131750414D01*
X171672024Y-131750414D02*
X171576786Y-131798033D01*
X173100595Y-132512319D02*
X172529167Y-132512319D01*
X172814881Y-132512319D02*
X172814881Y-131512319D01*
X172814881Y-131512319D02*
X172719643Y-131655176D01*
X172719643Y-131655176D02*
X172624405Y-131750414D01*
X172624405Y-131750414D02*
X172529167Y-131798033D01*
X170521428Y-125106128D02*
X170521428Y-125582319D01*
X170188095Y-124582319D02*
X170521428Y-125106128D01*
X170521428Y-125106128D02*
X170854761Y-124582319D01*
X171711904Y-125582319D02*
X171140476Y-125582319D01*
X171426190Y-125582319D02*
X171426190Y-124582319D01*
X171426190Y-124582319D02*
X171330952Y-124725176D01*
X171330952Y-124725176D02*
X171235714Y-124820414D01*
X171235714Y-124820414D02*
X171140476Y-124868033D01*
X172330952Y-124582319D02*
X172426190Y-124582319D01*
X172426190Y-124582319D02*
X172521428Y-124629938D01*
X172521428Y-124629938D02*
X172569047Y-124677557D01*
X172569047Y-124677557D02*
X172616666Y-124772795D01*
X172616666Y-124772795D02*
X172664285Y-124963271D01*
X172664285Y-124963271D02*
X172664285Y-125201366D01*
X172664285Y-125201366D02*
X172616666Y-125391842D01*
X172616666Y-125391842D02*
X172569047Y-125487080D01*
X172569047Y-125487080D02*
X172521428Y-125534700D01*
X172521428Y-125534700D02*
X172426190Y-125582319D01*
X172426190Y-125582319D02*
X172330952Y-125582319D01*
X172330952Y-125582319D02*
X172235714Y-125534700D01*
X172235714Y-125534700D02*
X172188095Y-125487080D01*
X172188095Y-125487080D02*
X172140476Y-125391842D01*
X172140476Y-125391842D02*
X172092857Y-125201366D01*
X172092857Y-125201366D02*
X172092857Y-124963271D01*
X172092857Y-124963271D02*
X172140476Y-124772795D01*
X172140476Y-124772795D02*
X172188095Y-124677557D01*
X172188095Y-124677557D02*
X172235714Y-124629938D01*
X172235714Y-124629938D02*
X172330952Y-124582319D01*
X173616666Y-125582319D02*
X173045238Y-125582319D01*
X173330952Y-125582319D02*
X173330952Y-124582319D01*
X173330952Y-124582319D02*
X173235714Y-124725176D01*
X173235714Y-124725176D02*
X173140476Y-124820414D01*
X173140476Y-124820414D02*
X173045238Y-124868033D01*
X137214285Y-140454819D02*
X137214285Y-141169104D01*
X137214285Y-141169104D02*
X137166666Y-141311961D01*
X137166666Y-141311961D02*
X137071428Y-141407200D01*
X137071428Y-141407200D02*
X136928571Y-141454819D01*
X136928571Y-141454819D02*
X136833333Y-141454819D01*
X138214285Y-141454819D02*
X137642857Y-141454819D01*
X137928571Y-141454819D02*
X137928571Y-140454819D01*
X137928571Y-140454819D02*
X137833333Y-140597676D01*
X137833333Y-140597676D02*
X137738095Y-140692914D01*
X137738095Y-140692914D02*
X137642857Y-140740533D01*
X138833333Y-140454819D02*
X138928571Y-140454819D01*
X138928571Y-140454819D02*
X139023809Y-140502438D01*
X139023809Y-140502438D02*
X139071428Y-140550057D01*
X139071428Y-140550057D02*
X139119047Y-140645295D01*
X139119047Y-140645295D02*
X139166666Y-140835771D01*
X139166666Y-140835771D02*
X139166666Y-141073866D01*
X139166666Y-141073866D02*
X139119047Y-141264342D01*
X139119047Y-141264342D02*
X139071428Y-141359580D01*
X139071428Y-141359580D02*
X139023809Y-141407200D01*
X139023809Y-141407200D02*
X138928571Y-141454819D01*
X138928571Y-141454819D02*
X138833333Y-141454819D01*
X138833333Y-141454819D02*
X138738095Y-141407200D01*
X138738095Y-141407200D02*
X138690476Y-141359580D01*
X138690476Y-141359580D02*
X138642857Y-141264342D01*
X138642857Y-141264342D02*
X138595238Y-141073866D01*
X138595238Y-141073866D02*
X138595238Y-140835771D01*
X138595238Y-140835771D02*
X138642857Y-140645295D01*
X138642857Y-140645295D02*
X138690476Y-140550057D01*
X138690476Y-140550057D02*
X138738095Y-140502438D01*
X138738095Y-140502438D02*
X138833333Y-140454819D01*
X139547619Y-140550057D02*
X139595238Y-140502438D01*
X139595238Y-140502438D02*
X139690476Y-140454819D01*
X139690476Y-140454819D02*
X139928571Y-140454819D01*
X139928571Y-140454819D02*
X140023809Y-140502438D01*
X140023809Y-140502438D02*
X140071428Y-140550057D01*
X140071428Y-140550057D02*
X140119047Y-140645295D01*
X140119047Y-140645295D02*
X140119047Y-140740533D01*
X140119047Y-140740533D02*
X140071428Y-140883390D01*
X140071428Y-140883390D02*
X139500000Y-141454819D01*
X139500000Y-141454819D02*
X140119047Y-141454819D01*
X162768452Y-106604819D02*
X162435119Y-106128628D01*
X162197024Y-106604819D02*
X162197024Y-105604819D01*
X162197024Y-105604819D02*
X162577976Y-105604819D01*
X162577976Y-105604819D02*
X162673214Y-105652438D01*
X162673214Y-105652438D02*
X162720833Y-105700057D01*
X162720833Y-105700057D02*
X162768452Y-105795295D01*
X162768452Y-105795295D02*
X162768452Y-105938152D01*
X162768452Y-105938152D02*
X162720833Y-106033390D01*
X162720833Y-106033390D02*
X162673214Y-106081009D01*
X162673214Y-106081009D02*
X162577976Y-106128628D01*
X162577976Y-106128628D02*
X162197024Y-106128628D01*
X163720833Y-106604819D02*
X163149405Y-106604819D01*
X163435119Y-106604819D02*
X163435119Y-105604819D01*
X163435119Y-105604819D02*
X163339881Y-105747676D01*
X163339881Y-105747676D02*
X163244643Y-105842914D01*
X163244643Y-105842914D02*
X163149405Y-105890533D01*
X164339881Y-105604819D02*
X164435119Y-105604819D01*
X164435119Y-105604819D02*
X164530357Y-105652438D01*
X164530357Y-105652438D02*
X164577976Y-105700057D01*
X164577976Y-105700057D02*
X164625595Y-105795295D01*
X164625595Y-105795295D02*
X164673214Y-105985771D01*
X164673214Y-105985771D02*
X164673214Y-106223866D01*
X164673214Y-106223866D02*
X164625595Y-106414342D01*
X164625595Y-106414342D02*
X164577976Y-106509580D01*
X164577976Y-106509580D02*
X164530357Y-106557200D01*
X164530357Y-106557200D02*
X164435119Y-106604819D01*
X164435119Y-106604819D02*
X164339881Y-106604819D01*
X164339881Y-106604819D02*
X164244643Y-106557200D01*
X164244643Y-106557200D02*
X164197024Y-106509580D01*
X164197024Y-106509580D02*
X164149405Y-106414342D01*
X164149405Y-106414342D02*
X164101786Y-106223866D01*
X164101786Y-106223866D02*
X164101786Y-105985771D01*
X164101786Y-105985771D02*
X164149405Y-105795295D01*
X164149405Y-105795295D02*
X164197024Y-105700057D01*
X164197024Y-105700057D02*
X164244643Y-105652438D01*
X164244643Y-105652438D02*
X164339881Y-105604819D01*
X165006548Y-105604819D02*
X165625595Y-105604819D01*
X165625595Y-105604819D02*
X165292262Y-105985771D01*
X165292262Y-105985771D02*
X165435119Y-105985771D01*
X165435119Y-105985771D02*
X165530357Y-106033390D01*
X165530357Y-106033390D02*
X165577976Y-106081009D01*
X165577976Y-106081009D02*
X165625595Y-106176247D01*
X165625595Y-106176247D02*
X165625595Y-106414342D01*
X165625595Y-106414342D02*
X165577976Y-106509580D01*
X165577976Y-106509580D02*
X165530357Y-106557200D01*
X165530357Y-106557200D02*
X165435119Y-106604819D01*
X165435119Y-106604819D02*
X165149405Y-106604819D01*
X165149405Y-106604819D02*
X165054167Y-106557200D01*
X165054167Y-106557200D02*
X165006548Y-106509580D01*
X176780952Y-131624819D02*
X176447619Y-131148628D01*
X176209524Y-131624819D02*
X176209524Y-130624819D01*
X176209524Y-130624819D02*
X176590476Y-130624819D01*
X176590476Y-130624819D02*
X176685714Y-130672438D01*
X176685714Y-130672438D02*
X176733333Y-130720057D01*
X176733333Y-130720057D02*
X176780952Y-130815295D01*
X176780952Y-130815295D02*
X176780952Y-130958152D01*
X176780952Y-130958152D02*
X176733333Y-131053390D01*
X176733333Y-131053390D02*
X176685714Y-131101009D01*
X176685714Y-131101009D02*
X176590476Y-131148628D01*
X176590476Y-131148628D02*
X176209524Y-131148628D01*
X177733333Y-131624819D02*
X177161905Y-131624819D01*
X177447619Y-131624819D02*
X177447619Y-130624819D01*
X177447619Y-130624819D02*
X177352381Y-130767676D01*
X177352381Y-130767676D02*
X177257143Y-130862914D01*
X177257143Y-130862914D02*
X177161905Y-130910533D01*
X178352381Y-130624819D02*
X178447619Y-130624819D01*
X178447619Y-130624819D02*
X178542857Y-130672438D01*
X178542857Y-130672438D02*
X178590476Y-130720057D01*
X178590476Y-130720057D02*
X178638095Y-130815295D01*
X178638095Y-130815295D02*
X178685714Y-131005771D01*
X178685714Y-131005771D02*
X178685714Y-131243866D01*
X178685714Y-131243866D02*
X178638095Y-131434342D01*
X178638095Y-131434342D02*
X178590476Y-131529580D01*
X178590476Y-131529580D02*
X178542857Y-131577200D01*
X178542857Y-131577200D02*
X178447619Y-131624819D01*
X178447619Y-131624819D02*
X178352381Y-131624819D01*
X178352381Y-131624819D02*
X178257143Y-131577200D01*
X178257143Y-131577200D02*
X178209524Y-131529580D01*
X178209524Y-131529580D02*
X178161905Y-131434342D01*
X178161905Y-131434342D02*
X178114286Y-131243866D01*
X178114286Y-131243866D02*
X178114286Y-131005771D01*
X178114286Y-131005771D02*
X178161905Y-130815295D01*
X178161905Y-130815295D02*
X178209524Y-130720057D01*
X178209524Y-130720057D02*
X178257143Y-130672438D01*
X178257143Y-130672438D02*
X178352381Y-130624819D01*
X179161905Y-131624819D02*
X179352381Y-131624819D01*
X179352381Y-131624819D02*
X179447619Y-131577200D01*
X179447619Y-131577200D02*
X179495238Y-131529580D01*
X179495238Y-131529580D02*
X179590476Y-131386723D01*
X179590476Y-131386723D02*
X179638095Y-131196247D01*
X179638095Y-131196247D02*
X179638095Y-130815295D01*
X179638095Y-130815295D02*
X179590476Y-130720057D01*
X179590476Y-130720057D02*
X179542857Y-130672438D01*
X179542857Y-130672438D02*
X179447619Y-130624819D01*
X179447619Y-130624819D02*
X179257143Y-130624819D01*
X179257143Y-130624819D02*
X179161905Y-130672438D01*
X179161905Y-130672438D02*
X179114286Y-130720057D01*
X179114286Y-130720057D02*
X179066667Y-130815295D01*
X179066667Y-130815295D02*
X179066667Y-131053390D01*
X179066667Y-131053390D02*
X179114286Y-131148628D01*
X179114286Y-131148628D02*
X179161905Y-131196247D01*
X179161905Y-131196247D02*
X179257143Y-131243866D01*
X179257143Y-131243866D02*
X179447619Y-131243866D01*
X179447619Y-131243866D02*
X179542857Y-131196247D01*
X179542857Y-131196247D02*
X179590476Y-131148628D01*
X179590476Y-131148628D02*
X179638095Y-131053390D01*
X144480952Y-101559580D02*
X144433333Y-101607200D01*
X144433333Y-101607200D02*
X144290476Y-101654819D01*
X144290476Y-101654819D02*
X144195238Y-101654819D01*
X144195238Y-101654819D02*
X144052381Y-101607200D01*
X144052381Y-101607200D02*
X143957143Y-101511961D01*
X143957143Y-101511961D02*
X143909524Y-101416723D01*
X143909524Y-101416723D02*
X143861905Y-101226247D01*
X143861905Y-101226247D02*
X143861905Y-101083390D01*
X143861905Y-101083390D02*
X143909524Y-100892914D01*
X143909524Y-100892914D02*
X143957143Y-100797676D01*
X143957143Y-100797676D02*
X144052381Y-100702438D01*
X144052381Y-100702438D02*
X144195238Y-100654819D01*
X144195238Y-100654819D02*
X144290476Y-100654819D01*
X144290476Y-100654819D02*
X144433333Y-100702438D01*
X144433333Y-100702438D02*
X144480952Y-100750057D01*
X145433333Y-101654819D02*
X144861905Y-101654819D01*
X145147619Y-101654819D02*
X145147619Y-100654819D01*
X145147619Y-100654819D02*
X145052381Y-100797676D01*
X145052381Y-100797676D02*
X144957143Y-100892914D01*
X144957143Y-100892914D02*
X144861905Y-100940533D01*
X146052381Y-100654819D02*
X146147619Y-100654819D01*
X146147619Y-100654819D02*
X146242857Y-100702438D01*
X146242857Y-100702438D02*
X146290476Y-100750057D01*
X146290476Y-100750057D02*
X146338095Y-100845295D01*
X146338095Y-100845295D02*
X146385714Y-101035771D01*
X146385714Y-101035771D02*
X146385714Y-101273866D01*
X146385714Y-101273866D02*
X146338095Y-101464342D01*
X146338095Y-101464342D02*
X146290476Y-101559580D01*
X146290476Y-101559580D02*
X146242857Y-101607200D01*
X146242857Y-101607200D02*
X146147619Y-101654819D01*
X146147619Y-101654819D02*
X146052381Y-101654819D01*
X146052381Y-101654819D02*
X145957143Y-101607200D01*
X145957143Y-101607200D02*
X145909524Y-101559580D01*
X145909524Y-101559580D02*
X145861905Y-101464342D01*
X145861905Y-101464342D02*
X145814286Y-101273866D01*
X145814286Y-101273866D02*
X145814286Y-101035771D01*
X145814286Y-101035771D02*
X145861905Y-100845295D01*
X145861905Y-100845295D02*
X145909524Y-100750057D01*
X145909524Y-100750057D02*
X145957143Y-100702438D01*
X145957143Y-100702438D02*
X146052381Y-100654819D01*
X146719048Y-100654819D02*
X147338095Y-100654819D01*
X147338095Y-100654819D02*
X147004762Y-101035771D01*
X147004762Y-101035771D02*
X147147619Y-101035771D01*
X147147619Y-101035771D02*
X147242857Y-101083390D01*
X147242857Y-101083390D02*
X147290476Y-101131009D01*
X147290476Y-101131009D02*
X147338095Y-101226247D01*
X147338095Y-101226247D02*
X147338095Y-101464342D01*
X147338095Y-101464342D02*
X147290476Y-101559580D01*
X147290476Y-101559580D02*
X147242857Y-101607200D01*
X147242857Y-101607200D02*
X147147619Y-101654819D01*
X147147619Y-101654819D02*
X146861905Y-101654819D01*
X146861905Y-101654819D02*
X146766667Y-101607200D01*
X146766667Y-101607200D02*
X146719048Y-101559580D01*
X143918452Y-110159580D02*
X143870833Y-110207200D01*
X143870833Y-110207200D02*
X143727976Y-110254819D01*
X143727976Y-110254819D02*
X143632738Y-110254819D01*
X143632738Y-110254819D02*
X143489881Y-110207200D01*
X143489881Y-110207200D02*
X143394643Y-110111961D01*
X143394643Y-110111961D02*
X143347024Y-110016723D01*
X143347024Y-110016723D02*
X143299405Y-109826247D01*
X143299405Y-109826247D02*
X143299405Y-109683390D01*
X143299405Y-109683390D02*
X143347024Y-109492914D01*
X143347024Y-109492914D02*
X143394643Y-109397676D01*
X143394643Y-109397676D02*
X143489881Y-109302438D01*
X143489881Y-109302438D02*
X143632738Y-109254819D01*
X143632738Y-109254819D02*
X143727976Y-109254819D01*
X143727976Y-109254819D02*
X143870833Y-109302438D01*
X143870833Y-109302438D02*
X143918452Y-109350057D01*
X144870833Y-110254819D02*
X144299405Y-110254819D01*
X144585119Y-110254819D02*
X144585119Y-109254819D01*
X144585119Y-109254819D02*
X144489881Y-109397676D01*
X144489881Y-109397676D02*
X144394643Y-109492914D01*
X144394643Y-109492914D02*
X144299405Y-109540533D01*
X145489881Y-109254819D02*
X145585119Y-109254819D01*
X145585119Y-109254819D02*
X145680357Y-109302438D01*
X145680357Y-109302438D02*
X145727976Y-109350057D01*
X145727976Y-109350057D02*
X145775595Y-109445295D01*
X145775595Y-109445295D02*
X145823214Y-109635771D01*
X145823214Y-109635771D02*
X145823214Y-109873866D01*
X145823214Y-109873866D02*
X145775595Y-110064342D01*
X145775595Y-110064342D02*
X145727976Y-110159580D01*
X145727976Y-110159580D02*
X145680357Y-110207200D01*
X145680357Y-110207200D02*
X145585119Y-110254819D01*
X145585119Y-110254819D02*
X145489881Y-110254819D01*
X145489881Y-110254819D02*
X145394643Y-110207200D01*
X145394643Y-110207200D02*
X145347024Y-110159580D01*
X145347024Y-110159580D02*
X145299405Y-110064342D01*
X145299405Y-110064342D02*
X145251786Y-109873866D01*
X145251786Y-109873866D02*
X145251786Y-109635771D01*
X145251786Y-109635771D02*
X145299405Y-109445295D01*
X145299405Y-109445295D02*
X145347024Y-109350057D01*
X145347024Y-109350057D02*
X145394643Y-109302438D01*
X145394643Y-109302438D02*
X145489881Y-109254819D01*
X146680357Y-109254819D02*
X146489881Y-109254819D01*
X146489881Y-109254819D02*
X146394643Y-109302438D01*
X146394643Y-109302438D02*
X146347024Y-109350057D01*
X146347024Y-109350057D02*
X146251786Y-109492914D01*
X146251786Y-109492914D02*
X146204167Y-109683390D01*
X146204167Y-109683390D02*
X146204167Y-110064342D01*
X146204167Y-110064342D02*
X146251786Y-110159580D01*
X146251786Y-110159580D02*
X146299405Y-110207200D01*
X146299405Y-110207200D02*
X146394643Y-110254819D01*
X146394643Y-110254819D02*
X146585119Y-110254819D01*
X146585119Y-110254819D02*
X146680357Y-110207200D01*
X146680357Y-110207200D02*
X146727976Y-110159580D01*
X146727976Y-110159580D02*
X146775595Y-110064342D01*
X146775595Y-110064342D02*
X146775595Y-109826247D01*
X146775595Y-109826247D02*
X146727976Y-109731009D01*
X146727976Y-109731009D02*
X146680357Y-109683390D01*
X146680357Y-109683390D02*
X146585119Y-109635771D01*
X146585119Y-109635771D02*
X146394643Y-109635771D01*
X146394643Y-109635771D02*
X146299405Y-109683390D01*
X146299405Y-109683390D02*
X146251786Y-109731009D01*
X146251786Y-109731009D02*
X146204167Y-109826247D01*
X191597080Y-107581547D02*
X191644700Y-107629166D01*
X191644700Y-107629166D02*
X191692319Y-107772023D01*
X191692319Y-107772023D02*
X191692319Y-107867261D01*
X191692319Y-107867261D02*
X191644700Y-108010118D01*
X191644700Y-108010118D02*
X191549461Y-108105356D01*
X191549461Y-108105356D02*
X191454223Y-108152975D01*
X191454223Y-108152975D02*
X191263747Y-108200594D01*
X191263747Y-108200594D02*
X191120890Y-108200594D01*
X191120890Y-108200594D02*
X190930414Y-108152975D01*
X190930414Y-108152975D02*
X190835176Y-108105356D01*
X190835176Y-108105356D02*
X190739938Y-108010118D01*
X190739938Y-108010118D02*
X190692319Y-107867261D01*
X190692319Y-107867261D02*
X190692319Y-107772023D01*
X190692319Y-107772023D02*
X190739938Y-107629166D01*
X190739938Y-107629166D02*
X190787557Y-107581547D01*
X191692319Y-106629166D02*
X191692319Y-107200594D01*
X191692319Y-106914880D02*
X190692319Y-106914880D01*
X190692319Y-106914880D02*
X190835176Y-107010118D01*
X190835176Y-107010118D02*
X190930414Y-107105356D01*
X190930414Y-107105356D02*
X190978033Y-107200594D01*
X190692319Y-106010118D02*
X190692319Y-105914880D01*
X190692319Y-105914880D02*
X190739938Y-105819642D01*
X190739938Y-105819642D02*
X190787557Y-105772023D01*
X190787557Y-105772023D02*
X190882795Y-105724404D01*
X190882795Y-105724404D02*
X191073271Y-105676785D01*
X191073271Y-105676785D02*
X191311366Y-105676785D01*
X191311366Y-105676785D02*
X191501842Y-105724404D01*
X191501842Y-105724404D02*
X191597080Y-105772023D01*
X191597080Y-105772023D02*
X191644700Y-105819642D01*
X191644700Y-105819642D02*
X191692319Y-105914880D01*
X191692319Y-105914880D02*
X191692319Y-106010118D01*
X191692319Y-106010118D02*
X191644700Y-106105356D01*
X191644700Y-106105356D02*
X191597080Y-106152975D01*
X191597080Y-106152975D02*
X191501842Y-106200594D01*
X191501842Y-106200594D02*
X191311366Y-106248213D01*
X191311366Y-106248213D02*
X191073271Y-106248213D01*
X191073271Y-106248213D02*
X190882795Y-106200594D01*
X190882795Y-106200594D02*
X190787557Y-106152975D01*
X190787557Y-106152975D02*
X190739938Y-106105356D01*
X190739938Y-106105356D02*
X190692319Y-106010118D01*
X191120890Y-105105356D02*
X191073271Y-105200594D01*
X191073271Y-105200594D02*
X191025652Y-105248213D01*
X191025652Y-105248213D02*
X190930414Y-105295832D01*
X190930414Y-105295832D02*
X190882795Y-105295832D01*
X190882795Y-105295832D02*
X190787557Y-105248213D01*
X190787557Y-105248213D02*
X190739938Y-105200594D01*
X190739938Y-105200594D02*
X190692319Y-105105356D01*
X190692319Y-105105356D02*
X190692319Y-104914880D01*
X190692319Y-104914880D02*
X190739938Y-104819642D01*
X190739938Y-104819642D02*
X190787557Y-104772023D01*
X190787557Y-104772023D02*
X190882795Y-104724404D01*
X190882795Y-104724404D02*
X190930414Y-104724404D01*
X190930414Y-104724404D02*
X191025652Y-104772023D01*
X191025652Y-104772023D02*
X191073271Y-104819642D01*
X191073271Y-104819642D02*
X191120890Y-104914880D01*
X191120890Y-104914880D02*
X191120890Y-105105356D01*
X191120890Y-105105356D02*
X191168509Y-105200594D01*
X191168509Y-105200594D02*
X191216128Y-105248213D01*
X191216128Y-105248213D02*
X191311366Y-105295832D01*
X191311366Y-105295832D02*
X191501842Y-105295832D01*
X191501842Y-105295832D02*
X191597080Y-105248213D01*
X191597080Y-105248213D02*
X191644700Y-105200594D01*
X191644700Y-105200594D02*
X191692319Y-105105356D01*
X191692319Y-105105356D02*
X191692319Y-104914880D01*
X191692319Y-104914880D02*
X191644700Y-104819642D01*
X191644700Y-104819642D02*
X191597080Y-104772023D01*
X191597080Y-104772023D02*
X191501842Y-104724404D01*
X191501842Y-104724404D02*
X191311366Y-104724404D01*
X191311366Y-104724404D02*
X191216128Y-104772023D01*
X191216128Y-104772023D02*
X191168509Y-104819642D01*
X191168509Y-104819642D02*
X191120890Y-104914880D01*
X124609580Y-109119047D02*
X124657200Y-109166666D01*
X124657200Y-109166666D02*
X124704819Y-109309523D01*
X124704819Y-109309523D02*
X124704819Y-109404761D01*
X124704819Y-109404761D02*
X124657200Y-109547618D01*
X124657200Y-109547618D02*
X124561961Y-109642856D01*
X124561961Y-109642856D02*
X124466723Y-109690475D01*
X124466723Y-109690475D02*
X124276247Y-109738094D01*
X124276247Y-109738094D02*
X124133390Y-109738094D01*
X124133390Y-109738094D02*
X123942914Y-109690475D01*
X123942914Y-109690475D02*
X123847676Y-109642856D01*
X123847676Y-109642856D02*
X123752438Y-109547618D01*
X123752438Y-109547618D02*
X123704819Y-109404761D01*
X123704819Y-109404761D02*
X123704819Y-109309523D01*
X123704819Y-109309523D02*
X123752438Y-109166666D01*
X123752438Y-109166666D02*
X123800057Y-109119047D01*
X124704819Y-108166666D02*
X124704819Y-108738094D01*
X124704819Y-108452380D02*
X123704819Y-108452380D01*
X123704819Y-108452380D02*
X123847676Y-108547618D01*
X123847676Y-108547618D02*
X123942914Y-108642856D01*
X123942914Y-108642856D02*
X123990533Y-108738094D01*
X124704819Y-107214285D02*
X124704819Y-107785713D01*
X124704819Y-107499999D02*
X123704819Y-107499999D01*
X123704819Y-107499999D02*
X123847676Y-107595237D01*
X123847676Y-107595237D02*
X123942914Y-107690475D01*
X123942914Y-107690475D02*
X123990533Y-107785713D01*
X123704819Y-106595237D02*
X123704819Y-106499999D01*
X123704819Y-106499999D02*
X123752438Y-106404761D01*
X123752438Y-106404761D02*
X123800057Y-106357142D01*
X123800057Y-106357142D02*
X123895295Y-106309523D01*
X123895295Y-106309523D02*
X124085771Y-106261904D01*
X124085771Y-106261904D02*
X124323866Y-106261904D01*
X124323866Y-106261904D02*
X124514342Y-106309523D01*
X124514342Y-106309523D02*
X124609580Y-106357142D01*
X124609580Y-106357142D02*
X124657200Y-106404761D01*
X124657200Y-106404761D02*
X124704819Y-106499999D01*
X124704819Y-106499999D02*
X124704819Y-106595237D01*
X124704819Y-106595237D02*
X124657200Y-106690475D01*
X124657200Y-106690475D02*
X124609580Y-106738094D01*
X124609580Y-106738094D02*
X124514342Y-106785713D01*
X124514342Y-106785713D02*
X124323866Y-106833332D01*
X124323866Y-106833332D02*
X124085771Y-106833332D01*
X124085771Y-106833332D02*
X123895295Y-106785713D01*
X123895295Y-106785713D02*
X123800057Y-106738094D01*
X123800057Y-106738094D02*
X123752438Y-106690475D01*
X123752438Y-106690475D02*
X123704819Y-106595237D01*
X124914285Y-129054819D02*
X124914285Y-129769104D01*
X124914285Y-129769104D02*
X124866666Y-129911961D01*
X124866666Y-129911961D02*
X124771428Y-130007200D01*
X124771428Y-130007200D02*
X124628571Y-130054819D01*
X124628571Y-130054819D02*
X124533333Y-130054819D01*
X125914285Y-130054819D02*
X125342857Y-130054819D01*
X125628571Y-130054819D02*
X125628571Y-129054819D01*
X125628571Y-129054819D02*
X125533333Y-129197676D01*
X125533333Y-129197676D02*
X125438095Y-129292914D01*
X125438095Y-129292914D02*
X125342857Y-129340533D01*
X126533333Y-129054819D02*
X126628571Y-129054819D01*
X126628571Y-129054819D02*
X126723809Y-129102438D01*
X126723809Y-129102438D02*
X126771428Y-129150057D01*
X126771428Y-129150057D02*
X126819047Y-129245295D01*
X126819047Y-129245295D02*
X126866666Y-129435771D01*
X126866666Y-129435771D02*
X126866666Y-129673866D01*
X126866666Y-129673866D02*
X126819047Y-129864342D01*
X126819047Y-129864342D02*
X126771428Y-129959580D01*
X126771428Y-129959580D02*
X126723809Y-130007200D01*
X126723809Y-130007200D02*
X126628571Y-130054819D01*
X126628571Y-130054819D02*
X126533333Y-130054819D01*
X126533333Y-130054819D02*
X126438095Y-130007200D01*
X126438095Y-130007200D02*
X126390476Y-129959580D01*
X126390476Y-129959580D02*
X126342857Y-129864342D01*
X126342857Y-129864342D02*
X126295238Y-129673866D01*
X126295238Y-129673866D02*
X126295238Y-129435771D01*
X126295238Y-129435771D02*
X126342857Y-129245295D01*
X126342857Y-129245295D02*
X126390476Y-129150057D01*
X126390476Y-129150057D02*
X126438095Y-129102438D01*
X126438095Y-129102438D02*
X126533333Y-129054819D01*
X127723809Y-129054819D02*
X127533333Y-129054819D01*
X127533333Y-129054819D02*
X127438095Y-129102438D01*
X127438095Y-129102438D02*
X127390476Y-129150057D01*
X127390476Y-129150057D02*
X127295238Y-129292914D01*
X127295238Y-129292914D02*
X127247619Y-129483390D01*
X127247619Y-129483390D02*
X127247619Y-129864342D01*
X127247619Y-129864342D02*
X127295238Y-129959580D01*
X127295238Y-129959580D02*
X127342857Y-130007200D01*
X127342857Y-130007200D02*
X127438095Y-130054819D01*
X127438095Y-130054819D02*
X127628571Y-130054819D01*
X127628571Y-130054819D02*
X127723809Y-130007200D01*
X127723809Y-130007200D02*
X127771428Y-129959580D01*
X127771428Y-129959580D02*
X127819047Y-129864342D01*
X127819047Y-129864342D02*
X127819047Y-129626247D01*
X127819047Y-129626247D02*
X127771428Y-129531009D01*
X127771428Y-129531009D02*
X127723809Y-129483390D01*
X127723809Y-129483390D02*
X127628571Y-129435771D01*
X127628571Y-129435771D02*
X127438095Y-129435771D01*
X127438095Y-129435771D02*
X127342857Y-129483390D01*
X127342857Y-129483390D02*
X127295238Y-129531009D01*
X127295238Y-129531009D02*
X127247619Y-129626247D01*
X194180952Y-131624819D02*
X193847619Y-131148628D01*
X193609524Y-131624819D02*
X193609524Y-130624819D01*
X193609524Y-130624819D02*
X193990476Y-130624819D01*
X193990476Y-130624819D02*
X194085714Y-130672438D01*
X194085714Y-130672438D02*
X194133333Y-130720057D01*
X194133333Y-130720057D02*
X194180952Y-130815295D01*
X194180952Y-130815295D02*
X194180952Y-130958152D01*
X194180952Y-130958152D02*
X194133333Y-131053390D01*
X194133333Y-131053390D02*
X194085714Y-131101009D01*
X194085714Y-131101009D02*
X193990476Y-131148628D01*
X193990476Y-131148628D02*
X193609524Y-131148628D01*
X195133333Y-131624819D02*
X194561905Y-131624819D01*
X194847619Y-131624819D02*
X194847619Y-130624819D01*
X194847619Y-130624819D02*
X194752381Y-130767676D01*
X194752381Y-130767676D02*
X194657143Y-130862914D01*
X194657143Y-130862914D02*
X194561905Y-130910533D01*
X196085714Y-131624819D02*
X195514286Y-131624819D01*
X195800000Y-131624819D02*
X195800000Y-130624819D01*
X195800000Y-130624819D02*
X195704762Y-130767676D01*
X195704762Y-130767676D02*
X195609524Y-130862914D01*
X195609524Y-130862914D02*
X195514286Y-130910533D01*
X197038095Y-131624819D02*
X196466667Y-131624819D01*
X196752381Y-131624819D02*
X196752381Y-130624819D01*
X196752381Y-130624819D02*
X196657143Y-130767676D01*
X196657143Y-130767676D02*
X196561905Y-130862914D01*
X196561905Y-130862914D02*
X196466667Y-130910533D01*
X148280952Y-104554819D02*
X147804762Y-104554819D01*
X147804762Y-104554819D02*
X147804762Y-103554819D01*
X149138095Y-104554819D02*
X148566667Y-104554819D01*
X148852381Y-104554819D02*
X148852381Y-103554819D01*
X148852381Y-103554819D02*
X148757143Y-103697676D01*
X148757143Y-103697676D02*
X148661905Y-103792914D01*
X148661905Y-103792914D02*
X148566667Y-103840533D01*
X149757143Y-103554819D02*
X149852381Y-103554819D01*
X149852381Y-103554819D02*
X149947619Y-103602438D01*
X149947619Y-103602438D02*
X149995238Y-103650057D01*
X149995238Y-103650057D02*
X150042857Y-103745295D01*
X150042857Y-103745295D02*
X150090476Y-103935771D01*
X150090476Y-103935771D02*
X150090476Y-104173866D01*
X150090476Y-104173866D02*
X150042857Y-104364342D01*
X150042857Y-104364342D02*
X149995238Y-104459580D01*
X149995238Y-104459580D02*
X149947619Y-104507200D01*
X149947619Y-104507200D02*
X149852381Y-104554819D01*
X149852381Y-104554819D02*
X149757143Y-104554819D01*
X149757143Y-104554819D02*
X149661905Y-104507200D01*
X149661905Y-104507200D02*
X149614286Y-104459580D01*
X149614286Y-104459580D02*
X149566667Y-104364342D01*
X149566667Y-104364342D02*
X149519048Y-104173866D01*
X149519048Y-104173866D02*
X149519048Y-103935771D01*
X149519048Y-103935771D02*
X149566667Y-103745295D01*
X149566667Y-103745295D02*
X149614286Y-103650057D01*
X149614286Y-103650057D02*
X149661905Y-103602438D01*
X149661905Y-103602438D02*
X149757143Y-103554819D01*
X151042857Y-104554819D02*
X150471429Y-104554819D01*
X150757143Y-104554819D02*
X150757143Y-103554819D01*
X150757143Y-103554819D02*
X150661905Y-103697676D01*
X150661905Y-103697676D02*
X150566667Y-103792914D01*
X150566667Y-103792914D02*
X150471429Y-103840533D01*
X197400058Y-142485713D02*
X197447677Y-142342856D01*
X197447677Y-142342856D02*
X197447677Y-142104761D01*
X197447677Y-142104761D02*
X197400058Y-142009523D01*
X197400058Y-142009523D02*
X197352438Y-141961904D01*
X197352438Y-141961904D02*
X197257200Y-141914285D01*
X197257200Y-141914285D02*
X197161962Y-141914285D01*
X197161962Y-141914285D02*
X197066724Y-141961904D01*
X197066724Y-141961904D02*
X197019105Y-142009523D01*
X197019105Y-142009523D02*
X196971486Y-142104761D01*
X196971486Y-142104761D02*
X196923867Y-142295237D01*
X196923867Y-142295237D02*
X196876248Y-142390475D01*
X196876248Y-142390475D02*
X196828629Y-142438094D01*
X196828629Y-142438094D02*
X196733391Y-142485713D01*
X196733391Y-142485713D02*
X196638153Y-142485713D01*
X196638153Y-142485713D02*
X196542915Y-142438094D01*
X196542915Y-142438094D02*
X196495296Y-142390475D01*
X196495296Y-142390475D02*
X196447677Y-142295237D01*
X196447677Y-142295237D02*
X196447677Y-142057142D01*
X196447677Y-142057142D02*
X196495296Y-141914285D01*
X196447677Y-141580951D02*
X197447677Y-141342856D01*
X197447677Y-141342856D02*
X196733391Y-141152380D01*
X196733391Y-141152380D02*
X197447677Y-140961904D01*
X197447677Y-140961904D02*
X196447677Y-140723809D01*
X197447677Y-139819047D02*
X197447677Y-140390475D01*
X197447677Y-140104761D02*
X196447677Y-140104761D01*
X196447677Y-140104761D02*
X196590534Y-140199999D01*
X196590534Y-140199999D02*
X196685772Y-140295237D01*
X196685772Y-140295237D02*
X196733391Y-140390475D01*
X196447677Y-139199999D02*
X196447677Y-139104761D01*
X196447677Y-139104761D02*
X196495296Y-139009523D01*
X196495296Y-139009523D02*
X196542915Y-138961904D01*
X196542915Y-138961904D02*
X196638153Y-138914285D01*
X196638153Y-138914285D02*
X196828629Y-138866666D01*
X196828629Y-138866666D02*
X197066724Y-138866666D01*
X197066724Y-138866666D02*
X197257200Y-138914285D01*
X197257200Y-138914285D02*
X197352438Y-138961904D01*
X197352438Y-138961904D02*
X197400058Y-139009523D01*
X197400058Y-139009523D02*
X197447677Y-139104761D01*
X197447677Y-139104761D02*
X197447677Y-139199999D01*
X197447677Y-139199999D02*
X197400058Y-139295237D01*
X197400058Y-139295237D02*
X197352438Y-139342856D01*
X197352438Y-139342856D02*
X197257200Y-139390475D01*
X197257200Y-139390475D02*
X197066724Y-139438094D01*
X197066724Y-139438094D02*
X196828629Y-139438094D01*
X196828629Y-139438094D02*
X196638153Y-139390475D01*
X196638153Y-139390475D02*
X196542915Y-139342856D01*
X196542915Y-139342856D02*
X196495296Y-139295237D01*
X196495296Y-139295237D02*
X196447677Y-139199999D01*
X196781010Y-138009523D02*
X197447677Y-138009523D01*
X196400058Y-138247618D02*
X197114343Y-138485713D01*
X197114343Y-138485713D02*
X197114343Y-137866666D01*
X168318452Y-111004819D02*
X167985119Y-110528628D01*
X167747024Y-111004819D02*
X167747024Y-110004819D01*
X167747024Y-110004819D02*
X168127976Y-110004819D01*
X168127976Y-110004819D02*
X168223214Y-110052438D01*
X168223214Y-110052438D02*
X168270833Y-110100057D01*
X168270833Y-110100057D02*
X168318452Y-110195295D01*
X168318452Y-110195295D02*
X168318452Y-110338152D01*
X168318452Y-110338152D02*
X168270833Y-110433390D01*
X168270833Y-110433390D02*
X168223214Y-110481009D01*
X168223214Y-110481009D02*
X168127976Y-110528628D01*
X168127976Y-110528628D02*
X167747024Y-110528628D01*
X169270833Y-111004819D02*
X168699405Y-111004819D01*
X168985119Y-111004819D02*
X168985119Y-110004819D01*
X168985119Y-110004819D02*
X168889881Y-110147676D01*
X168889881Y-110147676D02*
X168794643Y-110242914D01*
X168794643Y-110242914D02*
X168699405Y-110290533D01*
X169889881Y-110004819D02*
X169985119Y-110004819D01*
X169985119Y-110004819D02*
X170080357Y-110052438D01*
X170080357Y-110052438D02*
X170127976Y-110100057D01*
X170127976Y-110100057D02*
X170175595Y-110195295D01*
X170175595Y-110195295D02*
X170223214Y-110385771D01*
X170223214Y-110385771D02*
X170223214Y-110623866D01*
X170223214Y-110623866D02*
X170175595Y-110814342D01*
X170175595Y-110814342D02*
X170127976Y-110909580D01*
X170127976Y-110909580D02*
X170080357Y-110957200D01*
X170080357Y-110957200D02*
X169985119Y-111004819D01*
X169985119Y-111004819D02*
X169889881Y-111004819D01*
X169889881Y-111004819D02*
X169794643Y-110957200D01*
X169794643Y-110957200D02*
X169747024Y-110909580D01*
X169747024Y-110909580D02*
X169699405Y-110814342D01*
X169699405Y-110814342D02*
X169651786Y-110623866D01*
X169651786Y-110623866D02*
X169651786Y-110385771D01*
X169651786Y-110385771D02*
X169699405Y-110195295D01*
X169699405Y-110195295D02*
X169747024Y-110100057D01*
X169747024Y-110100057D02*
X169794643Y-110052438D01*
X169794643Y-110052438D02*
X169889881Y-110004819D01*
X171080357Y-110338152D02*
X171080357Y-111004819D01*
X170842262Y-109957200D02*
X170604167Y-110671485D01*
X170604167Y-110671485D02*
X171223214Y-110671485D01*
X185804819Y-142485713D02*
X185852438Y-142342856D01*
X185852438Y-142342856D02*
X185852438Y-142104761D01*
X185852438Y-142104761D02*
X185804819Y-142009523D01*
X185804819Y-142009523D02*
X185757199Y-141961904D01*
X185757199Y-141961904D02*
X185661961Y-141914285D01*
X185661961Y-141914285D02*
X185566723Y-141914285D01*
X185566723Y-141914285D02*
X185471485Y-141961904D01*
X185471485Y-141961904D02*
X185423866Y-142009523D01*
X185423866Y-142009523D02*
X185376247Y-142104761D01*
X185376247Y-142104761D02*
X185328628Y-142295237D01*
X185328628Y-142295237D02*
X185281009Y-142390475D01*
X185281009Y-142390475D02*
X185233390Y-142438094D01*
X185233390Y-142438094D02*
X185138152Y-142485713D01*
X185138152Y-142485713D02*
X185042914Y-142485713D01*
X185042914Y-142485713D02*
X184947676Y-142438094D01*
X184947676Y-142438094D02*
X184900057Y-142390475D01*
X184900057Y-142390475D02*
X184852438Y-142295237D01*
X184852438Y-142295237D02*
X184852438Y-142057142D01*
X184852438Y-142057142D02*
X184900057Y-141914285D01*
X184852438Y-141580951D02*
X185852438Y-141342856D01*
X185852438Y-141342856D02*
X185138152Y-141152380D01*
X185138152Y-141152380D02*
X185852438Y-140961904D01*
X185852438Y-140961904D02*
X184852438Y-140723809D01*
X185852438Y-139819047D02*
X185852438Y-140390475D01*
X185852438Y-140104761D02*
X184852438Y-140104761D01*
X184852438Y-140104761D02*
X184995295Y-140199999D01*
X184995295Y-140199999D02*
X185090533Y-140295237D01*
X185090533Y-140295237D02*
X185138152Y-140390475D01*
X184852438Y-139199999D02*
X184852438Y-139104761D01*
X184852438Y-139104761D02*
X184900057Y-139009523D01*
X184900057Y-139009523D02*
X184947676Y-138961904D01*
X184947676Y-138961904D02*
X185042914Y-138914285D01*
X185042914Y-138914285D02*
X185233390Y-138866666D01*
X185233390Y-138866666D02*
X185471485Y-138866666D01*
X185471485Y-138866666D02*
X185661961Y-138914285D01*
X185661961Y-138914285D02*
X185757199Y-138961904D01*
X185757199Y-138961904D02*
X185804819Y-139009523D01*
X185804819Y-139009523D02*
X185852438Y-139104761D01*
X185852438Y-139104761D02*
X185852438Y-139199999D01*
X185852438Y-139199999D02*
X185804819Y-139295237D01*
X185804819Y-139295237D02*
X185757199Y-139342856D01*
X185757199Y-139342856D02*
X185661961Y-139390475D01*
X185661961Y-139390475D02*
X185471485Y-139438094D01*
X185471485Y-139438094D02*
X185233390Y-139438094D01*
X185233390Y-139438094D02*
X185042914Y-139390475D01*
X185042914Y-139390475D02*
X184947676Y-139342856D01*
X184947676Y-139342856D02*
X184900057Y-139295237D01*
X184900057Y-139295237D02*
X184852438Y-139199999D01*
X185852438Y-137914285D02*
X185852438Y-138485713D01*
X185852438Y-138199999D02*
X184852438Y-138199999D01*
X184852438Y-138199999D02*
X184995295Y-138295237D01*
X184995295Y-138295237D02*
X185090533Y-138390475D01*
X185090533Y-138390475D02*
X185138152Y-138485713D01*
X124914285Y-116354819D02*
X124914285Y-117069104D01*
X124914285Y-117069104D02*
X124866666Y-117211961D01*
X124866666Y-117211961D02*
X124771428Y-117307200D01*
X124771428Y-117307200D02*
X124628571Y-117354819D01*
X124628571Y-117354819D02*
X124533333Y-117354819D01*
X125914285Y-117354819D02*
X125342857Y-117354819D01*
X125628571Y-117354819D02*
X125628571Y-116354819D01*
X125628571Y-116354819D02*
X125533333Y-116497676D01*
X125533333Y-116497676D02*
X125438095Y-116592914D01*
X125438095Y-116592914D02*
X125342857Y-116640533D01*
X126533333Y-116354819D02*
X126628571Y-116354819D01*
X126628571Y-116354819D02*
X126723809Y-116402438D01*
X126723809Y-116402438D02*
X126771428Y-116450057D01*
X126771428Y-116450057D02*
X126819047Y-116545295D01*
X126819047Y-116545295D02*
X126866666Y-116735771D01*
X126866666Y-116735771D02*
X126866666Y-116973866D01*
X126866666Y-116973866D02*
X126819047Y-117164342D01*
X126819047Y-117164342D02*
X126771428Y-117259580D01*
X126771428Y-117259580D02*
X126723809Y-117307200D01*
X126723809Y-117307200D02*
X126628571Y-117354819D01*
X126628571Y-117354819D02*
X126533333Y-117354819D01*
X126533333Y-117354819D02*
X126438095Y-117307200D01*
X126438095Y-117307200D02*
X126390476Y-117259580D01*
X126390476Y-117259580D02*
X126342857Y-117164342D01*
X126342857Y-117164342D02*
X126295238Y-116973866D01*
X126295238Y-116973866D02*
X126295238Y-116735771D01*
X126295238Y-116735771D02*
X126342857Y-116545295D01*
X126342857Y-116545295D02*
X126390476Y-116450057D01*
X126390476Y-116450057D02*
X126438095Y-116402438D01*
X126438095Y-116402438D02*
X126533333Y-116354819D01*
X127438095Y-116783390D02*
X127342857Y-116735771D01*
X127342857Y-116735771D02*
X127295238Y-116688152D01*
X127295238Y-116688152D02*
X127247619Y-116592914D01*
X127247619Y-116592914D02*
X127247619Y-116545295D01*
X127247619Y-116545295D02*
X127295238Y-116450057D01*
X127295238Y-116450057D02*
X127342857Y-116402438D01*
X127342857Y-116402438D02*
X127438095Y-116354819D01*
X127438095Y-116354819D02*
X127628571Y-116354819D01*
X127628571Y-116354819D02*
X127723809Y-116402438D01*
X127723809Y-116402438D02*
X127771428Y-116450057D01*
X127771428Y-116450057D02*
X127819047Y-116545295D01*
X127819047Y-116545295D02*
X127819047Y-116592914D01*
X127819047Y-116592914D02*
X127771428Y-116688152D01*
X127771428Y-116688152D02*
X127723809Y-116735771D01*
X127723809Y-116735771D02*
X127628571Y-116783390D01*
X127628571Y-116783390D02*
X127438095Y-116783390D01*
X127438095Y-116783390D02*
X127342857Y-116831009D01*
X127342857Y-116831009D02*
X127295238Y-116878628D01*
X127295238Y-116878628D02*
X127247619Y-116973866D01*
X127247619Y-116973866D02*
X127247619Y-117164342D01*
X127247619Y-117164342D02*
X127295238Y-117259580D01*
X127295238Y-117259580D02*
X127342857Y-117307200D01*
X127342857Y-117307200D02*
X127438095Y-117354819D01*
X127438095Y-117354819D02*
X127628571Y-117354819D01*
X127628571Y-117354819D02*
X127723809Y-117307200D01*
X127723809Y-117307200D02*
X127771428Y-117259580D01*
X127771428Y-117259580D02*
X127819047Y-117164342D01*
X127819047Y-117164342D02*
X127819047Y-116973866D01*
X127819047Y-116973866D02*
X127771428Y-116878628D01*
X127771428Y-116878628D02*
X127723809Y-116831009D01*
X127723809Y-116831009D02*
X127628571Y-116783390D01*
X154269229Y-105964758D02*
X154316849Y-106012377D01*
X154316849Y-106012377D02*
X154364468Y-106155234D01*
X154364468Y-106155234D02*
X154364468Y-106250472D01*
X154364468Y-106250472D02*
X154316849Y-106393329D01*
X154316849Y-106393329D02*
X154221610Y-106488567D01*
X154221610Y-106488567D02*
X154126372Y-106536186D01*
X154126372Y-106536186D02*
X153935896Y-106583805D01*
X153935896Y-106583805D02*
X153793039Y-106583805D01*
X153793039Y-106583805D02*
X153602563Y-106536186D01*
X153602563Y-106536186D02*
X153507325Y-106488567D01*
X153507325Y-106488567D02*
X153412087Y-106393329D01*
X153412087Y-106393329D02*
X153364468Y-106250472D01*
X153364468Y-106250472D02*
X153364468Y-106155234D01*
X153364468Y-106155234D02*
X153412087Y-106012377D01*
X153412087Y-106012377D02*
X153459706Y-105964758D01*
X154364468Y-105012377D02*
X154364468Y-105583805D01*
X154364468Y-105298091D02*
X153364468Y-105298091D01*
X153364468Y-105298091D02*
X153507325Y-105393329D01*
X153507325Y-105393329D02*
X153602563Y-105488567D01*
X153602563Y-105488567D02*
X153650182Y-105583805D01*
X154364468Y-104059996D02*
X154364468Y-104631424D01*
X154364468Y-104345710D02*
X153364468Y-104345710D01*
X153364468Y-104345710D02*
X153507325Y-104440948D01*
X153507325Y-104440948D02*
X153602563Y-104536186D01*
X153602563Y-104536186D02*
X153650182Y-104631424D01*
X153364468Y-103202853D02*
X153364468Y-103393329D01*
X153364468Y-103393329D02*
X153412087Y-103488567D01*
X153412087Y-103488567D02*
X153459706Y-103536186D01*
X153459706Y-103536186D02*
X153602563Y-103631424D01*
X153602563Y-103631424D02*
X153793039Y-103679043D01*
X153793039Y-103679043D02*
X154173991Y-103679043D01*
X154173991Y-103679043D02*
X154269229Y-103631424D01*
X154269229Y-103631424D02*
X154316849Y-103583805D01*
X154316849Y-103583805D02*
X154364468Y-103488567D01*
X154364468Y-103488567D02*
X154364468Y-103298091D01*
X154364468Y-103298091D02*
X154316849Y-103202853D01*
X154316849Y-103202853D02*
X154269229Y-103155234D01*
X154269229Y-103155234D02*
X154173991Y-103107615D01*
X154173991Y-103107615D02*
X153935896Y-103107615D01*
X153935896Y-103107615D02*
X153840658Y-103155234D01*
X153840658Y-103155234D02*
X153793039Y-103202853D01*
X153793039Y-103202853D02*
X153745420Y-103298091D01*
X153745420Y-103298091D02*
X153745420Y-103488567D01*
X153745420Y-103488567D02*
X153793039Y-103583805D01*
X153793039Y-103583805D02*
X153840658Y-103631424D01*
X153840658Y-103631424D02*
X153935896Y-103679043D01*
X153979580Y-107531547D02*
X154027200Y-107579166D01*
X154027200Y-107579166D02*
X154074819Y-107722023D01*
X154074819Y-107722023D02*
X154074819Y-107817261D01*
X154074819Y-107817261D02*
X154027200Y-107960118D01*
X154027200Y-107960118D02*
X153931961Y-108055356D01*
X153931961Y-108055356D02*
X153836723Y-108102975D01*
X153836723Y-108102975D02*
X153646247Y-108150594D01*
X153646247Y-108150594D02*
X153503390Y-108150594D01*
X153503390Y-108150594D02*
X153312914Y-108102975D01*
X153312914Y-108102975D02*
X153217676Y-108055356D01*
X153217676Y-108055356D02*
X153122438Y-107960118D01*
X153122438Y-107960118D02*
X153074819Y-107817261D01*
X153074819Y-107817261D02*
X153074819Y-107722023D01*
X153074819Y-107722023D02*
X153122438Y-107579166D01*
X153122438Y-107579166D02*
X153170057Y-107531547D01*
X154074819Y-106579166D02*
X154074819Y-107150594D01*
X154074819Y-106864880D02*
X153074819Y-106864880D01*
X153074819Y-106864880D02*
X153217676Y-106960118D01*
X153217676Y-106960118D02*
X153312914Y-107055356D01*
X153312914Y-107055356D02*
X153360533Y-107150594D01*
X153074819Y-105960118D02*
X153074819Y-105864880D01*
X153074819Y-105864880D02*
X153122438Y-105769642D01*
X153122438Y-105769642D02*
X153170057Y-105722023D01*
X153170057Y-105722023D02*
X153265295Y-105674404D01*
X153265295Y-105674404D02*
X153455771Y-105626785D01*
X153455771Y-105626785D02*
X153693866Y-105626785D01*
X153693866Y-105626785D02*
X153884342Y-105674404D01*
X153884342Y-105674404D02*
X153979580Y-105722023D01*
X153979580Y-105722023D02*
X154027200Y-105769642D01*
X154027200Y-105769642D02*
X154074819Y-105864880D01*
X154074819Y-105864880D02*
X154074819Y-105960118D01*
X154074819Y-105960118D02*
X154027200Y-106055356D01*
X154027200Y-106055356D02*
X153979580Y-106102975D01*
X153979580Y-106102975D02*
X153884342Y-106150594D01*
X153884342Y-106150594D02*
X153693866Y-106198213D01*
X153693866Y-106198213D02*
X153455771Y-106198213D01*
X153455771Y-106198213D02*
X153265295Y-106150594D01*
X153265295Y-106150594D02*
X153170057Y-106102975D01*
X153170057Y-106102975D02*
X153122438Y-106055356D01*
X153122438Y-106055356D02*
X153074819Y-105960118D01*
X153074819Y-105293451D02*
X153074819Y-104626785D01*
X153074819Y-104626785D02*
X154074819Y-105055356D01*
X169485714Y-112854819D02*
X169485714Y-113664342D01*
X169485714Y-113664342D02*
X169533333Y-113759580D01*
X169533333Y-113759580D02*
X169580952Y-113807200D01*
X169580952Y-113807200D02*
X169676190Y-113854819D01*
X169676190Y-113854819D02*
X169866666Y-113854819D01*
X169866666Y-113854819D02*
X169961904Y-113807200D01*
X169961904Y-113807200D02*
X170009523Y-113759580D01*
X170009523Y-113759580D02*
X170057142Y-113664342D01*
X170057142Y-113664342D02*
X170057142Y-112854819D01*
X171057142Y-113854819D02*
X170485714Y-113854819D01*
X170771428Y-113854819D02*
X170771428Y-112854819D01*
X170771428Y-112854819D02*
X170676190Y-112997676D01*
X170676190Y-112997676D02*
X170580952Y-113092914D01*
X170580952Y-113092914D02*
X170485714Y-113140533D01*
X171676190Y-112854819D02*
X171771428Y-112854819D01*
X171771428Y-112854819D02*
X171866666Y-112902438D01*
X171866666Y-112902438D02*
X171914285Y-112950057D01*
X171914285Y-112950057D02*
X171961904Y-113045295D01*
X171961904Y-113045295D02*
X172009523Y-113235771D01*
X172009523Y-113235771D02*
X172009523Y-113473866D01*
X172009523Y-113473866D02*
X171961904Y-113664342D01*
X171961904Y-113664342D02*
X171914285Y-113759580D01*
X171914285Y-113759580D02*
X171866666Y-113807200D01*
X171866666Y-113807200D02*
X171771428Y-113854819D01*
X171771428Y-113854819D02*
X171676190Y-113854819D01*
X171676190Y-113854819D02*
X171580952Y-113807200D01*
X171580952Y-113807200D02*
X171533333Y-113759580D01*
X171533333Y-113759580D02*
X171485714Y-113664342D01*
X171485714Y-113664342D02*
X171438095Y-113473866D01*
X171438095Y-113473866D02*
X171438095Y-113235771D01*
X171438095Y-113235771D02*
X171485714Y-113045295D01*
X171485714Y-113045295D02*
X171533333Y-112950057D01*
X171533333Y-112950057D02*
X171580952Y-112902438D01*
X171580952Y-112902438D02*
X171676190Y-112854819D01*
X172866666Y-113188152D02*
X172866666Y-113854819D01*
X172628571Y-112807200D02*
X172390476Y-113521485D01*
X172390476Y-113521485D02*
X173009523Y-113521485D01*
X150930952Y-101509580D02*
X150883333Y-101557200D01*
X150883333Y-101557200D02*
X150740476Y-101604819D01*
X150740476Y-101604819D02*
X150645238Y-101604819D01*
X150645238Y-101604819D02*
X150502381Y-101557200D01*
X150502381Y-101557200D02*
X150407143Y-101461961D01*
X150407143Y-101461961D02*
X150359524Y-101366723D01*
X150359524Y-101366723D02*
X150311905Y-101176247D01*
X150311905Y-101176247D02*
X150311905Y-101033390D01*
X150311905Y-101033390D02*
X150359524Y-100842914D01*
X150359524Y-100842914D02*
X150407143Y-100747676D01*
X150407143Y-100747676D02*
X150502381Y-100652438D01*
X150502381Y-100652438D02*
X150645238Y-100604819D01*
X150645238Y-100604819D02*
X150740476Y-100604819D01*
X150740476Y-100604819D02*
X150883333Y-100652438D01*
X150883333Y-100652438D02*
X150930952Y-100700057D01*
X151883333Y-101604819D02*
X151311905Y-101604819D01*
X151597619Y-101604819D02*
X151597619Y-100604819D01*
X151597619Y-100604819D02*
X151502381Y-100747676D01*
X151502381Y-100747676D02*
X151407143Y-100842914D01*
X151407143Y-100842914D02*
X151311905Y-100890533D01*
X152835714Y-101604819D02*
X152264286Y-101604819D01*
X152550000Y-101604819D02*
X152550000Y-100604819D01*
X152550000Y-100604819D02*
X152454762Y-100747676D01*
X152454762Y-100747676D02*
X152359524Y-100842914D01*
X152359524Y-100842914D02*
X152264286Y-100890533D01*
X153169048Y-100604819D02*
X153788095Y-100604819D01*
X153788095Y-100604819D02*
X153454762Y-100985771D01*
X153454762Y-100985771D02*
X153597619Y-100985771D01*
X153597619Y-100985771D02*
X153692857Y-101033390D01*
X153692857Y-101033390D02*
X153740476Y-101081009D01*
X153740476Y-101081009D02*
X153788095Y-101176247D01*
X153788095Y-101176247D02*
X153788095Y-101414342D01*
X153788095Y-101414342D02*
X153740476Y-101509580D01*
X153740476Y-101509580D02*
X153692857Y-101557200D01*
X153692857Y-101557200D02*
X153597619Y-101604819D01*
X153597619Y-101604819D02*
X153311905Y-101604819D01*
X153311905Y-101604819D02*
X153216667Y-101557200D01*
X153216667Y-101557200D02*
X153169048Y-101509580D01*
X186243452Y-102919580D02*
X186195833Y-102967200D01*
X186195833Y-102967200D02*
X186052976Y-103014819D01*
X186052976Y-103014819D02*
X185957738Y-103014819D01*
X185957738Y-103014819D02*
X185814881Y-102967200D01*
X185814881Y-102967200D02*
X185719643Y-102871961D01*
X185719643Y-102871961D02*
X185672024Y-102776723D01*
X185672024Y-102776723D02*
X185624405Y-102586247D01*
X185624405Y-102586247D02*
X185624405Y-102443390D01*
X185624405Y-102443390D02*
X185672024Y-102252914D01*
X185672024Y-102252914D02*
X185719643Y-102157676D01*
X185719643Y-102157676D02*
X185814881Y-102062438D01*
X185814881Y-102062438D02*
X185957738Y-102014819D01*
X185957738Y-102014819D02*
X186052976Y-102014819D01*
X186052976Y-102014819D02*
X186195833Y-102062438D01*
X186195833Y-102062438D02*
X186243452Y-102110057D01*
X187195833Y-103014819D02*
X186624405Y-103014819D01*
X186910119Y-103014819D02*
X186910119Y-102014819D01*
X186910119Y-102014819D02*
X186814881Y-102157676D01*
X186814881Y-102157676D02*
X186719643Y-102252914D01*
X186719643Y-102252914D02*
X186624405Y-102300533D01*
X187814881Y-102014819D02*
X187910119Y-102014819D01*
X187910119Y-102014819D02*
X188005357Y-102062438D01*
X188005357Y-102062438D02*
X188052976Y-102110057D01*
X188052976Y-102110057D02*
X188100595Y-102205295D01*
X188100595Y-102205295D02*
X188148214Y-102395771D01*
X188148214Y-102395771D02*
X188148214Y-102633866D01*
X188148214Y-102633866D02*
X188100595Y-102824342D01*
X188100595Y-102824342D02*
X188052976Y-102919580D01*
X188052976Y-102919580D02*
X188005357Y-102967200D01*
X188005357Y-102967200D02*
X187910119Y-103014819D01*
X187910119Y-103014819D02*
X187814881Y-103014819D01*
X187814881Y-103014819D02*
X187719643Y-102967200D01*
X187719643Y-102967200D02*
X187672024Y-102919580D01*
X187672024Y-102919580D02*
X187624405Y-102824342D01*
X187624405Y-102824342D02*
X187576786Y-102633866D01*
X187576786Y-102633866D02*
X187576786Y-102395771D01*
X187576786Y-102395771D02*
X187624405Y-102205295D01*
X187624405Y-102205295D02*
X187672024Y-102110057D01*
X187672024Y-102110057D02*
X187719643Y-102062438D01*
X187719643Y-102062438D02*
X187814881Y-102014819D01*
X188529167Y-102110057D02*
X188576786Y-102062438D01*
X188576786Y-102062438D02*
X188672024Y-102014819D01*
X188672024Y-102014819D02*
X188910119Y-102014819D01*
X188910119Y-102014819D02*
X189005357Y-102062438D01*
X189005357Y-102062438D02*
X189052976Y-102110057D01*
X189052976Y-102110057D02*
X189100595Y-102205295D01*
X189100595Y-102205295D02*
X189100595Y-102300533D01*
X189100595Y-102300533D02*
X189052976Y-102443390D01*
X189052976Y-102443390D02*
X188481548Y-103014819D01*
X188481548Y-103014819D02*
X189100595Y-103014819D01*
X140676785Y-98767319D02*
X140676785Y-99481604D01*
X140676785Y-99481604D02*
X140629166Y-99624461D01*
X140629166Y-99624461D02*
X140533928Y-99719700D01*
X140533928Y-99719700D02*
X140391071Y-99767319D01*
X140391071Y-99767319D02*
X140295833Y-99767319D01*
X141152976Y-99767319D02*
X141152976Y-98767319D01*
X141152976Y-98767319D02*
X141533928Y-98767319D01*
X141533928Y-98767319D02*
X141629166Y-98814938D01*
X141629166Y-98814938D02*
X141676785Y-98862557D01*
X141676785Y-98862557D02*
X141724404Y-98957795D01*
X141724404Y-98957795D02*
X141724404Y-99100652D01*
X141724404Y-99100652D02*
X141676785Y-99195890D01*
X141676785Y-99195890D02*
X141629166Y-99243509D01*
X141629166Y-99243509D02*
X141533928Y-99291128D01*
X141533928Y-99291128D02*
X141152976Y-99291128D01*
X142676785Y-99767319D02*
X142105357Y-99767319D01*
X142391071Y-99767319D02*
X142391071Y-98767319D01*
X142391071Y-98767319D02*
X142295833Y-98910176D01*
X142295833Y-98910176D02*
X142200595Y-99005414D01*
X142200595Y-99005414D02*
X142105357Y-99053033D01*
X143295833Y-98767319D02*
X143391071Y-98767319D01*
X143391071Y-98767319D02*
X143486309Y-98814938D01*
X143486309Y-98814938D02*
X143533928Y-98862557D01*
X143533928Y-98862557D02*
X143581547Y-98957795D01*
X143581547Y-98957795D02*
X143629166Y-99148271D01*
X143629166Y-99148271D02*
X143629166Y-99386366D01*
X143629166Y-99386366D02*
X143581547Y-99576842D01*
X143581547Y-99576842D02*
X143533928Y-99672080D01*
X143533928Y-99672080D02*
X143486309Y-99719700D01*
X143486309Y-99719700D02*
X143391071Y-99767319D01*
X143391071Y-99767319D02*
X143295833Y-99767319D01*
X143295833Y-99767319D02*
X143200595Y-99719700D01*
X143200595Y-99719700D02*
X143152976Y-99672080D01*
X143152976Y-99672080D02*
X143105357Y-99576842D01*
X143105357Y-99576842D02*
X143057738Y-99386366D01*
X143057738Y-99386366D02*
X143057738Y-99148271D01*
X143057738Y-99148271D02*
X143105357Y-98957795D01*
X143105357Y-98957795D02*
X143152976Y-98862557D01*
X143152976Y-98862557D02*
X143200595Y-98814938D01*
X143200595Y-98814938D02*
X143295833Y-98767319D01*
X144581547Y-99767319D02*
X144010119Y-99767319D01*
X144295833Y-99767319D02*
X144295833Y-98767319D01*
X144295833Y-98767319D02*
X144200595Y-98910176D01*
X144200595Y-98910176D02*
X144105357Y-99005414D01*
X144105357Y-99005414D02*
X144010119Y-99053033D01*
X154364468Y-110002258D02*
X153888277Y-110335591D01*
X154364468Y-110573686D02*
X153364468Y-110573686D01*
X153364468Y-110573686D02*
X153364468Y-110192734D01*
X153364468Y-110192734D02*
X153412087Y-110097496D01*
X153412087Y-110097496D02*
X153459706Y-110049877D01*
X153459706Y-110049877D02*
X153554944Y-110002258D01*
X153554944Y-110002258D02*
X153697801Y-110002258D01*
X153697801Y-110002258D02*
X153793039Y-110049877D01*
X153793039Y-110049877D02*
X153840658Y-110097496D01*
X153840658Y-110097496D02*
X153888277Y-110192734D01*
X153888277Y-110192734D02*
X153888277Y-110573686D01*
X154364468Y-109049877D02*
X154364468Y-109621305D01*
X154364468Y-109335591D02*
X153364468Y-109335591D01*
X153364468Y-109335591D02*
X153507325Y-109430829D01*
X153507325Y-109430829D02*
X153602563Y-109526067D01*
X153602563Y-109526067D02*
X153650182Y-109621305D01*
X153364468Y-108430829D02*
X153364468Y-108335591D01*
X153364468Y-108335591D02*
X153412087Y-108240353D01*
X153412087Y-108240353D02*
X153459706Y-108192734D01*
X153459706Y-108192734D02*
X153554944Y-108145115D01*
X153554944Y-108145115D02*
X153745420Y-108097496D01*
X153745420Y-108097496D02*
X153983515Y-108097496D01*
X153983515Y-108097496D02*
X154173991Y-108145115D01*
X154173991Y-108145115D02*
X154269229Y-108192734D01*
X154269229Y-108192734D02*
X154316849Y-108240353D01*
X154316849Y-108240353D02*
X154364468Y-108335591D01*
X154364468Y-108335591D02*
X154364468Y-108430829D01*
X154364468Y-108430829D02*
X154316849Y-108526067D01*
X154316849Y-108526067D02*
X154269229Y-108573686D01*
X154269229Y-108573686D02*
X154173991Y-108621305D01*
X154173991Y-108621305D02*
X153983515Y-108668924D01*
X153983515Y-108668924D02*
X153745420Y-108668924D01*
X153745420Y-108668924D02*
X153554944Y-108621305D01*
X153554944Y-108621305D02*
X153459706Y-108573686D01*
X153459706Y-108573686D02*
X153412087Y-108526067D01*
X153412087Y-108526067D02*
X153364468Y-108430829D01*
X153364468Y-107764162D02*
X153364468Y-107097496D01*
X153364468Y-107097496D02*
X154364468Y-107526067D01*
D12*
%TO.C,J101*%
X173657500Y-102170000D02*
X173657500Y-100370000D01*
X173657500Y-96660000D02*
X173657500Y-98120000D01*
X164717500Y-102170000D02*
X164717500Y-100370000D01*
X164717500Y-96660000D02*
X173657500Y-96660000D01*
X164717500Y-96660000D02*
X164717500Y-98120000D01*
%TO.C,TP3*%
X185800000Y-115100000D02*
G75*
G02*
X184400000Y-115100000I-700000J0D01*
G01*
X184400000Y-115100000D02*
G75*
G02*
X185800000Y-115100000I700000J0D01*
G01*
%TO.C,R119*%
X184522500Y-129154724D02*
X184522500Y-128645276D01*
X183477500Y-129154724D02*
X183477500Y-128645276D01*
%TO.C,R118*%
X181677500Y-129154724D02*
X181677500Y-128645276D01*
X182722500Y-129154724D02*
X182722500Y-128645276D01*
%TO.C,R117*%
X181945276Y-124222500D02*
X182454724Y-124222500D01*
X181945276Y-123177500D02*
X182454724Y-123177500D01*
%TO.C,R116*%
X181945276Y-120977500D02*
X182454724Y-120977500D01*
X181945276Y-122022500D02*
X182454724Y-122022500D01*
%TO.C,R115*%
X181945276Y-119452500D02*
X182454724Y-119452500D01*
X181945276Y-120497500D02*
X182454724Y-120497500D01*
%TO.C,R114*%
X181945276Y-117927500D02*
X182454724Y-117927500D01*
X181945276Y-118972500D02*
X182454724Y-118972500D01*
%TO.C,C104*%
X190160000Y-106316233D02*
X190160000Y-106608767D01*
X189140000Y-106316233D02*
X189140000Y-106608767D01*
%TO.C,C109*%
X194915000Y-106316233D02*
X194915000Y-106608767D01*
X195935000Y-106316233D02*
X195935000Y-106608767D01*
%TO.C,C112*%
X129558733Y-98340000D02*
X129851267Y-98340000D01*
X129558733Y-99360000D02*
X129851267Y-99360000D01*
%TO.C,U101*%
X135362500Y-107110000D02*
X134882500Y-107110000D01*
X135122500Y-106780000D01*
X135362500Y-107110000D01*
G36*
X135362500Y-107110000D02*
G01*
X134882500Y-107110000D01*
X135122500Y-106780000D01*
X135362500Y-107110000D01*
G37*
X133842500Y-106880000D02*
X130082500Y-106880000D01*
X133842500Y-100060000D02*
X130082500Y-100060000D01*
X130082500Y-106880000D02*
X130082500Y-105620000D01*
X130082500Y-100060000D02*
X130082500Y-101320000D01*
%TO.C,SW105*%
X161200000Y-104190000D02*
X161200000Y-110310000D01*
X157500000Y-104190000D02*
X161200000Y-104190000D01*
X161200000Y-110310000D02*
X157500000Y-110310000D01*
X157500000Y-110310000D02*
X157500000Y-104190000D01*
%TO.C,U105*%
X160150000Y-127650000D02*
X160150000Y-127100000D01*
X160150000Y-117350000D02*
X160150000Y-117900000D01*
X159600000Y-127650000D02*
X160150000Y-127650000D01*
X159600000Y-117350000D02*
X160150000Y-117350000D01*
X150400000Y-127650000D02*
X149850000Y-127650000D01*
X150400000Y-117350000D02*
X149700000Y-117350000D01*
X149850000Y-127650000D02*
X149850000Y-127100000D01*
%TO.C,J105*%
X164390000Y-143135000D02*
X164390000Y-144625000D01*
X164390000Y-144625000D02*
X164390000Y-144625000D01*
X165390000Y-143135000D02*
X164390000Y-143135000D01*
X166390000Y-144625000D02*
X165610000Y-144625000D01*
X167390000Y-143135000D02*
X166610000Y-143135000D01*
X168610000Y-143135000D02*
X168610000Y-142190000D01*
X168610000Y-143135000D02*
X168610000Y-143135000D01*
X168610000Y-143135000D02*
X168610000Y-144625000D01*
X168610000Y-144625000D02*
X167610000Y-144625000D01*
%TO.C,R108*%
X183457776Y-132077500D02*
X183967224Y-132077500D01*
X183457776Y-133122500D02*
X183967224Y-133122500D01*
%TO.C,C115*%
X151908767Y-109660000D02*
X151616233Y-109660000D01*
X151908767Y-108640000D02*
X151616233Y-108640000D01*
%TO.C,R113*%
X154177500Y-134854724D02*
X154177500Y-134345276D01*
X155222500Y-134854724D02*
X155222500Y-134345276D01*
%TO.C,TP1*%
X141000000Y-116900000D02*
G75*
G02*
X139600000Y-116900000I-700000J0D01*
G01*
X139600000Y-116900000D02*
G75*
G02*
X141000000Y-116900000I700000J0D01*
G01*
%TO.C,J103*%
X151390000Y-143080000D02*
X151390000Y-144570000D01*
X151390000Y-144570000D02*
X151390000Y-144570000D01*
X152390000Y-144570000D02*
X151390000Y-144570000D01*
X153390000Y-143080000D02*
X152610000Y-143080000D01*
X154390000Y-144570000D02*
X153610000Y-144570000D01*
X155390000Y-143080000D02*
X154610000Y-143080000D01*
X156390000Y-144570000D02*
X155610000Y-144570000D01*
X157390000Y-143080000D02*
X156610000Y-143080000D01*
X158390000Y-144570000D02*
X157610000Y-144570000D01*
X159390000Y-143080000D02*
X158610000Y-143080000D01*
X160390000Y-144570000D02*
X159610000Y-144570000D01*
X161390000Y-143080000D02*
X160610000Y-143080000D01*
X162610000Y-143080000D02*
X162610000Y-142135000D01*
X162610000Y-143080000D02*
X162610000Y-143080000D01*
X162610000Y-143080000D02*
X162610000Y-144570000D01*
X162610000Y-144570000D02*
X161610000Y-144570000D01*
%TO.C,C114*%
X177190000Y-127986267D02*
X177190000Y-127693733D01*
X178210000Y-127986267D02*
X178210000Y-127693733D01*
D13*
%TO.C,U103*%
X145780001Y-103951000D02*
X144379999Y-103951000D01*
X146829999Y-107000001D02*
X144530001Y-107000001D01*
D12*
%TO.C,R110*%
X189257776Y-132077500D02*
X189767224Y-132077500D01*
X189257776Y-133122500D02*
X189767224Y-133122500D01*
%TO.C,SW102*%
X175150000Y-137140000D02*
X178850000Y-137140000D01*
X175150000Y-143260000D02*
X175150000Y-137140000D01*
X178850000Y-137140000D02*
X178850000Y-143260000D01*
X178850000Y-143260000D02*
X175150000Y-143260000D01*
%TO.C,R101*%
X130962776Y-107787500D02*
X131472224Y-107787500D01*
X130962776Y-108832500D02*
X131472224Y-108832500D01*
%TO.C,TP2*%
X152200000Y-138200000D02*
G75*
G02*
X150800000Y-138200000I-700000J0D01*
G01*
X150800000Y-138200000D02*
G75*
G02*
X152200000Y-138200000I700000J0D01*
G01*
%TO.C,R105*%
X138740000Y-107867224D02*
X138740000Y-107357776D01*
X139785000Y-107867224D02*
X139785000Y-107357776D01*
%TO.C,C101*%
X155791233Y-98790000D02*
X156083767Y-98790000D01*
X155791233Y-99810000D02*
X156083767Y-99810000D01*
%TO.C,R112*%
X150977500Y-134345276D02*
X150977500Y-134854724D01*
X152022500Y-134345276D02*
X152022500Y-134854724D01*
%TO.C,U102*%
X182690000Y-103240000D02*
X185410000Y-103240000D01*
X182690000Y-104220000D02*
X182690000Y-103240000D01*
X182690000Y-106980000D02*
X182690000Y-107960000D01*
X185270000Y-107960000D02*
X182690000Y-107960000D01*
X185410000Y-107960000D02*
X182690000Y-107960000D01*
X186060000Y-108140000D02*
X185580000Y-108140000D01*
X185820000Y-107810000D01*
X186060000Y-108140000D01*
G36*
X186060000Y-108140000D02*
G01*
X185580000Y-108140000D01*
X185820000Y-107810000D01*
X186060000Y-108140000D01*
G37*
%TO.C,R106*%
X138740000Y-103767224D02*
X138740000Y-103257776D01*
X139785000Y-103767224D02*
X139785000Y-103257776D01*
%TO.C,R102*%
X135532776Y-107777500D02*
X136042224Y-107777500D01*
X135532776Y-108822500D02*
X136042224Y-108822500D01*
%TO.C,C105*%
X125090000Y-104186233D02*
X125090000Y-104478767D01*
X126110000Y-104186233D02*
X126110000Y-104478767D01*
%TO.C,SW103*%
X186745239Y-137140000D02*
X190445239Y-137140000D01*
X186745239Y-143260000D02*
X186745239Y-137140000D01*
X190445239Y-137140000D02*
X190445239Y-143260000D01*
X190445239Y-143260000D02*
X186745239Y-143260000D01*
%TO.C,C111*%
X171216233Y-132977500D02*
X171508767Y-132977500D01*
X171216233Y-133997500D02*
X171508767Y-133997500D01*
%TO.C,Y101*%
X169190000Y-125817500D02*
X169190000Y-130437500D01*
X169190000Y-130437500D02*
X174710000Y-130437500D01*
%TO.C,J102*%
X127390000Y-143080000D02*
X128390000Y-143080000D01*
X127390000Y-144570000D02*
X127390000Y-143080000D01*
X127390000Y-144570000D02*
X127390000Y-144570000D01*
X127390000Y-144570000D02*
X127390000Y-145515000D01*
X128610000Y-144570000D02*
X129390000Y-144570000D01*
X129610000Y-143080000D02*
X130390000Y-143080000D01*
X130610000Y-144570000D02*
X131390000Y-144570000D01*
X131610000Y-143080000D02*
X132390000Y-143080000D01*
X132610000Y-144570000D02*
X133390000Y-144570000D01*
X133610000Y-143080000D02*
X134390000Y-143080000D01*
X134610000Y-144570000D02*
X135390000Y-144570000D01*
X135610000Y-143080000D02*
X136390000Y-143080000D01*
X136610000Y-144570000D02*
X137390000Y-144570000D01*
X137610000Y-143080000D02*
X138390000Y-143080000D01*
X138610000Y-144570000D02*
X139390000Y-144570000D01*
X139610000Y-143080000D02*
X140390000Y-143080000D01*
X140610000Y-144570000D02*
X141390000Y-144570000D01*
X141610000Y-143080000D02*
X142390000Y-143080000D01*
X142610000Y-144570000D02*
X143390000Y-144570000D01*
X143610000Y-143080000D02*
X144390000Y-143080000D01*
X144610000Y-144570000D02*
X145390000Y-144570000D01*
X145610000Y-143080000D02*
X146390000Y-143080000D01*
X146610000Y-144570000D02*
X147390000Y-144570000D01*
X147610000Y-143080000D02*
X148390000Y-143080000D01*
X148610000Y-144570000D02*
X149610000Y-144570000D01*
X149610000Y-143080000D02*
X149610000Y-143080000D01*
X149610000Y-144570000D02*
X149610000Y-143080000D01*
%TO.C,R103*%
X164142224Y-106977500D02*
X163632776Y-106977500D01*
X164142224Y-108022500D02*
X163632776Y-108022500D01*
%TO.C,R109*%
X177645276Y-132077500D02*
X178154724Y-132077500D01*
X177645276Y-133122500D02*
X178154724Y-133122500D01*
%TO.C,C103*%
X145746267Y-102090000D02*
X145453733Y-102090000D01*
X145746267Y-103110000D02*
X145453733Y-103110000D01*
%TO.C,C106*%
X144891233Y-107890000D02*
X145183767Y-107890000D01*
X144891233Y-108910000D02*
X145183767Y-108910000D01*
%TO.C,C108*%
X193047500Y-106316233D02*
X193047500Y-106608767D01*
X192027500Y-106316233D02*
X192027500Y-106608767D01*
%TO.C,C110*%
X126110000Y-107853733D02*
X126110000Y-108146267D01*
X125090000Y-107853733D02*
X125090000Y-108146267D01*
%TO.C,J106*%
X125480000Y-118290000D02*
X124535000Y-118290000D01*
X125480000Y-118290000D02*
X125480000Y-118290000D01*
X125480000Y-118290000D02*
X126970000Y-118290000D01*
X125480000Y-119510000D02*
X125480000Y-120290000D01*
X125480000Y-121510000D02*
X125480000Y-122290000D01*
X125480000Y-123510000D02*
X125480000Y-124290000D01*
X125480000Y-125510000D02*
X125480000Y-126290000D01*
X125480000Y-127510000D02*
X125480000Y-128510000D01*
X125480000Y-128510000D02*
X126970000Y-128510000D01*
X126970000Y-118290000D02*
X126970000Y-119290000D01*
X126970000Y-120510000D02*
X126970000Y-121290000D01*
X126970000Y-122510000D02*
X126970000Y-123290000D01*
X126970000Y-124510000D02*
X126970000Y-125290000D01*
X126970000Y-126510000D02*
X126970000Y-127290000D01*
X126970000Y-128510000D02*
X126970000Y-128510000D01*
%TO.C,R111*%
X195045276Y-132077500D02*
X195554724Y-132077500D01*
X195045276Y-133122500D02*
X195554724Y-133122500D01*
%TO.C,L101*%
X147840000Y-104790000D02*
X147840000Y-107810000D01*
X150560000Y-104790000D02*
X150560000Y-107810000D01*
%TO.C,SW104*%
X192542858Y-137140000D02*
X196242858Y-137140000D01*
X192542858Y-143260000D02*
X192542858Y-137140000D01*
X196242858Y-137140000D02*
X196242858Y-143260000D01*
X196242858Y-143260000D02*
X192542858Y-143260000D01*
%TO.C,R104*%
X169742224Y-108677500D02*
X169232776Y-108677500D01*
X169742224Y-109722500D02*
X169232776Y-109722500D01*
%TO.C,SW101*%
X180947619Y-137140000D02*
X184647619Y-137140000D01*
X180947619Y-143260000D02*
X180947619Y-137140000D01*
X184647619Y-137140000D02*
X184647619Y-143260000D01*
X184647619Y-143260000D02*
X180947619Y-143260000D01*
%TO.C,J108*%
X125455000Y-110590000D02*
X124510000Y-110590000D01*
X125455000Y-110590000D02*
X125455000Y-110590000D01*
X125455000Y-110590000D02*
X126945000Y-110590000D01*
X125455000Y-111810000D02*
X125455000Y-112590000D01*
X125455000Y-113810000D02*
X125455000Y-114590000D01*
X125455000Y-115810000D02*
X126945000Y-115810000D01*
X126945000Y-110590000D02*
X126945000Y-111590000D01*
X126945000Y-112810000D02*
X126945000Y-113590000D01*
X126945000Y-114810000D02*
X126945000Y-115810000D01*
X126945000Y-115810000D02*
X126945000Y-115810000D01*
%TO.C,C116*%
X154829649Y-104991978D02*
X154829649Y-104699444D01*
X155849649Y-104991978D02*
X155849649Y-104699444D01*
%TO.C,C107*%
X151390000Y-106408767D02*
X151390000Y-106116233D01*
X152410000Y-106408767D02*
X152410000Y-106116233D01*
%TO.C,U104*%
X168440000Y-114240000D02*
X168440000Y-114510000D01*
X168440000Y-119760000D02*
X168440000Y-119490000D01*
X171200000Y-114240000D02*
X168440000Y-114240000D01*
X171200000Y-114240000D02*
X173960000Y-114240000D01*
X171200000Y-119760000D02*
X168440000Y-119760000D01*
X171200000Y-119760000D02*
X173960000Y-119760000D01*
X173960000Y-114240000D02*
X173960000Y-114510000D01*
X173960000Y-119760000D02*
X173960000Y-119490000D01*
X167675000Y-114510000D02*
X167435000Y-114180000D01*
X167915000Y-114180000D01*
X167675000Y-114510000D01*
G36*
X167675000Y-114510000D02*
G01*
X167435000Y-114180000D01*
X167915000Y-114180000D01*
X167675000Y-114510000D01*
G37*
%TO.C,C113*%
X152196267Y-103060000D02*
X151903733Y-103060000D01*
X152196267Y-102040000D02*
X151903733Y-102040000D01*
%TO.C,C102*%
X187216233Y-100660000D02*
X187508767Y-100660000D01*
X187216233Y-101680000D02*
X187508767Y-101680000D01*
%TO.C,JP101*%
X141462500Y-102412500D02*
X141462500Y-101012500D01*
X142162500Y-100312500D02*
X142762500Y-100312500D01*
X142762500Y-103112500D02*
X142162500Y-103112500D01*
X143462500Y-101012500D02*
X143462500Y-102412500D01*
X141462500Y-101012500D02*
G75*
G02*
X142162500Y-100312500I700000J0D01*
G01*
X142162500Y-103112500D02*
G75*
G02*
X141462500Y-102412500I-1J699999D01*
G01*
X142762500Y-100312500D02*
G75*
G02*
X143462500Y-101012500I0J-700000D01*
G01*
X143462500Y-102412500D02*
G75*
G02*
X142762500Y-103112500I-699999J-1D01*
G01*
%TO.C,R107*%
X154817149Y-109137935D02*
X154817149Y-108628487D01*
X155862149Y-109137935D02*
X155862149Y-108628487D01*
%TD*%
M02*
