%TF.GenerationSoftware,KiCad,Pcbnew,9.0.2*%
%TF.CreationDate,2025-06-25T18:48:56+05:30*%
%TF.ProjectId,DevBoard_F1C100s,44657642-6f61-4726-945f-463143313030,rev?*%
%TF.SameCoordinates,Original*%
%TF.FileFunction,Soldermask,Top*%
%TF.FilePolarity,Negative*%
%FSLAX46Y46*%
G04 Gerber Fmt 4.6, Leading zero omitted, Abs format (unit mm)*
G04 Created by KiCad (PCBNEW 9.0.2) date 2025-06-25 18:48:56*
%MOMM*%
%LPD*%
G01*
G04 APERTURE LIST*
G04 Aperture macros list*
%AMRoundRect*
0 Rectangle with rounded corners*
0 $1 Rounding radius*
0 $2 $3 $4 $5 $6 $7 $8 $9 X,Y pos of 4 corners*
0 Add a 4 corners polygon primitive as box body*
4,1,4,$2,$3,$4,$5,$6,$7,$8,$9,$2,$3,0*
0 Add four circle primitives for the rounded corners*
1,1,$1+$1,$2,$3*
1,1,$1+$1,$4,$5*
1,1,$1+$1,$6,$7*
1,1,$1+$1,$8,$9*
0 Add four rect primitives between the rounded corners*
20,1,$1+$1,$2,$3,$4,$5,0*
20,1,$1+$1,$4,$5,$6,$7,0*
20,1,$1+$1,$6,$7,$8,$9,0*
20,1,$1+$1,$8,$9,$2,$3,0*%
%AMFreePoly0*
4,1,9,5.362500,-0.866500,1.237500,-0.866500,1.237500,-0.450000,-1.237500,-0.450000,-1.237500,0.450000,1.237500,0.450000,1.237500,0.866500,5.362500,0.866500,5.362500,-0.866500,5.362500,-0.866500,$1*%
%AMFreePoly1*
4,1,23,0.500000,-0.750000,0.000000,-0.750000,0.000000,-0.745722,-0.065263,-0.745722,-0.191342,-0.711940,-0.304381,-0.646677,-0.396677,-0.554381,-0.461940,-0.441342,-0.495722,-0.315263,-0.495722,-0.250000,-0.500000,-0.250000,-0.500000,0.250000,-0.495722,0.250000,-0.495722,0.315263,-0.461940,0.441342,-0.396677,0.554381,-0.304381,0.646677,-0.191342,0.711940,-0.065263,0.745722,0.000000,0.745722,
0.000000,0.750000,0.500000,0.750000,0.500000,-0.750000,0.500000,-0.750000,$1*%
%AMFreePoly2*
4,1,23,0.000000,0.745722,0.065263,0.745722,0.191342,0.711940,0.304381,0.646677,0.396677,0.554381,0.461940,0.441342,0.495722,0.315263,0.495722,0.250000,0.500000,0.250000,0.500000,-0.250000,0.495722,-0.250000,0.495722,-0.315263,0.461940,-0.441342,0.396677,-0.554381,0.304381,-0.646677,0.191342,-0.711940,0.065263,-0.745722,0.000000,-0.745722,0.000000,-0.750000,-0.500000,-0.750000,
-0.500000,0.750000,0.000000,0.750000,0.000000,0.745722,0.000000,0.745722,$1*%
G04 Aperture macros list end*
%ADD10R,0.600000X1.750000*%
%ADD11RoundRect,0.237500X-0.250000X-0.237500X0.250000X-0.237500X0.250000X0.237500X-0.250000X0.237500X0*%
%ADD12RoundRect,0.375000X0.625000X0.375000X-0.625000X0.375000X-0.625000X-0.375000X0.625000X-0.375000X0*%
%ADD13RoundRect,0.500000X0.500000X1.400000X-0.500000X1.400000X-0.500000X-1.400000X0.500000X-1.400000X0*%
%ADD14RoundRect,0.237500X0.300000X0.237500X-0.300000X0.237500X-0.300000X-0.237500X0.300000X-0.237500X0*%
%ADD15C,1.000000*%
%ADD16RoundRect,0.237500X0.237500X-0.250000X0.237500X0.250000X-0.237500X0.250000X-0.237500X-0.250000X0*%
%ADD17R,0.600000X1.160000*%
%ADD18R,0.300000X1.160000*%
%ADD19O,0.900000X2.000000*%
%ADD20O,0.900000X1.700000*%
%ADD21RoundRect,0.237500X0.237500X-0.300000X0.237500X0.300000X-0.237500X0.300000X-0.237500X-0.300000X0*%
%ADD22R,1.000000X0.599999*%
%ADD23R,1.500000X1.500000*%
%ADD24RoundRect,0.237500X-0.300000X-0.237500X0.300000X-0.237500X0.300000X0.237500X-0.300000X0.237500X0*%
%ADD25RoundRect,0.237500X-0.237500X0.250000X-0.237500X-0.250000X0.237500X-0.250000X0.237500X0.250000X0*%
%ADD26RoundRect,0.237500X-0.237500X0.300000X-0.237500X-0.300000X0.237500X-0.300000X0.237500X0.300000X0*%
%ADD27RoundRect,0.225000X0.925000X0.225000X-0.925000X0.225000X-0.925000X-0.225000X0.925000X-0.225000X0*%
%ADD28FreePoly0,180.000000*%
%ADD29C,1.700000*%
%ADD30RoundRect,0.172500X-0.627500X-0.402500X0.627500X-0.402500X0.627500X0.402500X-0.627500X0.402500X0*%
%ADD31RoundRect,0.127500X-0.672500X-0.297500X0.672500X-0.297500X0.672500X0.297500X-0.672500X0.297500X0*%
%ADD32RoundRect,0.250000X-0.800000X-0.650000X0.800000X-0.650000X0.800000X0.650000X-0.800000X0.650000X0*%
%ADD33R,0.600000X0.200000*%
%ADD34R,0.200000X0.600000*%
%ADD35R,6.740000X6.740000*%
%ADD36RoundRect,0.237500X0.250000X0.237500X-0.250000X0.237500X-0.250000X-0.237500X0.250000X-0.237500X0*%
%ADD37R,1.750000X0.600000*%
%ADD38RoundRect,0.212500X-0.887500X0.212500X-0.887500X-0.212500X0.887500X-0.212500X0.887500X0.212500X0*%
%ADD39RoundRect,0.162500X-0.650000X-0.162500X0.650000X-0.162500X0.650000X0.162500X-0.650000X0.162500X0*%
%ADD40FreePoly1,90.000000*%
%ADD41FreePoly2,90.000000*%
G04 APERTURE END LIST*
%TO.C,JP101*%
G36*
X141712500Y-101970000D02*
G01*
X143212500Y-101970000D01*
X143212500Y-101670000D01*
X141712500Y-101670000D01*
X141712500Y-101970000D01*
G37*
%TD*%
D10*
%TO.C,J105*%
X168000000Y-143005000D03*
X167000000Y-144755000D03*
X166000000Y-143005000D03*
X165000000Y-144755000D03*
%TD*%
D11*
%TO.C,R116*%
X182800000Y-132600000D03*
X184625000Y-132600000D03*
%TD*%
D12*
%TO.C,U101*%
X135142500Y-105770000D03*
X135142500Y-103470000D03*
D13*
X128842500Y-103470000D03*
D12*
X135142500Y-101170000D03*
%TD*%
D14*
%TO.C,C115*%
X152625000Y-109150000D03*
X150900000Y-109150000D03*
%TD*%
D15*
%TO.C,TP103*%
X185100000Y-115100000D03*
%TD*%
D16*
%TO.C,R108*%
X154700000Y-135512500D03*
X154700000Y-133687500D03*
%TD*%
D17*
%TO.C,J101*%
X172387500Y-104010000D03*
X171587500Y-104010000D03*
D18*
X170437500Y-104010000D03*
X169437500Y-104010000D03*
X168937500Y-104010000D03*
X167937500Y-104010000D03*
D17*
X166787500Y-104010000D03*
X165987500Y-104010000D03*
X165987500Y-104010000D03*
X166787500Y-104010000D03*
D18*
X167437500Y-104010000D03*
X168437500Y-104010000D03*
X169937500Y-104010000D03*
X170937500Y-104010000D03*
D17*
X171587500Y-104010000D03*
X172387500Y-104010000D03*
D19*
X173507500Y-103430000D03*
D20*
X173507500Y-99260000D03*
D19*
X164867500Y-103430000D03*
D20*
X164867500Y-99260000D03*
%TD*%
D15*
%TO.C,TP101*%
X140300000Y-116900000D03*
%TD*%
D10*
%TO.C,J103*%
X162000000Y-142950000D03*
X161000000Y-144700000D03*
X160000000Y-142950000D03*
X159000000Y-144700000D03*
X158000000Y-142950000D03*
X157000000Y-144700000D03*
X156000000Y-142950000D03*
X155000000Y-144700000D03*
X154000000Y-142950000D03*
X153000000Y-144700000D03*
X152000000Y-142950000D03*
%TD*%
D21*
%TO.C,C109*%
X177700000Y-128702500D03*
X177700000Y-126977500D03*
%TD*%
D22*
%TO.C,U103*%
X146455001Y-106425001D03*
X146455001Y-105475000D03*
X146455001Y-104525002D03*
X143705001Y-104525002D03*
X143705001Y-105475000D03*
X143705001Y-106425001D03*
%TD*%
D11*
%TO.C,R118*%
X188600000Y-132600000D03*
X190425000Y-132600000D03*
%TD*%
D16*
%TO.C,R109*%
X184000000Y-129812500D03*
X184000000Y-127987500D03*
%TD*%
D11*
%TO.C,R114*%
X181287500Y-118450000D03*
X183112500Y-118450000D03*
%TD*%
D23*
%TO.C,SW102*%
X177000000Y-136300000D03*
X177000000Y-144100000D03*
%TD*%
D11*
%TO.C,R101*%
X130305000Y-108310000D03*
X132130000Y-108310000D03*
%TD*%
D15*
%TO.C,TP102*%
X151500000Y-138200000D03*
%TD*%
D16*
%TO.C,R105*%
X139262500Y-108525000D03*
X139262500Y-106700000D03*
%TD*%
D24*
%TO.C,C101*%
X155075000Y-99300000D03*
X156800000Y-99300000D03*
%TD*%
D25*
%TO.C,R107*%
X151500000Y-133687500D03*
X151500000Y-135512500D03*
%TD*%
D26*
%TO.C,C104*%
X189650000Y-105600000D03*
X189650000Y-107325000D03*
%TD*%
D27*
%TO.C,U102*%
X186500000Y-107100000D03*
D28*
X186412500Y-105600000D03*
D27*
X186500000Y-104100000D03*
%TD*%
D16*
%TO.C,R106*%
X139262500Y-104425000D03*
X139262500Y-102600000D03*
%TD*%
D11*
%TO.C,R102*%
X134875000Y-108300000D03*
X136700000Y-108300000D03*
%TD*%
D26*
%TO.C,C105*%
X125600000Y-103470000D03*
X125600000Y-105195000D03*
%TD*%
D29*
%TO.C,J107*%
X188950000Y-117100000D03*
X188950000Y-127100000D03*
D30*
X193850000Y-115100000D03*
X193900000Y-129100000D03*
D31*
X185800000Y-119300000D03*
X185800000Y-120400000D03*
X185800000Y-121500000D03*
X185800000Y-122600000D03*
X185800000Y-123700000D03*
X185800000Y-124800000D03*
X185800000Y-125900000D03*
X185800000Y-127000000D03*
X185800000Y-117100000D03*
X185800000Y-118200000D03*
%TD*%
D23*
%TO.C,SW103*%
X188595239Y-136300000D03*
X188595239Y-144100000D03*
%TD*%
D24*
%TO.C,C108*%
X170500000Y-133487500D03*
X172225000Y-133487500D03*
%TD*%
D32*
%TO.C,Y101*%
X170500000Y-129277500D03*
X173400000Y-129277500D03*
X173400000Y-126977500D03*
X170500000Y-126977500D03*
%TD*%
D33*
%TO.C,U105*%
X150300001Y-118300000D03*
X150300000Y-118700000D03*
X150300000Y-119100000D03*
X150300000Y-119500000D03*
X150300000Y-119899999D03*
X150300000Y-120300000D03*
X150300000Y-120700000D03*
X150300001Y-121100000D03*
X150300000Y-121500000D03*
X150300000Y-121900000D03*
X150300000Y-122300001D03*
X150300000Y-122699999D03*
X150300000Y-123100000D03*
X150300000Y-123500000D03*
X150300001Y-123900000D03*
X150300000Y-124300000D03*
X150300000Y-124700000D03*
X150300000Y-125100001D03*
X150300000Y-125500000D03*
X150300000Y-125900000D03*
X150300000Y-126300000D03*
X150300001Y-126700000D03*
D34*
X150800000Y-127199999D03*
X151200000Y-127200000D03*
X151600000Y-127200000D03*
X152000000Y-127200000D03*
X152399999Y-127200000D03*
X152800000Y-127200000D03*
X153200000Y-127200000D03*
X153600000Y-127199999D03*
X154000000Y-127200000D03*
X154400000Y-127200000D03*
X154800001Y-127200000D03*
X155199999Y-127200000D03*
X155600000Y-127200000D03*
X156000000Y-127200000D03*
X156400000Y-127199999D03*
X156800000Y-127200000D03*
X157200000Y-127200000D03*
X157600001Y-127200000D03*
X158000000Y-127200000D03*
X158400000Y-127200000D03*
X158800000Y-127200000D03*
X159200000Y-127199999D03*
D33*
X159699999Y-126700000D03*
X159700000Y-126300000D03*
X159700000Y-125900000D03*
X159700000Y-125500000D03*
X159700000Y-125100001D03*
X159700000Y-124700000D03*
X159700000Y-124300000D03*
X159699999Y-123900000D03*
X159700000Y-123500000D03*
X159700000Y-123100000D03*
X159700000Y-122699999D03*
X159700000Y-122300001D03*
X159700000Y-121900000D03*
X159700000Y-121500000D03*
X159699999Y-121100000D03*
X159700000Y-120700000D03*
X159700000Y-120300000D03*
X159700000Y-119899999D03*
X159700000Y-119500000D03*
X159700000Y-119100000D03*
X159700000Y-118700000D03*
X159699999Y-118300000D03*
D34*
X159200000Y-117800001D03*
X158800000Y-117800000D03*
X158400000Y-117800000D03*
X158000000Y-117800000D03*
X157600001Y-117800000D03*
X157200000Y-117800000D03*
X156800000Y-117800000D03*
X156400000Y-117800001D03*
X156000000Y-117800000D03*
X155600000Y-117800000D03*
X155199999Y-117800000D03*
X154800001Y-117800000D03*
X154400000Y-117800000D03*
X154000000Y-117800000D03*
X153600000Y-117800001D03*
X153200000Y-117800000D03*
X152800000Y-117800000D03*
X152399999Y-117800000D03*
X152000000Y-117800000D03*
X151600000Y-117800000D03*
X151200000Y-117800000D03*
X150800000Y-117800001D03*
D35*
X155000000Y-122500000D03*
%TD*%
D10*
%TO.C,J102*%
X128000000Y-144700000D03*
X129000000Y-142950000D03*
X130000000Y-144700000D03*
X131000000Y-142950000D03*
X132000000Y-144700000D03*
X133000000Y-142950000D03*
X134000000Y-144700000D03*
X135000000Y-142950000D03*
X136000000Y-144700000D03*
X137000000Y-142950000D03*
X138000000Y-144700000D03*
X139000000Y-142950000D03*
X140000000Y-144700000D03*
X141000000Y-142950000D03*
X142000000Y-144700000D03*
X143000000Y-142950000D03*
X144000000Y-144700000D03*
X145000000Y-142950000D03*
X146000000Y-144700000D03*
X147000000Y-142950000D03*
X148000000Y-144700000D03*
X149000000Y-142950000D03*
%TD*%
D36*
%TO.C,R103*%
X164800000Y-107500000D03*
X162975000Y-107500000D03*
%TD*%
D11*
%TO.C,R111*%
X181287500Y-123700000D03*
X183112500Y-123700000D03*
%TD*%
%TO.C,R117*%
X176987500Y-132600000D03*
X178812500Y-132600000D03*
%TD*%
D14*
%TO.C,C103*%
X146462500Y-102600000D03*
X144737500Y-102600000D03*
%TD*%
D24*
%TO.C,C106*%
X144175000Y-108400000D03*
X145900000Y-108400000D03*
%TD*%
D26*
%TO.C,C110*%
X192537500Y-105600000D03*
X192537500Y-107325000D03*
%TD*%
%TO.C,C112*%
X125600000Y-107137500D03*
X125600000Y-108862500D03*
%TD*%
%TO.C,C111*%
X195425000Y-105600000D03*
X195425000Y-107325000D03*
%TD*%
D37*
%TO.C,J104*%
X125350000Y-118900000D03*
X127100000Y-119900000D03*
X125350000Y-120900000D03*
X127100000Y-121900000D03*
X125350000Y-122900000D03*
X127100000Y-123900000D03*
X125350000Y-124900000D03*
X127100000Y-125900000D03*
X125350000Y-126900000D03*
X127100000Y-127900000D03*
%TD*%
D11*
%TO.C,R119*%
X194387500Y-132600000D03*
X196212500Y-132600000D03*
%TD*%
D16*
%TO.C,R110*%
X182200000Y-129812500D03*
X182200000Y-127987500D03*
%TD*%
D24*
%TO.C,C113*%
X128842500Y-98850000D03*
X130567500Y-98850000D03*
%TD*%
D23*
%TO.C,SW105*%
X159350000Y-103350000D03*
X159350000Y-111150000D03*
%TD*%
D38*
%TO.C,L101*%
X149200000Y-105475000D03*
X149200000Y-107125000D03*
%TD*%
D23*
%TO.C,SW104*%
X194392858Y-136300000D03*
X194392858Y-144100000D03*
%TD*%
D36*
%TO.C,R104*%
X170400000Y-109200000D03*
X168575000Y-109200000D03*
%TD*%
D23*
%TO.C,SW101*%
X182797619Y-136300000D03*
X182797619Y-144100000D03*
%TD*%
D37*
%TO.C,J106*%
X125325000Y-111200000D03*
X127075000Y-112200000D03*
X125325000Y-113200000D03*
X127075000Y-114200000D03*
X125325000Y-115200000D03*
%TD*%
D21*
%TO.C,C116*%
X155339649Y-105708211D03*
X155339649Y-103983211D03*
%TD*%
%TO.C,C107*%
X151900000Y-107125000D03*
X151900000Y-105400000D03*
%TD*%
D39*
%TO.C,U104*%
X167612500Y-115095000D03*
X167612500Y-116365000D03*
X167612500Y-117635000D03*
X167612500Y-118905000D03*
X174787500Y-118905000D03*
X174787500Y-117635000D03*
X174787500Y-116365000D03*
X174787500Y-115095000D03*
%TD*%
D14*
%TO.C,C114*%
X152912500Y-102550000D03*
X151187500Y-102550000D03*
%TD*%
D24*
%TO.C,C102*%
X186500000Y-101170000D03*
X188225000Y-101170000D03*
%TD*%
D11*
%TO.C,R112*%
X181287500Y-121500000D03*
X183112500Y-121500000D03*
%TD*%
%TO.C,R113*%
X181287500Y-119975000D03*
X183112500Y-119975000D03*
%TD*%
D40*
%TO.C,JP101*%
X142462500Y-102470000D03*
D41*
X142462500Y-101170000D03*
%TD*%
D16*
%TO.C,R115*%
X155339649Y-109795711D03*
X155339649Y-107970711D03*
%TD*%
M02*
